<?xml version="1.0" encoding="utf-8" standalone="no"?>
<!DOCTYPE svg PUBLIC "-//W3C//DTD SVG 1.1//EN"
  "http://www.w3.org/Graphics/SVG/1.1/DTD/svg11.dtd">
<svg height="277.314375pt" version="1.1" viewBox="0 0 500.565625 277.314375" width="500.565625pt" xmlns="http://www.w3.org/2000/svg" xmlns:xlink="http://www.w3.org/1999/xlink">
 <metadata>
  <rdf:RDF xmlns:cc="http://creativecommons.org/ns#" xmlns:dc="http://purl.org/dc/elements/1.1/" xmlns:rdf="http://www.w3.org/1999/02/22-rdf-syntax-ns#">
   <cc:Work>
    <dc:type rdf:resource="http://purl.org/dc/dcmitype/StillImage"/>
    <dc:date>2023-05-19T15:58:04.782864</dc:date>
    <dc:format>image/svg+xml</dc:format>
    <dc:creator>
     <cc:Agent>
      <dc:title>Matplotlib v3.4.3, https://matplotlib.org/</dc:title>
     </cc:Agent>
    </dc:creator>
   </cc:Work>
  </rdf:RDF>
 </metadata>
 <defs>
  <style type="text/css">*{stroke-linecap:butt;stroke-linejoin:round;}</style>
 </defs>
 <g id="figure_1">
  <g id="patch_1">
   <path d="M 0 277.314375 
L 500.565625 277.314375 
L 500.565625 0 
L 0 0 
z
" style="fill:none;"/>
  </g>
  <g id="axes_1">
   <g id="patch_2">
    <path d="M 46.965625 239.758125 
L 493.365625 239.758125 
L 493.365625 22.318125 
L 46.965625 22.318125 
z
" style="fill:#ffffff;"/>
   </g>
   <g id="matplotlib.axis_1">
    <g id="xtick_1">
     <g id="line2d_1">
      <path clip-path="url(#p86fb6ea178)" d="M 67.256534 239.758125 
L 67.256534 22.318125 
" style="fill:none;stroke:#b0b0b0;stroke-linecap:square;stroke-width:0.8;"/>
     </g>
     <g id="line2d_2">
      <defs>
       <path d="M 0 0 
L 0 3.5 
" id="m83cdcf4044" style="stroke:#000000;stroke-width:0.8;"/>
      </defs>
      <g>
       <use style="stroke:#000000;stroke-width:0.8;" x="67.256534" xlink:href="#m83cdcf4044" y="239.758125"/>
      </g>
     </g>
     <g id="text_1">
      <!-- 0 -->
      <g transform="translate(64.075284 254.356562)scale(0.1 -0.1)">
       <defs>
        <path d="M 2034 4250 
Q 1547 4250 1301 3770 
Q 1056 3291 1056 2328 
Q 1056 1369 1301 889 
Q 1547 409 2034 409 
Q 2525 409 2770 889 
Q 3016 1369 3016 2328 
Q 3016 3291 2770 3770 
Q 2525 4250 2034 4250 
z
M 2034 4750 
Q 2819 4750 3233 4129 
Q 3647 3509 3647 2328 
Q 3647 1150 3233 529 
Q 2819 -91 2034 -91 
Q 1250 -91 836 529 
Q 422 1150 422 2328 
Q 422 3509 836 4129 
Q 1250 4750 2034 4750 
z
" id="DejaVuSans-30" transform="scale(0.015625)"/>
       </defs>
       <use xlink:href="#DejaVuSans-30"/>
      </g>
     </g>
    </g>
    <g id="xtick_2">
     <g id="line2d_3">
      <path clip-path="url(#p86fb6ea178)" d="M 145.446507 239.758125 
L 145.446507 22.318125 
" style="fill:none;stroke:#b0b0b0;stroke-linecap:square;stroke-width:0.8;"/>
     </g>
     <g id="line2d_4">
      <g>
       <use style="stroke:#000000;stroke-width:0.8;" x="145.446507" xlink:href="#m83cdcf4044" y="239.758125"/>
      </g>
     </g>
     <g id="text_2">
      <!-- 10 -->
      <g transform="translate(139.084007 254.356562)scale(0.1 -0.1)">
       <defs>
        <path d="M 794 531 
L 1825 531 
L 1825 4091 
L 703 3866 
L 703 4441 
L 1819 4666 
L 2450 4666 
L 2450 531 
L 3481 531 
L 3481 0 
L 794 0 
L 794 531 
z
" id="DejaVuSans-31" transform="scale(0.015625)"/>
       </defs>
       <use xlink:href="#DejaVuSans-31"/>
       <use x="63.623047" xlink:href="#DejaVuSans-30"/>
      </g>
     </g>
    </g>
    <g id="xtick_3">
     <g id="line2d_5">
      <path clip-path="url(#p86fb6ea178)" d="M 223.63648 239.758125 
L 223.63648 22.318125 
" style="fill:none;stroke:#b0b0b0;stroke-linecap:square;stroke-width:0.8;"/>
     </g>
     <g id="line2d_6">
      <g>
       <use style="stroke:#000000;stroke-width:0.8;" x="223.63648" xlink:href="#m83cdcf4044" y="239.758125"/>
      </g>
     </g>
     <g id="text_3">
      <!-- 20 -->
      <g transform="translate(217.27398 254.356562)scale(0.1 -0.1)">
       <defs>
        <path d="M 1228 531 
L 3431 531 
L 3431 0 
L 469 0 
L 469 531 
Q 828 903 1448 1529 
Q 2069 2156 2228 2338 
Q 2531 2678 2651 2914 
Q 2772 3150 2772 3378 
Q 2772 3750 2511 3984 
Q 2250 4219 1831 4219 
Q 1534 4219 1204 4116 
Q 875 4013 500 3803 
L 500 4441 
Q 881 4594 1212 4672 
Q 1544 4750 1819 4750 
Q 2544 4750 2975 4387 
Q 3406 4025 3406 3419 
Q 3406 3131 3298 2873 
Q 3191 2616 2906 2266 
Q 2828 2175 2409 1742 
Q 1991 1309 1228 531 
z
" id="DejaVuSans-32" transform="scale(0.015625)"/>
       </defs>
       <use xlink:href="#DejaVuSans-32"/>
       <use x="63.623047" xlink:href="#DejaVuSans-30"/>
      </g>
     </g>
    </g>
    <g id="xtick_4">
     <g id="line2d_7">
      <path clip-path="url(#p86fb6ea178)" d="M 301.826453 239.758125 
L 301.826453 22.318125 
" style="fill:none;stroke:#b0b0b0;stroke-linecap:square;stroke-width:0.8;"/>
     </g>
     <g id="line2d_8">
      <g>
       <use style="stroke:#000000;stroke-width:0.8;" x="301.826453" xlink:href="#m83cdcf4044" y="239.758125"/>
      </g>
     </g>
     <g id="text_4">
      <!-- 30 -->
      <g transform="translate(295.463953 254.356562)scale(0.1 -0.1)">
       <defs>
        <path d="M 2597 2516 
Q 3050 2419 3304 2112 
Q 3559 1806 3559 1356 
Q 3559 666 3084 287 
Q 2609 -91 1734 -91 
Q 1441 -91 1130 -33 
Q 819 25 488 141 
L 488 750 
Q 750 597 1062 519 
Q 1375 441 1716 441 
Q 2309 441 2620 675 
Q 2931 909 2931 1356 
Q 2931 1769 2642 2001 
Q 2353 2234 1838 2234 
L 1294 2234 
L 1294 2753 
L 1863 2753 
Q 2328 2753 2575 2939 
Q 2822 3125 2822 3475 
Q 2822 3834 2567 4026 
Q 2313 4219 1838 4219 
Q 1578 4219 1281 4162 
Q 984 4106 628 3988 
L 628 4550 
Q 988 4650 1302 4700 
Q 1616 4750 1894 4750 
Q 2613 4750 3031 4423 
Q 3450 4097 3450 3541 
Q 3450 3153 3228 2886 
Q 3006 2619 2597 2516 
z
" id="DejaVuSans-33" transform="scale(0.015625)"/>
       </defs>
       <use xlink:href="#DejaVuSans-33"/>
       <use x="63.623047" xlink:href="#DejaVuSans-30"/>
      </g>
     </g>
    </g>
    <g id="xtick_5">
     <g id="line2d_9">
      <path clip-path="url(#p86fb6ea178)" d="M 380.016426 239.758125 
L 380.016426 22.318125 
" style="fill:none;stroke:#b0b0b0;stroke-linecap:square;stroke-width:0.8;"/>
     </g>
     <g id="line2d_10">
      <g>
       <use style="stroke:#000000;stroke-width:0.8;" x="380.016426" xlink:href="#m83cdcf4044" y="239.758125"/>
      </g>
     </g>
     <g id="text_5">
      <!-- 40 -->
      <g transform="translate(373.653926 254.356562)scale(0.1 -0.1)">
       <defs>
        <path d="M 2419 4116 
L 825 1625 
L 2419 1625 
L 2419 4116 
z
M 2253 4666 
L 3047 4666 
L 3047 1625 
L 3713 1625 
L 3713 1100 
L 3047 1100 
L 3047 0 
L 2419 0 
L 2419 1100 
L 313 1100 
L 313 1709 
L 2253 4666 
z
" id="DejaVuSans-34" transform="scale(0.015625)"/>
       </defs>
       <use xlink:href="#DejaVuSans-34"/>
       <use x="63.623047" xlink:href="#DejaVuSans-30"/>
      </g>
     </g>
    </g>
    <g id="xtick_6">
     <g id="line2d_11">
      <path clip-path="url(#p86fb6ea178)" d="M 458.206399 239.758125 
L 458.206399 22.318125 
" style="fill:none;stroke:#b0b0b0;stroke-linecap:square;stroke-width:0.8;"/>
     </g>
     <g id="line2d_12">
      <g>
       <use style="stroke:#000000;stroke-width:0.8;" x="458.206399" xlink:href="#m83cdcf4044" y="239.758125"/>
      </g>
     </g>
     <g id="text_6">
      <!-- 50 -->
      <g transform="translate(451.843899 254.356562)scale(0.1 -0.1)">
       <defs>
        <path d="M 691 4666 
L 3169 4666 
L 3169 4134 
L 1269 4134 
L 1269 2991 
Q 1406 3038 1543 3061 
Q 1681 3084 1819 3084 
Q 2600 3084 3056 2656 
Q 3513 2228 3513 1497 
Q 3513 744 3044 326 
Q 2575 -91 1722 -91 
Q 1428 -91 1123 -41 
Q 819 9 494 109 
L 494 744 
Q 775 591 1075 516 
Q 1375 441 1709 441 
Q 2250 441 2565 725 
Q 2881 1009 2881 1497 
Q 2881 1984 2565 2268 
Q 2250 2553 1709 2553 
Q 1456 2553 1204 2497 
Q 953 2441 691 2322 
L 691 4666 
z
" id="DejaVuSans-35" transform="scale(0.015625)"/>
       </defs>
       <use xlink:href="#DejaVuSans-35"/>
       <use x="63.623047" xlink:href="#DejaVuSans-30"/>
      </g>
     </g>
    </g>
    <g id="text_7">
     <!-- Zeit (s) -->
     <g transform="translate(252.219531 268.034687)scale(0.1 -0.1)">
      <defs>
       <path d="M 359 4666 
L 4025 4666 
L 4025 4184 
L 1075 531 
L 4097 531 
L 4097 0 
L 288 0 
L 288 481 
L 3238 4134 
L 359 4134 
L 359 4666 
z
" id="DejaVuSans-5a" transform="scale(0.015625)"/>
       <path d="M 3597 1894 
L 3597 1613 
L 953 1613 
Q 991 1019 1311 708 
Q 1631 397 2203 397 
Q 2534 397 2845 478 
Q 3156 559 3463 722 
L 3463 178 
Q 3153 47 2828 -22 
Q 2503 -91 2169 -91 
Q 1331 -91 842 396 
Q 353 884 353 1716 
Q 353 2575 817 3079 
Q 1281 3584 2069 3584 
Q 2775 3584 3186 3129 
Q 3597 2675 3597 1894 
z
M 3022 2063 
Q 3016 2534 2758 2815 
Q 2500 3097 2075 3097 
Q 1594 3097 1305 2825 
Q 1016 2553 972 2059 
L 3022 2063 
z
" id="DejaVuSans-65" transform="scale(0.015625)"/>
       <path d="M 603 3500 
L 1178 3500 
L 1178 0 
L 603 0 
L 603 3500 
z
M 603 4863 
L 1178 4863 
L 1178 4134 
L 603 4134 
L 603 4863 
z
" id="DejaVuSans-69" transform="scale(0.015625)"/>
       <path d="M 1172 4494 
L 1172 3500 
L 2356 3500 
L 2356 3053 
L 1172 3053 
L 1172 1153 
Q 1172 725 1289 603 
Q 1406 481 1766 481 
L 2356 481 
L 2356 0 
L 1766 0 
Q 1100 0 847 248 
Q 594 497 594 1153 
L 594 3053 
L 172 3053 
L 172 3500 
L 594 3500 
L 594 4494 
L 1172 4494 
z
" id="DejaVuSans-74" transform="scale(0.015625)"/>
       <path id="DejaVuSans-20" transform="scale(0.015625)"/>
       <path d="M 1984 4856 
Q 1566 4138 1362 3434 
Q 1159 2731 1159 2009 
Q 1159 1288 1364 580 
Q 1569 -128 1984 -844 
L 1484 -844 
Q 1016 -109 783 600 
Q 550 1309 550 2009 
Q 550 2706 781 3412 
Q 1013 4119 1484 4856 
L 1984 4856 
z
" id="DejaVuSans-28" transform="scale(0.015625)"/>
       <path d="M 2834 3397 
L 2834 2853 
Q 2591 2978 2328 3040 
Q 2066 3103 1784 3103 
Q 1356 3103 1142 2972 
Q 928 2841 928 2578 
Q 928 2378 1081 2264 
Q 1234 2150 1697 2047 
L 1894 2003 
Q 2506 1872 2764 1633 
Q 3022 1394 3022 966 
Q 3022 478 2636 193 
Q 2250 -91 1575 -91 
Q 1294 -91 989 -36 
Q 684 19 347 128 
L 347 722 
Q 666 556 975 473 
Q 1284 391 1588 391 
Q 1994 391 2212 530 
Q 2431 669 2431 922 
Q 2431 1156 2273 1281 
Q 2116 1406 1581 1522 
L 1381 1569 
Q 847 1681 609 1914 
Q 372 2147 372 2553 
Q 372 3047 722 3315 
Q 1072 3584 1716 3584 
Q 2034 3584 2315 3537 
Q 2597 3491 2834 3397 
z
" id="DejaVuSans-73" transform="scale(0.015625)"/>
       <path d="M 513 4856 
L 1013 4856 
Q 1481 4119 1714 3412 
Q 1947 2706 1947 2009 
Q 1947 1309 1714 600 
Q 1481 -109 1013 -844 
L 513 -844 
Q 928 -128 1133 580 
Q 1338 1288 1338 2009 
Q 1338 2731 1133 3434 
Q 928 4138 513 4856 
z
" id="DejaVuSans-29" transform="scale(0.015625)"/>
      </defs>
      <use xlink:href="#DejaVuSans-5a"/>
      <use x="68.505859" xlink:href="#DejaVuSans-65"/>
      <use x="130.029297" xlink:href="#DejaVuSans-69"/>
      <use x="157.8125" xlink:href="#DejaVuSans-74"/>
      <use x="197.021484" xlink:href="#DejaVuSans-20"/>
      <use x="228.808594" xlink:href="#DejaVuSans-28"/>
      <use x="267.822266" xlink:href="#DejaVuSans-73"/>
      <use x="319.921875" xlink:href="#DejaVuSans-29"/>
     </g>
    </g>
   </g>
   <g id="matplotlib.axis_2">
    <g id="ytick_1">
     <g id="line2d_13">
      <path clip-path="url(#p86fb6ea178)" d="M 46.965625 213.48312 
L 493.365625 213.48312 
" style="fill:none;stroke:#b0b0b0;stroke-linecap:square;stroke-width:0.8;"/>
     </g>
     <g id="line2d_14">
      <defs>
       <path d="M 0 0 
L -3.5 0 
" id="mcab3317053" style="stroke:#000000;stroke-width:0.8;"/>
      </defs>
      <g>
       <use style="stroke:#000000;stroke-width:0.8;" x="46.965625" xlink:href="#mcab3317053" y="213.48312"/>
      </g>
     </g>
     <g id="text_8">
      <!-- 260 -->
      <g transform="translate(20.878125 217.282339)scale(0.1 -0.1)">
       <defs>
        <path d="M 2113 2584 
Q 1688 2584 1439 2293 
Q 1191 2003 1191 1497 
Q 1191 994 1439 701 
Q 1688 409 2113 409 
Q 2538 409 2786 701 
Q 3034 994 3034 1497 
Q 3034 2003 2786 2293 
Q 2538 2584 2113 2584 
z
M 3366 4563 
L 3366 3988 
Q 3128 4100 2886 4159 
Q 2644 4219 2406 4219 
Q 1781 4219 1451 3797 
Q 1122 3375 1075 2522 
Q 1259 2794 1537 2939 
Q 1816 3084 2150 3084 
Q 2853 3084 3261 2657 
Q 3669 2231 3669 1497 
Q 3669 778 3244 343 
Q 2819 -91 2113 -91 
Q 1303 -91 875 529 
Q 447 1150 447 2328 
Q 447 3434 972 4092 
Q 1497 4750 2381 4750 
Q 2619 4750 2861 4703 
Q 3103 4656 3366 4563 
z
" id="DejaVuSans-36" transform="scale(0.015625)"/>
       </defs>
       <use xlink:href="#DejaVuSans-32"/>
       <use x="63.623047" xlink:href="#DejaVuSans-36"/>
       <use x="127.246094" xlink:href="#DejaVuSans-30"/>
      </g>
     </g>
    </g>
    <g id="ytick_2">
     <g id="line2d_15">
      <path clip-path="url(#p86fb6ea178)" d="M 46.965625 175.088147 
L 493.365625 175.088147 
" style="fill:none;stroke:#b0b0b0;stroke-linecap:square;stroke-width:0.8;"/>
     </g>
     <g id="line2d_16">
      <g>
       <use style="stroke:#000000;stroke-width:0.8;" x="46.965625" xlink:href="#mcab3317053" y="175.088147"/>
      </g>
     </g>
     <g id="text_9">
      <!-- 280 -->
      <g transform="translate(20.878125 178.887366)scale(0.1 -0.1)">
       <defs>
        <path d="M 2034 2216 
Q 1584 2216 1326 1975 
Q 1069 1734 1069 1313 
Q 1069 891 1326 650 
Q 1584 409 2034 409 
Q 2484 409 2743 651 
Q 3003 894 3003 1313 
Q 3003 1734 2745 1975 
Q 2488 2216 2034 2216 
z
M 1403 2484 
Q 997 2584 770 2862 
Q 544 3141 544 3541 
Q 544 4100 942 4425 
Q 1341 4750 2034 4750 
Q 2731 4750 3128 4425 
Q 3525 4100 3525 3541 
Q 3525 3141 3298 2862 
Q 3072 2584 2669 2484 
Q 3125 2378 3379 2068 
Q 3634 1759 3634 1313 
Q 3634 634 3220 271 
Q 2806 -91 2034 -91 
Q 1263 -91 848 271 
Q 434 634 434 1313 
Q 434 1759 690 2068 
Q 947 2378 1403 2484 
z
M 1172 3481 
Q 1172 3119 1398 2916 
Q 1625 2713 2034 2713 
Q 2441 2713 2670 2916 
Q 2900 3119 2900 3481 
Q 2900 3844 2670 4047 
Q 2441 4250 2034 4250 
Q 1625 4250 1398 4047 
Q 1172 3844 1172 3481 
z
" id="DejaVuSans-38" transform="scale(0.015625)"/>
       </defs>
       <use xlink:href="#DejaVuSans-32"/>
       <use x="63.623047" xlink:href="#DejaVuSans-38"/>
       <use x="127.246094" xlink:href="#DejaVuSans-30"/>
      </g>
     </g>
    </g>
    <g id="ytick_3">
     <g id="line2d_17">
      <path clip-path="url(#p86fb6ea178)" d="M 46.965625 136.693174 
L 493.365625 136.693174 
" style="fill:none;stroke:#b0b0b0;stroke-linecap:square;stroke-width:0.8;"/>
     </g>
     <g id="line2d_18">
      <g>
       <use style="stroke:#000000;stroke-width:0.8;" x="46.965625" xlink:href="#mcab3317053" y="136.693174"/>
      </g>
     </g>
     <g id="text_10">
      <!-- 300 -->
      <g transform="translate(20.878125 140.492393)scale(0.1 -0.1)">
       <use xlink:href="#DejaVuSans-33"/>
       <use x="63.623047" xlink:href="#DejaVuSans-30"/>
       <use x="127.246094" xlink:href="#DejaVuSans-30"/>
      </g>
     </g>
    </g>
    <g id="ytick_4">
     <g id="line2d_19">
      <path clip-path="url(#p86fb6ea178)" d="M 46.965625 98.298202 
L 493.365625 98.298202 
" style="fill:none;stroke:#b0b0b0;stroke-linecap:square;stroke-width:0.8;"/>
     </g>
     <g id="line2d_20">
      <g>
       <use style="stroke:#000000;stroke-width:0.8;" x="46.965625" xlink:href="#mcab3317053" y="98.298202"/>
      </g>
     </g>
     <g id="text_11">
      <!-- 320 -->
      <g transform="translate(20.878125 102.09742)scale(0.1 -0.1)">
       <use xlink:href="#DejaVuSans-33"/>
       <use x="63.623047" xlink:href="#DejaVuSans-32"/>
       <use x="127.246094" xlink:href="#DejaVuSans-30"/>
      </g>
     </g>
    </g>
    <g id="ytick_5">
     <g id="line2d_21">
      <path clip-path="url(#p86fb6ea178)" d="M 46.965625 59.903229 
L 493.365625 59.903229 
" style="fill:none;stroke:#b0b0b0;stroke-linecap:square;stroke-width:0.8;"/>
     </g>
     <g id="line2d_22">
      <g>
       <use style="stroke:#000000;stroke-width:0.8;" x="46.965625" xlink:href="#mcab3317053" y="59.903229"/>
      </g>
     </g>
     <g id="text_12">
      <!-- 340 -->
      <g transform="translate(20.878125 63.702448)scale(0.1 -0.1)">
       <use xlink:href="#DejaVuSans-33"/>
       <use x="63.623047" xlink:href="#DejaVuSans-34"/>
       <use x="127.246094" xlink:href="#DejaVuSans-30"/>
      </g>
     </g>
    </g>
    <g id="text_13">
     <!-- Höhe (m) -->
     <g transform="translate(14.798437 154.463906)rotate(-90)scale(0.1 -0.1)">
      <defs>
       <path d="M 628 4666 
L 1259 4666 
L 1259 2753 
L 3553 2753 
L 3553 4666 
L 4184 4666 
L 4184 0 
L 3553 0 
L 3553 2222 
L 1259 2222 
L 1259 0 
L 628 0 
L 628 4666 
z
" id="DejaVuSans-48" transform="scale(0.015625)"/>
       <path d="M 1959 3097 
Q 1497 3097 1228 2736 
Q 959 2375 959 1747 
Q 959 1119 1226 758 
Q 1494 397 1959 397 
Q 2419 397 2687 759 
Q 2956 1122 2956 1747 
Q 2956 2369 2687 2733 
Q 2419 3097 1959 3097 
z
M 1959 3584 
Q 2709 3584 3137 3096 
Q 3566 2609 3566 1747 
Q 3566 888 3137 398 
Q 2709 -91 1959 -91 
Q 1206 -91 779 398 
Q 353 888 353 1747 
Q 353 2609 779 3096 
Q 1206 3584 1959 3584 
z
M 2254 4850 
L 2888 4850 
L 2888 4219 
L 2254 4219 
L 2254 4850 
z
M 1032 4850 
L 1666 4850 
L 1666 4219 
L 1032 4219 
L 1032 4850 
z
" id="DejaVuSans-f6" transform="scale(0.015625)"/>
       <path d="M 3513 2113 
L 3513 0 
L 2938 0 
L 2938 2094 
Q 2938 2591 2744 2837 
Q 2550 3084 2163 3084 
Q 1697 3084 1428 2787 
Q 1159 2491 1159 1978 
L 1159 0 
L 581 0 
L 581 4863 
L 1159 4863 
L 1159 2956 
Q 1366 3272 1645 3428 
Q 1925 3584 2291 3584 
Q 2894 3584 3203 3211 
Q 3513 2838 3513 2113 
z
" id="DejaVuSans-68" transform="scale(0.015625)"/>
       <path d="M 3328 2828 
Q 3544 3216 3844 3400 
Q 4144 3584 4550 3584 
Q 5097 3584 5394 3201 
Q 5691 2819 5691 2113 
L 5691 0 
L 5113 0 
L 5113 2094 
Q 5113 2597 4934 2840 
Q 4756 3084 4391 3084 
Q 3944 3084 3684 2787 
Q 3425 2491 3425 1978 
L 3425 0 
L 2847 0 
L 2847 2094 
Q 2847 2600 2669 2842 
Q 2491 3084 2119 3084 
Q 1678 3084 1418 2786 
Q 1159 2488 1159 1978 
L 1159 0 
L 581 0 
L 581 3500 
L 1159 3500 
L 1159 2956 
Q 1356 3278 1631 3431 
Q 1906 3584 2284 3584 
Q 2666 3584 2933 3390 
Q 3200 3197 3328 2828 
z
" id="DejaVuSans-6d" transform="scale(0.015625)"/>
      </defs>
      <use xlink:href="#DejaVuSans-48"/>
      <use x="75.195312" xlink:href="#DejaVuSans-f6"/>
      <use x="136.376953" xlink:href="#DejaVuSans-68"/>
      <use x="199.755859" xlink:href="#DejaVuSans-65"/>
      <use x="261.279297" xlink:href="#DejaVuSans-20"/>
      <use x="293.066406" xlink:href="#DejaVuSans-28"/>
      <use x="332.080078" xlink:href="#DejaVuSans-6d"/>
      <use x="429.492188" xlink:href="#DejaVuSans-29"/>
     </g>
    </g>
   </g>
   <g id="line2d_23">
    <path clip-path="url(#p86fb6ea178)" d="M 67.256534 114.848571 
L 75.391154 119.190922 
L 81.193177 121.840307 
L 86.999596 124.416246 
L 89.320893 125.182798 
L 91.640711 125.64798 
L 93.962257 125.853053 
L 96.284751 125.884538 
L 98.607712 125.757959 
L 100.933481 125.456626 
L 109.060655 124.098901 
L 112.544847 123.806061 
L 117.195305 123.652918 
L 121.838899 123.681283 
L 124.160524 123.888261 
L 126.482734 124.40671 
L 127.644371 124.827721 
L 129.967043 126.029676 
L 132.290935 127.654122 
L 135.775964 130.539589 
L 139.259992 133.771772 
L 141.583759 136.210111 
L 143.908448 138.909268 
L 147.376017 143.392309 
L 150.857183 148.363336 
L 154.344332 153.862674 
L 158.988676 161.816573 
L 164.798987 171.729463 
L 174.088496 186.809139 
L 179.89701 196.360935 
L 184.56693 204.10283 
L 188.073836 209.408377 
L 190.41858 212.592961 
L 192.750424 215.41575 
L 195.083027 217.746226 
L 197.410179 219.531831 
L 199.737989 220.830971 
L 202.069716 221.786469 
L 210.213883 224.675754 
L 213.707332 226.308452 
L 219.53315 229.28698 
L 220.698312 229.668809 
L 221.859332 229.874489 
L 223.024793 229.870942 
L 224.192506 229.632129 
L 225.354424 229.145628 
L 226.51872 228.414735 
L 227.683258 227.453481 
L 228.847928 226.261758 
L 230.004491 224.85955 
L 231.159428 223.249999 
L 233.47769 219.439864 
L 235.803363 214.937663 
L 239.286532 207.316807 
L 243.938219 196.534158 
L 254.390567 171.863349 
L 256.714263 166.932955 
L 259.038766 162.433176 
L 261.363612 158.397673 
L 263.687278 154.873045 
L 266.013992 151.900656 
L 268.338541 149.467822 
L 270.66341 147.439604 
L 275.312242 143.900033 
L 278.811665 141.42932 
L 281.138865 139.937042 
L 284.655405 138.040623 
L 286.990696 137.025824 
L 289.33064 136.253065 
L 291.655862 135.767902 
L 293.988003 135.595085 
L 296.316821 135.722815 
L 298.641002 136.09698 
L 300.965231 136.667668 
L 303.290302 137.408715 
L 305.614984 138.329676 
L 307.939643 139.455176 
L 311.43063 141.50812 
L 316.100103 144.674425 
L 319.590911 147.304431 
L 323.078778 150.2983 
L 330.050689 156.503337 
L 333.542161 159.179863 
L 337.032795 161.535807 
L 340.518628 163.614446 
L 344.00548 165.350372 
L 347.494776 166.734563 
L 349.822204 167.456431 
L 352.150803 168.005974 
L 355.635416 168.599813 
L 359.122839 169.049846 
L 361.451898 169.200289 
L 363.774298 169.132594 
L 366.098917 168.787111 
L 368.422245 168.169879 
L 370.746709 167.305677 
L 373.072086 166.200652 
L 375.397652 164.872869 
L 378.884127 162.552423 
L 383.537516 159.342586 
L 385.861385 157.941864 
L 388.183056 156.782484 
L 390.508692 155.89662 
L 392.831154 155.298201 
L 395.152121 154.98832 
L 397.476756 154.985665 
L 399.793916 155.346977 
L 400.949032 155.694531 
L 403.279006 156.749866 
L 405.601546 158.236011 
L 407.92651 160.020322 
L 412.592614 164.026468 
L 417.243422 167.962618 
L 420.730368 170.543903 
L 431.200529 177.73907 
L 435.852003 180.775811 
L 439.343874 182.749692 
L 443.999578 185.007901 
L 452.168617 188.973711 
L 469.591055 197.516598 
L 473.074716 199.019818 
L 473.074716 199.019818 
" style="fill:none;stroke:#1f77b4;stroke-linecap:square;stroke-width:1.5;"/>
   </g>
   <g id="line2d_24">
    <path clip-path="url(#p86fb6ea178)" d="M 67.256534 32.201761 
L 69.579801 33.413701 
L 71.903107 35.026122 
L 74.228156 37.006279 
L 78.873572 41.182404 
L 80.033746 42.039991 
L 81.193177 42.753045 
L 82.354572 43.302818 
L 83.515132 43.676035 
L 84.677369 43.871158 
L 85.838749 43.885926 
L 86.999596 43.726847 
L 88.159835 43.415441 
L 90.480334 42.454051 
L 93.962257 40.834391 
L 96.284751 40.113289 
L 98.607712 39.723334 
L 104.416375 39.100304 
L 105.578355 39.100847 
L 106.738414 39.217574 
L 107.899862 39.475337 
L 109.060655 39.880387 
L 111.38296 41.041479 
L 114.867301 43.042724 
L 116.034645 43.580519 
L 117.195305 43.98634 
L 118.3566 44.230182 
L 119.518518 44.298368 
L 120.678371 44.186782 
L 121.838899 43.903269 
L 124.160524 42.924001 
L 129.967043 39.900278 
L 132.290935 39.002093 
L 134.613585 38.281809 
L 136.937117 37.763265 
L 139.259992 37.573025 
L 141.583759 37.774075 
L 143.908448 38.285185 
L 147.376017 39.368351 
L 150.857183 40.676645 
L 154.344332 42.28678 
L 157.827491 44.272204 
L 169.442956 51.485279 
L 176.411239 55.537419 
L 178.736154 56.554619 
L 182.232974 57.716185 
L 186.902402 59.248955 
L 189.235145 60.213563 
L 191.588491 61.375781 
L 195.083027 63.469794 
L 198.571691 65.867395 
L 204.398603 70.043364 
L 205.561258 70.678234 
L 206.725733 71.16387 
L 207.888364 71.470296 
L 209.050547 71.581265 
L 210.213883 71.491883 
L 211.377246 71.208573 
L 212.543732 70.75488 
L 214.871111 69.520398 
L 217.202791 68.305323 
L 218.367643 67.875302 
L 219.53315 67.611304 
L 220.698312 67.510198 
L 223.024793 67.650084 
L 226.51872 68.019282 
L 230.004491 68.120899 
L 234.638779 68.034016 
L 242.777284 67.656607 
L 248.582773 67.188095 
L 250.906867 67.300691 
L 254.390567 67.802244 
L 260.202256 68.631077 
L 262.525203 68.842105 
L 263.687278 68.831428 
L 264.851603 68.677631 
L 266.013992 68.34235 
L 267.175566 67.803364 
L 268.338541 67.064176 
L 270.66341 65.131179 
L 274.14987 62.047473 
L 275.312242 61.204397 
L 276.477507 60.504919 
L 277.641318 59.955128 
L 279.974804 59.240741 
L 282.317852 58.852116 
L 285.817612 58.353452 
L 289.33064 57.568171 
L 292.825991 56.501095 
L 298.641002 54.493065 
L 299.804093 54.242295 
L 300.965231 54.11226 
L 302.128353 54.117329 
L 303.290302 54.260144 
L 304.452737 54.5348 
L 306.77796 55.428638 
L 309.100498 56.701583 
L 311.43063 58.236572 
L 320.757114 64.967199 
L 331.212013 72.896879 
L 337.032795 76.573884 
L 341.682025 79.65866 
L 344.00548 81.162899 
L 346.332297 82.374057 
L 348.656805 83.145784 
L 350.988101 83.546201 
L 355.635416 83.955679 
L 359.122839 84.081171 
L 369.584414 83.924253 
L 371.909284 83.673696 
L 374.235983 83.131049 
L 376.559742 82.264421 
L 380.046022 80.550712 
L 382.376052 79.480174 
L 383.537516 79.075452 
L 384.699943 78.793464 
L 385.861385 78.649869 
L 387.022319 78.649298 
L 388.183056 78.786794 
L 390.508692 79.41459 
L 397.476756 82.049956 
L 399.793916 82.571338 
L 403.279006 83.040417 
L 406.765678 83.493189 
L 409.087809 84.026824 
L 411.423024 84.814018 
L 414.920799 86.049138 
L 417.243422 86.572684 
L 421.892825 87.321047 
L 424.216765 87.971144 
L 426.5433 88.834267 
L 430.036366 90.395374 
L 432.362487 91.651952 
L 434.688341 93.128246 
L 439.343874 96.465415 
L 442.837487 99.151683 
L 445.160786 101.155636 
L 448.668333 104.501177 
L 451.000388 106.715464 
L 453.332467 108.673885 
L 455.655687 110.285392 
L 457.977843 111.567665 
L 460.300593 112.554627 
L 462.624556 113.284237 
L 466.107793 114.070728 
L 473.074716 115.49186 
L 473.074716 115.49186 
" style="fill:none;stroke:#ff7f0e;stroke-linecap:square;stroke-width:1.5;"/>
   </g>
   <g id="patch_3">
    <path d="M 46.965625 239.758125 
L 46.965625 22.318125 
" style="fill:none;stroke:#000000;stroke-linecap:square;stroke-linejoin:miter;stroke-width:0.8;"/>
   </g>
   <g id="patch_4">
    <path d="M 493.365625 239.758125 
L 493.365625 22.318125 
" style="fill:none;stroke:#000000;stroke-linecap:square;stroke-linejoin:miter;stroke-width:0.8;"/>
   </g>
   <g id="patch_5">
    <path d="M 46.965625 239.758125 
L 493.365625 239.758125 
" style="fill:none;stroke:#000000;stroke-linecap:square;stroke-linejoin:miter;stroke-width:0.8;"/>
   </g>
   <g id="patch_6">
    <path d="M 46.965625 22.318125 
L 493.365625 22.318125 
" style="fill:none;stroke:#000000;stroke-linecap:square;stroke-linejoin:miter;stroke-width:0.8;"/>
   </g>
   <g id="text_14">
    <!-- Höhe -->
    <g transform="translate(254.487812 16.318125)scale(0.12 -0.12)">
     <use xlink:href="#DejaVuSans-48"/>
     <use x="75.195312" xlink:href="#DejaVuSans-f6"/>
     <use x="136.376953" xlink:href="#DejaVuSans-68"/>
     <use x="199.755859" xlink:href="#DejaVuSans-65"/>
    </g>
   </g>
  </g>
 </g>
 <defs>
  <clipPath id="p86fb6ea178">
   <rect height="217.44" width="446.4" x="46.965625" y="22.318125"/>
  </clipPath>
 </defs>
</svg>
