<?xml version="1.0" encoding="utf-8" standalone="no"?>
<!DOCTYPE svg PUBLIC "-//W3C//DTD SVG 1.1//EN"
  "http://www.w3.org/Graphics/SVG/1.1/DTD/svg11.dtd">
<svg height="277.314375pt" version="1.1" viewBox="0 0 494.203125 277.314375" width="494.203125pt" xmlns="http://www.w3.org/2000/svg" xmlns:xlink="http://www.w3.org/1999/xlink">
 <metadata>
  <rdf:RDF xmlns:cc="http://creativecommons.org/ns#" xmlns:dc="http://purl.org/dc/elements/1.1/" xmlns:rdf="http://www.w3.org/1999/02/22-rdf-syntax-ns#">
   <cc:Work>
    <dc:type rdf:resource="http://purl.org/dc/dcmitype/StillImage"/>
    <dc:date>2023-05-19T15:58:05.028879</dc:date>
    <dc:format>image/svg+xml</dc:format>
    <dc:creator>
     <cc:Agent>
      <dc:title>Matplotlib v3.4.3, https://matplotlib.org/</dc:title>
     </cc:Agent>
    </dc:creator>
   </cc:Work>
  </rdf:RDF>
 </metadata>
 <defs>
  <style type="text/css">*{stroke-linecap:butt;stroke-linejoin:round;}</style>
 </defs>
 <g id="figure_1">
  <g id="patch_1">
   <path d="M 0 277.314375 
L 494.203125 277.314375 
L 494.203125 0 
L 0 0 
z
" style="fill:none;"/>
  </g>
  <g id="axes_1">
   <g id="patch_2">
    <path d="M 40.603125 239.758125 
L 487.003125 239.758125 
L 487.003125 22.318125 
L 40.603125 22.318125 
z
" style="fill:#ffffff;"/>
   </g>
   <g id="matplotlib.axis_1">
    <g id="xtick_1">
     <g id="line2d_1">
      <path clip-path="url(#p0788690226)" d="M 60.894034 239.758125 
L 60.894034 22.318125 
" style="fill:none;stroke:#b0b0b0;stroke-linecap:square;stroke-width:0.8;"/>
     </g>
     <g id="line2d_2">
      <defs>
       <path d="M 0 0 
L 0 3.5 
" id="m8f16dc6260" style="stroke:#000000;stroke-width:0.8;"/>
      </defs>
      <g>
       <use style="stroke:#000000;stroke-width:0.8;" x="60.894034" xlink:href="#m8f16dc6260" y="239.758125"/>
      </g>
     </g>
     <g id="text_1">
      <!-- 0 -->
      <g transform="translate(57.712784 254.356562)scale(0.1 -0.1)">
       <defs>
        <path d="M 2034 4250 
Q 1547 4250 1301 3770 
Q 1056 3291 1056 2328 
Q 1056 1369 1301 889 
Q 1547 409 2034 409 
Q 2525 409 2770 889 
Q 3016 1369 3016 2328 
Q 3016 3291 2770 3770 
Q 2525 4250 2034 4250 
z
M 2034 4750 
Q 2819 4750 3233 4129 
Q 3647 3509 3647 2328 
Q 3647 1150 3233 529 
Q 2819 -91 2034 -91 
Q 1250 -91 836 529 
Q 422 1150 422 2328 
Q 422 3509 836 4129 
Q 1250 4750 2034 4750 
z
" id="DejaVuSans-30" transform="scale(0.015625)"/>
       </defs>
       <use xlink:href="#DejaVuSans-30"/>
      </g>
     </g>
    </g>
    <g id="xtick_2">
     <g id="line2d_3">
      <path clip-path="url(#p0788690226)" d="M 139.084007 239.758125 
L 139.084007 22.318125 
" style="fill:none;stroke:#b0b0b0;stroke-linecap:square;stroke-width:0.8;"/>
     </g>
     <g id="line2d_4">
      <g>
       <use style="stroke:#000000;stroke-width:0.8;" x="139.084007" xlink:href="#m8f16dc6260" y="239.758125"/>
      </g>
     </g>
     <g id="text_2">
      <!-- 10 -->
      <g transform="translate(132.721507 254.356562)scale(0.1 -0.1)">
       <defs>
        <path d="M 794 531 
L 1825 531 
L 1825 4091 
L 703 3866 
L 703 4441 
L 1819 4666 
L 2450 4666 
L 2450 531 
L 3481 531 
L 3481 0 
L 794 0 
L 794 531 
z
" id="DejaVuSans-31" transform="scale(0.015625)"/>
       </defs>
       <use xlink:href="#DejaVuSans-31"/>
       <use x="63.623047" xlink:href="#DejaVuSans-30"/>
      </g>
     </g>
    </g>
    <g id="xtick_3">
     <g id="line2d_5">
      <path clip-path="url(#p0788690226)" d="M 217.27398 239.758125 
L 217.27398 22.318125 
" style="fill:none;stroke:#b0b0b0;stroke-linecap:square;stroke-width:0.8;"/>
     </g>
     <g id="line2d_6">
      <g>
       <use style="stroke:#000000;stroke-width:0.8;" x="217.27398" xlink:href="#m8f16dc6260" y="239.758125"/>
      </g>
     </g>
     <g id="text_3">
      <!-- 20 -->
      <g transform="translate(210.91148 254.356562)scale(0.1 -0.1)">
       <defs>
        <path d="M 1228 531 
L 3431 531 
L 3431 0 
L 469 0 
L 469 531 
Q 828 903 1448 1529 
Q 2069 2156 2228 2338 
Q 2531 2678 2651 2914 
Q 2772 3150 2772 3378 
Q 2772 3750 2511 3984 
Q 2250 4219 1831 4219 
Q 1534 4219 1204 4116 
Q 875 4013 500 3803 
L 500 4441 
Q 881 4594 1212 4672 
Q 1544 4750 1819 4750 
Q 2544 4750 2975 4387 
Q 3406 4025 3406 3419 
Q 3406 3131 3298 2873 
Q 3191 2616 2906 2266 
Q 2828 2175 2409 1742 
Q 1991 1309 1228 531 
z
" id="DejaVuSans-32" transform="scale(0.015625)"/>
       </defs>
       <use xlink:href="#DejaVuSans-32"/>
       <use x="63.623047" xlink:href="#DejaVuSans-30"/>
      </g>
     </g>
    </g>
    <g id="xtick_4">
     <g id="line2d_7">
      <path clip-path="url(#p0788690226)" d="M 295.463953 239.758125 
L 295.463953 22.318125 
" style="fill:none;stroke:#b0b0b0;stroke-linecap:square;stroke-width:0.8;"/>
     </g>
     <g id="line2d_8">
      <g>
       <use style="stroke:#000000;stroke-width:0.8;" x="295.463953" xlink:href="#m8f16dc6260" y="239.758125"/>
      </g>
     </g>
     <g id="text_4">
      <!-- 30 -->
      <g transform="translate(289.101453 254.356562)scale(0.1 -0.1)">
       <defs>
        <path d="M 2597 2516 
Q 3050 2419 3304 2112 
Q 3559 1806 3559 1356 
Q 3559 666 3084 287 
Q 2609 -91 1734 -91 
Q 1441 -91 1130 -33 
Q 819 25 488 141 
L 488 750 
Q 750 597 1062 519 
Q 1375 441 1716 441 
Q 2309 441 2620 675 
Q 2931 909 2931 1356 
Q 2931 1769 2642 2001 
Q 2353 2234 1838 2234 
L 1294 2234 
L 1294 2753 
L 1863 2753 
Q 2328 2753 2575 2939 
Q 2822 3125 2822 3475 
Q 2822 3834 2567 4026 
Q 2313 4219 1838 4219 
Q 1578 4219 1281 4162 
Q 984 4106 628 3988 
L 628 4550 
Q 988 4650 1302 4700 
Q 1616 4750 1894 4750 
Q 2613 4750 3031 4423 
Q 3450 4097 3450 3541 
Q 3450 3153 3228 2886 
Q 3006 2619 2597 2516 
z
" id="DejaVuSans-33" transform="scale(0.015625)"/>
       </defs>
       <use xlink:href="#DejaVuSans-33"/>
       <use x="63.623047" xlink:href="#DejaVuSans-30"/>
      </g>
     </g>
    </g>
    <g id="xtick_5">
     <g id="line2d_9">
      <path clip-path="url(#p0788690226)" d="M 373.653926 239.758125 
L 373.653926 22.318125 
" style="fill:none;stroke:#b0b0b0;stroke-linecap:square;stroke-width:0.8;"/>
     </g>
     <g id="line2d_10">
      <g>
       <use style="stroke:#000000;stroke-width:0.8;" x="373.653926" xlink:href="#m8f16dc6260" y="239.758125"/>
      </g>
     </g>
     <g id="text_5">
      <!-- 40 -->
      <g transform="translate(367.291426 254.356562)scale(0.1 -0.1)">
       <defs>
        <path d="M 2419 4116 
L 825 1625 
L 2419 1625 
L 2419 4116 
z
M 2253 4666 
L 3047 4666 
L 3047 1625 
L 3713 1625 
L 3713 1100 
L 3047 1100 
L 3047 0 
L 2419 0 
L 2419 1100 
L 313 1100 
L 313 1709 
L 2253 4666 
z
" id="DejaVuSans-34" transform="scale(0.015625)"/>
       </defs>
       <use xlink:href="#DejaVuSans-34"/>
       <use x="63.623047" xlink:href="#DejaVuSans-30"/>
      </g>
     </g>
    </g>
    <g id="xtick_6">
     <g id="line2d_11">
      <path clip-path="url(#p0788690226)" d="M 451.843899 239.758125 
L 451.843899 22.318125 
" style="fill:none;stroke:#b0b0b0;stroke-linecap:square;stroke-width:0.8;"/>
     </g>
     <g id="line2d_12">
      <g>
       <use style="stroke:#000000;stroke-width:0.8;" x="451.843899" xlink:href="#m8f16dc6260" y="239.758125"/>
      </g>
     </g>
     <g id="text_6">
      <!-- 50 -->
      <g transform="translate(445.481399 254.356562)scale(0.1 -0.1)">
       <defs>
        <path d="M 691 4666 
L 3169 4666 
L 3169 4134 
L 1269 4134 
L 1269 2991 
Q 1406 3038 1543 3061 
Q 1681 3084 1819 3084 
Q 2600 3084 3056 2656 
Q 3513 2228 3513 1497 
Q 3513 744 3044 326 
Q 2575 -91 1722 -91 
Q 1428 -91 1123 -41 
Q 819 9 494 109 
L 494 744 
Q 775 591 1075 516 
Q 1375 441 1709 441 
Q 2250 441 2565 725 
Q 2881 1009 2881 1497 
Q 2881 1984 2565 2268 
Q 2250 2553 1709 2553 
Q 1456 2553 1204 2497 
Q 953 2441 691 2322 
L 691 4666 
z
" id="DejaVuSans-35" transform="scale(0.015625)"/>
       </defs>
       <use xlink:href="#DejaVuSans-35"/>
       <use x="63.623047" xlink:href="#DejaVuSans-30"/>
      </g>
     </g>
    </g>
    <g id="text_7">
     <!-- Zeit (s) -->
     <g transform="translate(245.857031 268.034687)scale(0.1 -0.1)">
      <defs>
       <path d="M 359 4666 
L 4025 4666 
L 4025 4184 
L 1075 531 
L 4097 531 
L 4097 0 
L 288 0 
L 288 481 
L 3238 4134 
L 359 4134 
L 359 4666 
z
" id="DejaVuSans-5a" transform="scale(0.015625)"/>
       <path d="M 3597 1894 
L 3597 1613 
L 953 1613 
Q 991 1019 1311 708 
Q 1631 397 2203 397 
Q 2534 397 2845 478 
Q 3156 559 3463 722 
L 3463 178 
Q 3153 47 2828 -22 
Q 2503 -91 2169 -91 
Q 1331 -91 842 396 
Q 353 884 353 1716 
Q 353 2575 817 3079 
Q 1281 3584 2069 3584 
Q 2775 3584 3186 3129 
Q 3597 2675 3597 1894 
z
M 3022 2063 
Q 3016 2534 2758 2815 
Q 2500 3097 2075 3097 
Q 1594 3097 1305 2825 
Q 1016 2553 972 2059 
L 3022 2063 
z
" id="DejaVuSans-65" transform="scale(0.015625)"/>
       <path d="M 603 3500 
L 1178 3500 
L 1178 0 
L 603 0 
L 603 3500 
z
M 603 4863 
L 1178 4863 
L 1178 4134 
L 603 4134 
L 603 4863 
z
" id="DejaVuSans-69" transform="scale(0.015625)"/>
       <path d="M 1172 4494 
L 1172 3500 
L 2356 3500 
L 2356 3053 
L 1172 3053 
L 1172 1153 
Q 1172 725 1289 603 
Q 1406 481 1766 481 
L 2356 481 
L 2356 0 
L 1766 0 
Q 1100 0 847 248 
Q 594 497 594 1153 
L 594 3053 
L 172 3053 
L 172 3500 
L 594 3500 
L 594 4494 
L 1172 4494 
z
" id="DejaVuSans-74" transform="scale(0.015625)"/>
       <path id="DejaVuSans-20" transform="scale(0.015625)"/>
       <path d="M 1984 4856 
Q 1566 4138 1362 3434 
Q 1159 2731 1159 2009 
Q 1159 1288 1364 580 
Q 1569 -128 1984 -844 
L 1484 -844 
Q 1016 -109 783 600 
Q 550 1309 550 2009 
Q 550 2706 781 3412 
Q 1013 4119 1484 4856 
L 1984 4856 
z
" id="DejaVuSans-28" transform="scale(0.015625)"/>
       <path d="M 2834 3397 
L 2834 2853 
Q 2591 2978 2328 3040 
Q 2066 3103 1784 3103 
Q 1356 3103 1142 2972 
Q 928 2841 928 2578 
Q 928 2378 1081 2264 
Q 1234 2150 1697 2047 
L 1894 2003 
Q 2506 1872 2764 1633 
Q 3022 1394 3022 966 
Q 3022 478 2636 193 
Q 2250 -91 1575 -91 
Q 1294 -91 989 -36 
Q 684 19 347 128 
L 347 722 
Q 666 556 975 473 
Q 1284 391 1588 391 
Q 1994 391 2212 530 
Q 2431 669 2431 922 
Q 2431 1156 2273 1281 
Q 2116 1406 1581 1522 
L 1381 1569 
Q 847 1681 609 1914 
Q 372 2147 372 2553 
Q 372 3047 722 3315 
Q 1072 3584 1716 3584 
Q 2034 3584 2315 3537 
Q 2597 3491 2834 3397 
z
" id="DejaVuSans-73" transform="scale(0.015625)"/>
       <path d="M 513 4856 
L 1013 4856 
Q 1481 4119 1714 3412 
Q 1947 2706 1947 2009 
Q 1947 1309 1714 600 
Q 1481 -109 1013 -844 
L 513 -844 
Q 928 -128 1133 580 
Q 1338 1288 1338 2009 
Q 1338 2731 1133 3434 
Q 928 4138 513 4856 
z
" id="DejaVuSans-29" transform="scale(0.015625)"/>
      </defs>
      <use xlink:href="#DejaVuSans-5a"/>
      <use x="68.505859" xlink:href="#DejaVuSans-65"/>
      <use x="130.029297" xlink:href="#DejaVuSans-69"/>
      <use x="157.8125" xlink:href="#DejaVuSans-74"/>
      <use x="197.021484" xlink:href="#DejaVuSans-20"/>
      <use x="228.808594" xlink:href="#DejaVuSans-28"/>
      <use x="267.822266" xlink:href="#DejaVuSans-73"/>
      <use x="319.921875" xlink:href="#DejaVuSans-29"/>
     </g>
    </g>
   </g>
   <g id="matplotlib.axis_2">
    <g id="ytick_1">
     <g id="line2d_13">
      <path clip-path="url(#p0788690226)" d="M 40.603125 236.05338 
L 487.003125 236.05338 
" style="fill:none;stroke:#b0b0b0;stroke-linecap:square;stroke-width:0.8;"/>
     </g>
     <g id="line2d_14">
      <defs>
       <path d="M 0 0 
L -3.5 0 
" id="mb7cc13e81f" style="stroke:#000000;stroke-width:0.8;"/>
      </defs>
      <g>
       <use style="stroke:#000000;stroke-width:0.8;" x="40.603125" xlink:href="#mb7cc13e81f" y="236.05338"/>
      </g>
     </g>
     <g id="text_8">
      <!-- 4 -->
      <g transform="translate(27.240625 239.852599)scale(0.1 -0.1)">
       <use xlink:href="#DejaVuSans-34"/>
      </g>
     </g>
    </g>
    <g id="ytick_2">
     <g id="line2d_15">
      <path clip-path="url(#p0788690226)" d="M 40.603125 201.21054 
L 487.003125 201.21054 
" style="fill:none;stroke:#b0b0b0;stroke-linecap:square;stroke-width:0.8;"/>
     </g>
     <g id="line2d_16">
      <g>
       <use style="stroke:#000000;stroke-width:0.8;" x="40.603125" xlink:href="#mb7cc13e81f" y="201.21054"/>
      </g>
     </g>
     <g id="text_9">
      <!-- 5 -->
      <g transform="translate(27.240625 205.009759)scale(0.1 -0.1)">
       <use xlink:href="#DejaVuSans-35"/>
      </g>
     </g>
    </g>
    <g id="ytick_3">
     <g id="line2d_17">
      <path clip-path="url(#p0788690226)" d="M 40.603125 166.367701 
L 487.003125 166.367701 
" style="fill:none;stroke:#b0b0b0;stroke-linecap:square;stroke-width:0.8;"/>
     </g>
     <g id="line2d_18">
      <g>
       <use style="stroke:#000000;stroke-width:0.8;" x="40.603125" xlink:href="#mb7cc13e81f" y="166.367701"/>
      </g>
     </g>
     <g id="text_10">
      <!-- 6 -->
      <g transform="translate(27.240625 170.166919)scale(0.1 -0.1)">
       <defs>
        <path d="M 2113 2584 
Q 1688 2584 1439 2293 
Q 1191 2003 1191 1497 
Q 1191 994 1439 701 
Q 1688 409 2113 409 
Q 2538 409 2786 701 
Q 3034 994 3034 1497 
Q 3034 2003 2786 2293 
Q 2538 2584 2113 2584 
z
M 3366 4563 
L 3366 3988 
Q 3128 4100 2886 4159 
Q 2644 4219 2406 4219 
Q 1781 4219 1451 3797 
Q 1122 3375 1075 2522 
Q 1259 2794 1537 2939 
Q 1816 3084 2150 3084 
Q 2853 3084 3261 2657 
Q 3669 2231 3669 1497 
Q 3669 778 3244 343 
Q 2819 -91 2113 -91 
Q 1303 -91 875 529 
Q 447 1150 447 2328 
Q 447 3434 972 4092 
Q 1497 4750 2381 4750 
Q 2619 4750 2861 4703 
Q 3103 4656 3366 4563 
z
" id="DejaVuSans-36" transform="scale(0.015625)"/>
       </defs>
       <use xlink:href="#DejaVuSans-36"/>
      </g>
     </g>
    </g>
    <g id="ytick_4">
     <g id="line2d_19">
      <path clip-path="url(#p0788690226)" d="M 40.603125 131.524861 
L 487.003125 131.524861 
" style="fill:none;stroke:#b0b0b0;stroke-linecap:square;stroke-width:0.8;"/>
     </g>
     <g id="line2d_20">
      <g>
       <use style="stroke:#000000;stroke-width:0.8;" x="40.603125" xlink:href="#mb7cc13e81f" y="131.524861"/>
      </g>
     </g>
     <g id="text_11">
      <!-- 7 -->
      <g transform="translate(27.240625 135.32408)scale(0.1 -0.1)">
       <defs>
        <path d="M 525 4666 
L 3525 4666 
L 3525 4397 
L 1831 0 
L 1172 0 
L 2766 4134 
L 525 4134 
L 525 4666 
z
" id="DejaVuSans-37" transform="scale(0.015625)"/>
       </defs>
       <use xlink:href="#DejaVuSans-37"/>
      </g>
     </g>
    </g>
    <g id="ytick_5">
     <g id="line2d_21">
      <path clip-path="url(#p0788690226)" d="M 40.603125 96.682021 
L 487.003125 96.682021 
" style="fill:none;stroke:#b0b0b0;stroke-linecap:square;stroke-width:0.8;"/>
     </g>
     <g id="line2d_22">
      <g>
       <use style="stroke:#000000;stroke-width:0.8;" x="40.603125" xlink:href="#mb7cc13e81f" y="96.682021"/>
      </g>
     </g>
     <g id="text_12">
      <!-- 8 -->
      <g transform="translate(27.240625 100.48124)scale(0.1 -0.1)">
       <defs>
        <path d="M 2034 2216 
Q 1584 2216 1326 1975 
Q 1069 1734 1069 1313 
Q 1069 891 1326 650 
Q 1584 409 2034 409 
Q 2484 409 2743 651 
Q 3003 894 3003 1313 
Q 3003 1734 2745 1975 
Q 2488 2216 2034 2216 
z
M 1403 2484 
Q 997 2584 770 2862 
Q 544 3141 544 3541 
Q 544 4100 942 4425 
Q 1341 4750 2034 4750 
Q 2731 4750 3128 4425 
Q 3525 4100 3525 3541 
Q 3525 3141 3298 2862 
Q 3072 2584 2669 2484 
Q 3125 2378 3379 2068 
Q 3634 1759 3634 1313 
Q 3634 634 3220 271 
Q 2806 -91 2034 -91 
Q 1263 -91 848 271 
Q 434 634 434 1313 
Q 434 1759 690 2068 
Q 947 2378 1403 2484 
z
M 1172 3481 
Q 1172 3119 1398 2916 
Q 1625 2713 2034 2713 
Q 2441 2713 2670 2916 
Q 2900 3119 2900 3481 
Q 2900 3844 2670 4047 
Q 2441 4250 2034 4250 
Q 1625 4250 1398 4047 
Q 1172 3844 1172 3481 
z
" id="DejaVuSans-38" transform="scale(0.015625)"/>
       </defs>
       <use xlink:href="#DejaVuSans-38"/>
      </g>
     </g>
    </g>
    <g id="ytick_6">
     <g id="line2d_23">
      <path clip-path="url(#p0788690226)" d="M 40.603125 61.839181 
L 487.003125 61.839181 
" style="fill:none;stroke:#b0b0b0;stroke-linecap:square;stroke-width:0.8;"/>
     </g>
     <g id="line2d_24">
      <g>
       <use style="stroke:#000000;stroke-width:0.8;" x="40.603125" xlink:href="#mb7cc13e81f" y="61.839181"/>
      </g>
     </g>
     <g id="text_13">
      <!-- 9 -->
      <g transform="translate(27.240625 65.6384)scale(0.1 -0.1)">
       <defs>
        <path d="M 703 97 
L 703 672 
Q 941 559 1184 500 
Q 1428 441 1663 441 
Q 2288 441 2617 861 
Q 2947 1281 2994 2138 
Q 2813 1869 2534 1725 
Q 2256 1581 1919 1581 
Q 1219 1581 811 2004 
Q 403 2428 403 3163 
Q 403 3881 828 4315 
Q 1253 4750 1959 4750 
Q 2769 4750 3195 4129 
Q 3622 3509 3622 2328 
Q 3622 1225 3098 567 
Q 2575 -91 1691 -91 
Q 1453 -91 1209 -44 
Q 966 3 703 97 
z
M 1959 2075 
Q 2384 2075 2632 2365 
Q 2881 2656 2881 3163 
Q 2881 3666 2632 3958 
Q 2384 4250 1959 4250 
Q 1534 4250 1286 3958 
Q 1038 3666 1038 3163 
Q 1038 2656 1286 2365 
Q 1534 2075 1959 2075 
z
" id="DejaVuSans-39" transform="scale(0.015625)"/>
       </defs>
       <use xlink:href="#DejaVuSans-39"/>
      </g>
     </g>
    </g>
    <g id="ytick_7">
     <g id="line2d_25">
      <path clip-path="url(#p0788690226)" d="M 40.603125 26.996342 
L 487.003125 26.996342 
" style="fill:none;stroke:#b0b0b0;stroke-linecap:square;stroke-width:0.8;"/>
     </g>
     <g id="line2d_26">
      <g>
       <use style="stroke:#000000;stroke-width:0.8;" x="40.603125" xlink:href="#mb7cc13e81f" y="26.996342"/>
      </g>
     </g>
     <g id="text_14">
      <!-- 10 -->
      <g transform="translate(20.878125 30.79556)scale(0.1 -0.1)">
       <use xlink:href="#DejaVuSans-31"/>
       <use x="63.623047" xlink:href="#DejaVuSans-30"/>
      </g>
     </g>
    </g>
    <g id="text_15">
     <!-- Druck (hPa) -->
     <g transform="translate(14.798438 160.270156)rotate(-90)scale(0.1 -0.1)">
      <defs>
       <path d="M 1259 4147 
L 1259 519 
L 2022 519 
Q 2988 519 3436 956 
Q 3884 1394 3884 2338 
Q 3884 3275 3436 3711 
Q 2988 4147 2022 4147 
L 1259 4147 
z
M 628 4666 
L 1925 4666 
Q 3281 4666 3915 4102 
Q 4550 3538 4550 2338 
Q 4550 1131 3912 565 
Q 3275 0 1925 0 
L 628 0 
L 628 4666 
z
" id="DejaVuSans-44" transform="scale(0.015625)"/>
       <path d="M 2631 2963 
Q 2534 3019 2420 3045 
Q 2306 3072 2169 3072 
Q 1681 3072 1420 2755 
Q 1159 2438 1159 1844 
L 1159 0 
L 581 0 
L 581 3500 
L 1159 3500 
L 1159 2956 
Q 1341 3275 1631 3429 
Q 1922 3584 2338 3584 
Q 2397 3584 2469 3576 
Q 2541 3569 2628 3553 
L 2631 2963 
z
" id="DejaVuSans-72" transform="scale(0.015625)"/>
       <path d="M 544 1381 
L 544 3500 
L 1119 3500 
L 1119 1403 
Q 1119 906 1312 657 
Q 1506 409 1894 409 
Q 2359 409 2629 706 
Q 2900 1003 2900 1516 
L 2900 3500 
L 3475 3500 
L 3475 0 
L 2900 0 
L 2900 538 
Q 2691 219 2414 64 
Q 2138 -91 1772 -91 
Q 1169 -91 856 284 
Q 544 659 544 1381 
z
M 1991 3584 
L 1991 3584 
z
" id="DejaVuSans-75" transform="scale(0.015625)"/>
       <path d="M 3122 3366 
L 3122 2828 
Q 2878 2963 2633 3030 
Q 2388 3097 2138 3097 
Q 1578 3097 1268 2742 
Q 959 2388 959 1747 
Q 959 1106 1268 751 
Q 1578 397 2138 397 
Q 2388 397 2633 464 
Q 2878 531 3122 666 
L 3122 134 
Q 2881 22 2623 -34 
Q 2366 -91 2075 -91 
Q 1284 -91 818 406 
Q 353 903 353 1747 
Q 353 2603 823 3093 
Q 1294 3584 2113 3584 
Q 2378 3584 2631 3529 
Q 2884 3475 3122 3366 
z
" id="DejaVuSans-63" transform="scale(0.015625)"/>
       <path d="M 581 4863 
L 1159 4863 
L 1159 1991 
L 2875 3500 
L 3609 3500 
L 1753 1863 
L 3688 0 
L 2938 0 
L 1159 1709 
L 1159 0 
L 581 0 
L 581 4863 
z
" id="DejaVuSans-6b" transform="scale(0.015625)"/>
       <path d="M 3513 2113 
L 3513 0 
L 2938 0 
L 2938 2094 
Q 2938 2591 2744 2837 
Q 2550 3084 2163 3084 
Q 1697 3084 1428 2787 
Q 1159 2491 1159 1978 
L 1159 0 
L 581 0 
L 581 4863 
L 1159 4863 
L 1159 2956 
Q 1366 3272 1645 3428 
Q 1925 3584 2291 3584 
Q 2894 3584 3203 3211 
Q 3513 2838 3513 2113 
z
" id="DejaVuSans-68" transform="scale(0.015625)"/>
       <path d="M 1259 4147 
L 1259 2394 
L 2053 2394 
Q 2494 2394 2734 2622 
Q 2975 2850 2975 3272 
Q 2975 3691 2734 3919 
Q 2494 4147 2053 4147 
L 1259 4147 
z
M 628 4666 
L 2053 4666 
Q 2838 4666 3239 4311 
Q 3641 3956 3641 3272 
Q 3641 2581 3239 2228 
Q 2838 1875 2053 1875 
L 1259 1875 
L 1259 0 
L 628 0 
L 628 4666 
z
" id="DejaVuSans-50" transform="scale(0.015625)"/>
       <path d="M 2194 1759 
Q 1497 1759 1228 1600 
Q 959 1441 959 1056 
Q 959 750 1161 570 
Q 1363 391 1709 391 
Q 2188 391 2477 730 
Q 2766 1069 2766 1631 
L 2766 1759 
L 2194 1759 
z
M 3341 1997 
L 3341 0 
L 2766 0 
L 2766 531 
Q 2569 213 2275 61 
Q 1981 -91 1556 -91 
Q 1019 -91 701 211 
Q 384 513 384 1019 
Q 384 1609 779 1909 
Q 1175 2209 1959 2209 
L 2766 2209 
L 2766 2266 
Q 2766 2663 2505 2880 
Q 2244 3097 1772 3097 
Q 1472 3097 1187 3025 
Q 903 2953 641 2809 
L 641 3341 
Q 956 3463 1253 3523 
Q 1550 3584 1831 3584 
Q 2591 3584 2966 3190 
Q 3341 2797 3341 1997 
z
" id="DejaVuSans-61" transform="scale(0.015625)"/>
      </defs>
      <use xlink:href="#DejaVuSans-44"/>
      <use x="77.001953" xlink:href="#DejaVuSans-72"/>
      <use x="118.115234" xlink:href="#DejaVuSans-75"/>
      <use x="181.494141" xlink:href="#DejaVuSans-63"/>
      <use x="236.474609" xlink:href="#DejaVuSans-6b"/>
      <use x="294.384766" xlink:href="#DejaVuSans-20"/>
      <use x="326.171875" xlink:href="#DejaVuSans-28"/>
      <use x="365.185547" xlink:href="#DejaVuSans-68"/>
      <use x="428.564453" xlink:href="#DejaVuSans-50"/>
      <use x="484.367188" xlink:href="#DejaVuSans-61"/>
      <use x="545.646484" xlink:href="#DejaVuSans-29"/>
     </g>
    </g>
   </g>
   <g id="line2d_27">
    <path clip-path="url(#p0788690226)" d="M 60.894034 214.732166 
L 63.217301 216.494965 
L 65.540607 218.611516 
L 67.865656 220.689323 
L 69.028654 221.413165 
L 70.190221 221.729132 
L 71.350771 221.539116 
L 72.511072 220.765 
L 73.671246 219.428002 
L 74.830677 217.567231 
L 75.992072 215.267581 
L 78.314869 209.702243 
L 80.637096 203.785741 
L 81.797335 201.137373 
L 82.958393 198.91343 
L 84.117834 197.227892 
L 85.278211 196.163247 
L 86.439856 195.702312 
L 87.599757 195.749012 
L 88.761191 196.155939 
L 94.570981 199.238764 
L 95.731656 200.145107 
L 96.894348 201.410292 
L 98.053875 203.060432 
L 99.215855 205.083585 
L 103.860121 214.057569 
L 105.02046 215.728174 
L 106.182347 216.958716 
L 107.34268 217.661209 
L 108.504801 217.781583 
L 109.672145 217.341891 
L 110.832805 216.383122 
L 111.9941 214.980563 
L 113.156018 213.271112 
L 115.476399 209.334043 
L 123.604543 194.963759 
L 128.251085 186.170944 
L 129.413464 184.294546 
L 131.735519 181.104772 
L 134.059286 177.95148 
L 135.221259 176.110607 
L 137.545948 171.73579 
L 139.855578 166.649279 
L 144.494683 155.795771 
L 151.464991 138.972862 
L 160.757901 118.642868 
L 164.242225 111.544157 
L 165.403409 108.870417 
L 167.725996 102.641279 
L 170.048739 95.268099 
L 173.53451 82.93879 
L 177.038328 70.404185 
L 178.20443 66.623548 
L 179.375778 63.259525 
L 180.539902 60.397524 
L 181.711336 58.155629 
L 182.872645 56.525685 
L 184.05608 55.50067 
L 185.225991 55.035264 
L 186.387924 55.06763 
L 187.558797 55.568399 
L 188.720527 56.447976 
L 189.886269 57.604901 
L 193.375489 61.686222 
L 194.540098 62.686442 
L 195.707216 63.295453 
L 196.873724 63.454432 
L 198.036103 62.985089 
L 199.198758 61.916972 
L 200.363233 60.159041 
L 201.525864 57.728344 
L 202.688047 54.630235 
L 205.014746 47.037981 
L 207.344832 39.413488 
L 208.508611 36.381663 
L 209.672946 34.163787 
L 210.840291 32.78725 
L 212.005143 32.201761 
L 213.17065 32.242845 
L 214.335812 32.727936 
L 215.496832 33.535596 
L 216.662293 34.596298 
L 217.830006 35.952461 
L 218.991924 37.686109 
L 220.15622 39.858514 
L 221.320758 42.47724 
L 222.485428 45.573121 
L 223.641991 49.031731 
L 225.951051 56.998385 
L 228.276279 66.312714 
L 230.60125 76.932979 
L 238.737332 116.724913 
L 241.058893 129.187233 
L 244.544367 149.846767 
L 248.028067 170.444081 
L 250.351763 182.813194 
L 251.514176 188.38377 
L 252.676266 193.340939 
L 253.839756 197.467857 
L 255.001112 200.54064 
L 256.162703 202.376351 
L 257.324778 202.943244 
L 258.489103 202.37463 
L 259.651492 200.940014 
L 261.976041 197.041517 
L 263.138937 195.418069 
L 264.30091 194.428393 
L 265.464047 194.237704 
L 266.625834 194.875058 
L 267.78737 196.286169 
L 268.949742 198.330432 
L 273.612304 208.013503 
L 274.776365 209.928569 
L 275.955352 211.405514 
L 277.1248 212.436303 
L 278.292905 213.080949 
L 279.455112 213.394459 
L 280.628196 213.453241 
L 281.802875 213.280666 
L 282.96814 212.901413 
L 284.129551 212.318531 
L 285.293362 211.548946 
L 289.954321 207.982346 
L 291.115919 207.477474 
L 292.278502 207.286959 
L 293.441593 207.419387 
L 294.602731 207.821562 
L 296.927802 209.083033 
L 301.577143 211.872916 
L 303.899361 212.966449 
L 306.229281 213.714272 
L 308.583708 214.024402 
L 310.891601 213.902348 
L 313.228411 213.339469 
L 315.554829 212.388255 
L 319.03974 210.509354 
L 321.364687 209.021546 
L 323.688189 207.281432 
L 326.018156 205.489999 
L 327.179661 204.760652 
L 328.341922 204.292577 
L 329.503606 204.133471 
L 330.670295 204.242062 
L 332.993969 204.966811 
L 335.319525 205.665945 
L 336.481507 205.817844 
L 337.64298 205.774527 
L 338.807548 205.592708 
L 343.459704 204.479874 
L 346.948986 203.857824 
L 348.110958 203.368647 
L 349.272916 202.636921 
L 351.598357 200.527012 
L 352.760339 199.466366 
L 353.922733 198.6565 
L 355.089398 198.236976 
L 356.250347 198.26161 
L 357.411798 198.703134 
L 358.575147 199.475464 
L 362.059745 202.366994 
L 363.221914 203.0765 
L 364.384209 203.545677 
L 365.546784 203.777207 
L 367.873483 203.717835 
L 369.035152 203.684304 
L 370.197242 203.795889 
L 371.358911 204.180637 
L 372.521627 204.904422 
L 373.683522 205.999494 
L 374.848591 207.425749 
L 376.013552 209.160587 
L 378.337443 213.346812 
L 384.146192 225.072746 
L 385.307056 226.939288 
L 386.468654 228.401912 
L 387.629141 229.372873 
L 388.789621 229.869874 
L 389.951375 229.874489 
L 391.114256 229.428169 
L 392.275548 228.6148 
L 393.431416 227.522376 
L 398.076322 222.40373 
L 399.239046 221.402854 
L 401.56401 219.830082 
L 402.725309 219.087622 
L 403.895455 218.179807 
L 405.060524 217.052737 
L 406.230114 215.590254 
L 407.396113 213.860414 
L 410.880922 208.013203 
L 412.042263 206.364515 
L 413.204331 205.051494 
L 414.367868 204.106808 
L 415.530325 203.483828 
L 416.692486 203.129055 
L 419.019804 202.844482 
L 422.509898 202.71406 
L 424.838029 202.870279 
L 427.161561 203.468396 
L 429.489503 204.509117 
L 431.819761 205.958975 
L 434.143738 207.851768 
L 436.474987 210.32156 
L 441.13332 215.925551 
L 442.305833 217.012749 
L 443.468126 217.814266 
L 444.637888 218.291995 
L 445.806117 218.456237 
L 446.969967 218.352834 
L 448.131151 218.026585 
L 450.453767 217.02994 
L 455.101067 214.636917 
L 457.422636 213.247 
L 459.745293 211.442924 
L 462.067723 209.253168 
L 464.389622 207.029231 
L 465.551196 206.0866 
L 466.712216 205.337305 
L 466.712216 205.337305 
" style="fill:none;stroke:#1f77b4;stroke-linecap:square;stroke-width:1.5;"/>
   </g>
   <g id="line2d_28">
    <path clip-path="url(#p0788690226)" d="M 60.894034 205.567997 
L 62.057416 205.409592 
L 63.217301 205.419952 
L 64.37825 205.63843 
L 65.540607 206.089671 
L 66.701258 206.771524 
L 67.865656 207.657094 
L 72.511072 211.729166 
L 73.671246 212.422301 
L 74.830677 212.811385 
L 75.992072 212.856688 
L 77.152632 212.527399 
L 78.314869 211.835891 
L 79.476249 210.809982 
L 80.637096 209.50227 
L 82.958393 206.388241 
L 85.278211 203.192742 
L 86.439856 201.78953 
L 87.599757 200.606396 
L 88.761191 199.694962 
L 89.922251 199.061979 
L 91.084591 198.687988 
L 92.245212 198.522739 
L 94.570981 198.579271 
L 96.894348 198.904726 
L 98.053875 199.194819 
L 99.215855 199.63342 
L 100.375914 200.268859 
L 101.537362 201.139909 
L 102.698155 202.263569 
L 105.02046 205.088443 
L 107.34268 208.175795 
L 108.504801 209.563827 
L 109.672145 210.732564 
L 110.832805 211.6076 
L 111.9941 212.136615 
L 113.156018 212.28601 
L 114.315871 212.034805 
L 115.476399 211.378682 
L 116.637379 210.337881 
L 117.798024 208.942682 
L 118.958621 207.235632 
L 121.281871 203.110954 
L 123.604543 198.325856 
L 127.088924 190.45515 
L 130.574617 182.518501 
L 134.059286 175.259373 
L 141.013517 161.439884 
L 144.494683 153.870129 
L 149.143413 143.097684 
L 153.790439 132.367024 
L 160.757901 117.223885 
L 166.563647 104.868426 
L 168.887219 99.856382 
L 171.211297 94.358961 
L 173.53451 88.18699 
L 178.20443 75.171768 
L 180.539902 69.385671 
L 182.872645 64.467286 
L 184.05608 62.392943 
L 185.225991 60.609033 
L 186.387924 59.145611 
L 187.558797 58.029415 
L 188.720527 57.274451 
L 189.886269 56.868764 
L 191.047679 56.801726 
L 192.209191 57.050795 
L 193.375489 57.574516 
L 195.707216 59.17263 
L 198.036103 60.786284 
L 199.198758 61.308972 
L 200.363233 61.490394 
L 201.525864 61.261473 
L 202.688047 60.573095 
L 203.851383 59.40798 
L 205.014746 57.772837 
L 206.181232 55.712093 
L 208.508611 50.708445 
L 210.840291 45.595031 
L 212.005143 43.489904 
L 213.17065 41.883232 
L 214.335812 40.884543 
L 215.496832 40.517337 
L 216.662293 40.753228 
L 217.830006 41.541195 
L 218.991924 42.81502 
L 220.15622 44.528268 
L 221.320758 46.646583 
L 222.485428 49.175573 
L 223.641991 52.100559 
L 224.796928 55.428364 
L 227.11519 63.227217 
L 229.440863 72.370361 
L 231.76274 82.536558 
L 238.737332 114.97482 
L 242.220273 131.756826 
L 250.351763 171.976504 
L 252.676266 181.924679 
L 255.001112 190.828905 
L 256.162703 194.76926 
L 257.324778 198.247308 
L 258.489103 201.142879 
L 259.651492 203.376044 
L 260.813066 204.906966 
L 261.976041 205.769466 
L 263.138937 206.074435 
L 264.30091 205.982504 
L 267.78737 205.177348 
L 268.949742 205.217565 
L 270.115007 205.522885 
L 271.278818 206.098224 
L 272.449165 206.899832 
L 274.776365 208.908605 
L 277.1248 210.951721 
L 278.292905 211.83161 
L 279.455112 212.54529 
L 280.628196 213.075622 
L 281.802875 213.40119 
L 282.96814 213.518898 
L 284.129551 213.427556 
L 285.293362 213.117527 
L 286.463491 212.587565 
L 287.625503 211.843452 
L 288.791847 210.907148 
L 294.602731 205.567816 
L 295.765853 204.860123 
L 296.927802 204.343535 
L 298.090237 204.007906 
L 300.41546 203.736825 
L 302.737998 203.815067 
L 309.737603 204.395565 
L 312.058946 204.2773 
L 314.394614 203.949696 
L 317.877812 203.192449 
L 327.179661 200.80288 
L 329.503606 200.468328 
L 331.832932 200.434406 
L 332.993969 200.573342 
L 335.319525 201.176375 
L 338.807548 202.282795 
L 339.969797 202.468792 
L 341.132276 202.504706 
L 343.459704 202.177827 
L 348.110958 201.187443 
L 352.760339 200.326315 
L 355.089398 199.933597 
L 356.250347 199.875415 
L 357.411798 199.968983 
L 358.575147 200.234708 
L 359.736417 200.667903 
L 362.059745 201.912752 
L 367.873483 205.573193 
L 370.197242 206.740344 
L 376.013552 209.317645 
L 377.175016 210.076585 
L 378.337443 210.997407 
L 379.498885 212.092901 
L 381.820556 214.767293 
L 387.629141 222.411858 
L 388.789621 223.608101 
L 389.951375 224.541976 
L 391.114256 225.184399 
L 392.275548 225.512306 
L 393.431416 225.510775 
L 394.586532 225.173948 
L 395.74734 224.519906 
L 396.916506 223.579979 
L 398.076322 222.410024 
L 401.56401 218.239772 
L 403.895455 215.568717 
L 408.558299 210.559628 
L 412.042263 206.211757 
L 414.367868 203.426134 
L 416.692486 201.172323 
L 419.019804 199.44103 
L 421.345745 198.064841 
L 423.673866 196.99311 
L 424.838029 196.599816 
L 425.999987 196.333261 
L 427.161561 196.204613 
L 428.325841 196.216776 
L 429.489503 196.365478 
L 431.819761 197.022019 
L 434.143738 198.06702 
L 436.474987 199.492419 
L 438.798286 201.348573 
L 441.13332 203.577761 
L 444.637888 206.92116 
L 445.806117 207.829924 
L 446.969967 208.568266 
L 448.131151 209.117645 
L 449.293187 209.482722 
L 450.453767 209.667229 
L 451.615343 209.678301 
L 452.777176 209.528069 
L 453.938093 209.243215 
L 456.262056 208.331622 
L 459.745293 206.495857 
L 463.228555 204.575025 
L 465.551196 203.488075 
L 466.712216 203.027629 
L 466.712216 203.027629 
" style="fill:none;stroke:#ff7f0e;stroke-linecap:square;stroke-width:1.5;"/>
   </g>
   <g id="patch_3">
    <path d="M 40.603125 239.758125 
L 40.603125 22.318125 
" style="fill:none;stroke:#000000;stroke-linecap:square;stroke-linejoin:miter;stroke-width:0.8;"/>
   </g>
   <g id="patch_4">
    <path d="M 487.003125 239.758125 
L 487.003125 22.318125 
" style="fill:none;stroke:#000000;stroke-linecap:square;stroke-linejoin:miter;stroke-width:0.8;"/>
   </g>
   <g id="patch_5">
    <path d="M 40.603125 239.758125 
L 487.003125 239.758125 
" style="fill:none;stroke:#000000;stroke-linecap:square;stroke-linejoin:miter;stroke-width:0.8;"/>
   </g>
   <g id="patch_6">
    <path d="M 40.603125 22.318125 
L 487.003125 22.318125 
" style="fill:none;stroke:#000000;stroke-linecap:square;stroke-linejoin:miter;stroke-width:0.8;"/>
   </g>
   <g id="text_16">
    <!-- Druck (Staudruck) -->
    <g transform="translate(209.059688 16.318125)scale(0.12 -0.12)">
     <defs>
      <path d="M 3425 4513 
L 3425 3897 
Q 3066 4069 2747 4153 
Q 2428 4238 2131 4238 
Q 1616 4238 1336 4038 
Q 1056 3838 1056 3469 
Q 1056 3159 1242 3001 
Q 1428 2844 1947 2747 
L 2328 2669 
Q 3034 2534 3370 2195 
Q 3706 1856 3706 1288 
Q 3706 609 3251 259 
Q 2797 -91 1919 -91 
Q 1588 -91 1214 -16 
Q 841 59 441 206 
L 441 856 
Q 825 641 1194 531 
Q 1563 422 1919 422 
Q 2459 422 2753 634 
Q 3047 847 3047 1241 
Q 3047 1584 2836 1778 
Q 2625 1972 2144 2069 
L 1759 2144 
Q 1053 2284 737 2584 
Q 422 2884 422 3419 
Q 422 4038 858 4394 
Q 1294 4750 2059 4750 
Q 2388 4750 2728 4690 
Q 3069 4631 3425 4513 
z
" id="DejaVuSans-53" transform="scale(0.015625)"/>
      <path d="M 2906 2969 
L 2906 4863 
L 3481 4863 
L 3481 0 
L 2906 0 
L 2906 525 
Q 2725 213 2448 61 
Q 2172 -91 1784 -91 
Q 1150 -91 751 415 
Q 353 922 353 1747 
Q 353 2572 751 3078 
Q 1150 3584 1784 3584 
Q 2172 3584 2448 3432 
Q 2725 3281 2906 2969 
z
M 947 1747 
Q 947 1113 1208 752 
Q 1469 391 1925 391 
Q 2381 391 2643 752 
Q 2906 1113 2906 1747 
Q 2906 2381 2643 2742 
Q 2381 3103 1925 3103 
Q 1469 3103 1208 2742 
Q 947 2381 947 1747 
z
" id="DejaVuSans-64" transform="scale(0.015625)"/>
     </defs>
     <use xlink:href="#DejaVuSans-44"/>
     <use x="77.001953" xlink:href="#DejaVuSans-72"/>
     <use x="118.115234" xlink:href="#DejaVuSans-75"/>
     <use x="181.494141" xlink:href="#DejaVuSans-63"/>
     <use x="236.474609" xlink:href="#DejaVuSans-6b"/>
     <use x="294.384766" xlink:href="#DejaVuSans-20"/>
     <use x="326.171875" xlink:href="#DejaVuSans-28"/>
     <use x="365.185547" xlink:href="#DejaVuSans-53"/>
     <use x="428.662109" xlink:href="#DejaVuSans-74"/>
     <use x="467.871094" xlink:href="#DejaVuSans-61"/>
     <use x="529.150391" xlink:href="#DejaVuSans-75"/>
     <use x="592.529297" xlink:href="#DejaVuSans-64"/>
     <use x="656.005859" xlink:href="#DejaVuSans-72"/>
     <use x="697.119141" xlink:href="#DejaVuSans-75"/>
     <use x="760.498047" xlink:href="#DejaVuSans-63"/>
     <use x="815.478516" xlink:href="#DejaVuSans-6b"/>
     <use x="873.388672" xlink:href="#DejaVuSans-29"/>
    </g>
   </g>
  </g>
 </g>
 <defs>
  <clipPath id="p0788690226">
   <rect height="217.44" width="446.4" x="40.603125" y="22.318125"/>
  </clipPath>
 </defs>
</svg>
