<?xml version="1.0" encoding="utf-8" standalone="no"?>
<!DOCTYPE svg PUBLIC "-//W3C//DTD SVG 1.1//EN"
  "http://www.w3.org/Graphics/SVG/1.1/DTD/svg11.dtd">
<svg height="277.314375pt" version="1.1" viewBox="0 0 496.220312 277.314375" width="496.220312pt" xmlns="http://www.w3.org/2000/svg" xmlns:xlink="http://www.w3.org/1999/xlink">
 <metadata>
  <rdf:RDF xmlns:cc="http://creativecommons.org/ns#" xmlns:dc="http://purl.org/dc/elements/1.1/" xmlns:rdf="http://www.w3.org/1999/02/22-rdf-syntax-ns#">
   <cc:Work>
    <dc:type rdf:resource="http://purl.org/dc/dcmitype/StillImage"/>
    <dc:date>2023-05-19T15:58:05.451870</dc:date>
    <dc:format>image/svg+xml</dc:format>
    <dc:creator>
     <cc:Agent>
      <dc:title>Matplotlib v3.4.3, https://matplotlib.org/</dc:title>
     </cc:Agent>
    </dc:creator>
   </cc:Work>
  </rdf:RDF>
 </metadata>
 <defs>
  <style type="text/css">*{stroke-linecap:butt;stroke-linejoin:round;}</style>
 </defs>
 <g id="figure_1">
  <g id="patch_1">
   <path d="M 0 277.314375 
L 496.220312 277.314375 
L 496.220312 0 
L 0 0 
z
" style="fill:none;"/>
  </g>
  <g id="axes_1">
   <g id="patch_2">
    <path d="M 42.620313 239.758125 
L 489.020312 239.758125 
L 489.020312 22.318125 
L 42.620313 22.318125 
z
" style="fill:#ffffff;"/>
   </g>
   <g id="matplotlib.axis_1">
    <g id="xtick_1">
     <g id="line2d_1">
      <path clip-path="url(#p749784331a)" d="M 62.911222 239.758125 
L 62.911222 22.318125 
" style="fill:none;stroke:#b0b0b0;stroke-linecap:square;stroke-width:0.8;"/>
     </g>
     <g id="line2d_2">
      <defs>
       <path d="M 0 0 
L 0 3.5 
" id="ma96c277125" style="stroke:#000000;stroke-width:0.8;"/>
      </defs>
      <g>
       <use style="stroke:#000000;stroke-width:0.8;" x="62.911222" xlink:href="#ma96c277125" y="239.758125"/>
      </g>
     </g>
     <g id="text_1">
      <!-- 0 -->
      <g transform="translate(59.729972 254.356562)scale(0.1 -0.1)">
       <defs>
        <path d="M 2034 4250 
Q 1547 4250 1301 3770 
Q 1056 3291 1056 2328 
Q 1056 1369 1301 889 
Q 1547 409 2034 409 
Q 2525 409 2770 889 
Q 3016 1369 3016 2328 
Q 3016 3291 2770 3770 
Q 2525 4250 2034 4250 
z
M 2034 4750 
Q 2819 4750 3233 4129 
Q 3647 3509 3647 2328 
Q 3647 1150 3233 529 
Q 2819 -91 2034 -91 
Q 1250 -91 836 529 
Q 422 1150 422 2328 
Q 422 3509 836 4129 
Q 1250 4750 2034 4750 
z
" id="DejaVuSans-30" transform="scale(0.015625)"/>
       </defs>
       <use xlink:href="#DejaVuSans-30"/>
      </g>
     </g>
    </g>
    <g id="xtick_2">
     <g id="line2d_3">
      <path clip-path="url(#p749784331a)" d="M 141.101195 239.758125 
L 141.101195 22.318125 
" style="fill:none;stroke:#b0b0b0;stroke-linecap:square;stroke-width:0.8;"/>
     </g>
     <g id="line2d_4">
      <g>
       <use style="stroke:#000000;stroke-width:0.8;" x="141.101195" xlink:href="#ma96c277125" y="239.758125"/>
      </g>
     </g>
     <g id="text_2">
      <!-- 10 -->
      <g transform="translate(134.738695 254.356562)scale(0.1 -0.1)">
       <defs>
        <path d="M 794 531 
L 1825 531 
L 1825 4091 
L 703 3866 
L 703 4441 
L 1819 4666 
L 2450 4666 
L 2450 531 
L 3481 531 
L 3481 0 
L 794 0 
L 794 531 
z
" id="DejaVuSans-31" transform="scale(0.015625)"/>
       </defs>
       <use xlink:href="#DejaVuSans-31"/>
       <use x="63.623047" xlink:href="#DejaVuSans-30"/>
      </g>
     </g>
    </g>
    <g id="xtick_3">
     <g id="line2d_5">
      <path clip-path="url(#p749784331a)" d="M 219.291167 239.758125 
L 219.291167 22.318125 
" style="fill:none;stroke:#b0b0b0;stroke-linecap:square;stroke-width:0.8;"/>
     </g>
     <g id="line2d_6">
      <g>
       <use style="stroke:#000000;stroke-width:0.8;" x="219.291167" xlink:href="#ma96c277125" y="239.758125"/>
      </g>
     </g>
     <g id="text_3">
      <!-- 20 -->
      <g transform="translate(212.928667 254.356562)scale(0.1 -0.1)">
       <defs>
        <path d="M 1228 531 
L 3431 531 
L 3431 0 
L 469 0 
L 469 531 
Q 828 903 1448 1529 
Q 2069 2156 2228 2338 
Q 2531 2678 2651 2914 
Q 2772 3150 2772 3378 
Q 2772 3750 2511 3984 
Q 2250 4219 1831 4219 
Q 1534 4219 1204 4116 
Q 875 4013 500 3803 
L 500 4441 
Q 881 4594 1212 4672 
Q 1544 4750 1819 4750 
Q 2544 4750 2975 4387 
Q 3406 4025 3406 3419 
Q 3406 3131 3298 2873 
Q 3191 2616 2906 2266 
Q 2828 2175 2409 1742 
Q 1991 1309 1228 531 
z
" id="DejaVuSans-32" transform="scale(0.015625)"/>
       </defs>
       <use xlink:href="#DejaVuSans-32"/>
       <use x="63.623047" xlink:href="#DejaVuSans-30"/>
      </g>
     </g>
    </g>
    <g id="xtick_4">
     <g id="line2d_7">
      <path clip-path="url(#p749784331a)" d="M 297.48114 239.758125 
L 297.48114 22.318125 
" style="fill:none;stroke:#b0b0b0;stroke-linecap:square;stroke-width:0.8;"/>
     </g>
     <g id="line2d_8">
      <g>
       <use style="stroke:#000000;stroke-width:0.8;" x="297.48114" xlink:href="#ma96c277125" y="239.758125"/>
      </g>
     </g>
     <g id="text_4">
      <!-- 30 -->
      <g transform="translate(291.11864 254.356562)scale(0.1 -0.1)">
       <defs>
        <path d="M 2597 2516 
Q 3050 2419 3304 2112 
Q 3559 1806 3559 1356 
Q 3559 666 3084 287 
Q 2609 -91 1734 -91 
Q 1441 -91 1130 -33 
Q 819 25 488 141 
L 488 750 
Q 750 597 1062 519 
Q 1375 441 1716 441 
Q 2309 441 2620 675 
Q 2931 909 2931 1356 
Q 2931 1769 2642 2001 
Q 2353 2234 1838 2234 
L 1294 2234 
L 1294 2753 
L 1863 2753 
Q 2328 2753 2575 2939 
Q 2822 3125 2822 3475 
Q 2822 3834 2567 4026 
Q 2313 4219 1838 4219 
Q 1578 4219 1281 4162 
Q 984 4106 628 3988 
L 628 4550 
Q 988 4650 1302 4700 
Q 1616 4750 1894 4750 
Q 2613 4750 3031 4423 
Q 3450 4097 3450 3541 
Q 3450 3153 3228 2886 
Q 3006 2619 2597 2516 
z
" id="DejaVuSans-33" transform="scale(0.015625)"/>
       </defs>
       <use xlink:href="#DejaVuSans-33"/>
       <use x="63.623047" xlink:href="#DejaVuSans-30"/>
      </g>
     </g>
    </g>
    <g id="xtick_5">
     <g id="line2d_9">
      <path clip-path="url(#p749784331a)" d="M 375.671113 239.758125 
L 375.671113 22.318125 
" style="fill:none;stroke:#b0b0b0;stroke-linecap:square;stroke-width:0.8;"/>
     </g>
     <g id="line2d_10">
      <g>
       <use style="stroke:#000000;stroke-width:0.8;" x="375.671113" xlink:href="#ma96c277125" y="239.758125"/>
      </g>
     </g>
     <g id="text_5">
      <!-- 40 -->
      <g transform="translate(369.308613 254.356562)scale(0.1 -0.1)">
       <defs>
        <path d="M 2419 4116 
L 825 1625 
L 2419 1625 
L 2419 4116 
z
M 2253 4666 
L 3047 4666 
L 3047 1625 
L 3713 1625 
L 3713 1100 
L 3047 1100 
L 3047 0 
L 2419 0 
L 2419 1100 
L 313 1100 
L 313 1709 
L 2253 4666 
z
" id="DejaVuSans-34" transform="scale(0.015625)"/>
       </defs>
       <use xlink:href="#DejaVuSans-34"/>
       <use x="63.623047" xlink:href="#DejaVuSans-30"/>
      </g>
     </g>
    </g>
    <g id="xtick_6">
     <g id="line2d_11">
      <path clip-path="url(#p749784331a)" d="M 453.861086 239.758125 
L 453.861086 22.318125 
" style="fill:none;stroke:#b0b0b0;stroke-linecap:square;stroke-width:0.8;"/>
     </g>
     <g id="line2d_12">
      <g>
       <use style="stroke:#000000;stroke-width:0.8;" x="453.861086" xlink:href="#ma96c277125" y="239.758125"/>
      </g>
     </g>
     <g id="text_6">
      <!-- 50 -->
      <g transform="translate(447.498586 254.356562)scale(0.1 -0.1)">
       <defs>
        <path d="M 691 4666 
L 3169 4666 
L 3169 4134 
L 1269 4134 
L 1269 2991 
Q 1406 3038 1543 3061 
Q 1681 3084 1819 3084 
Q 2600 3084 3056 2656 
Q 3513 2228 3513 1497 
Q 3513 744 3044 326 
Q 2575 -91 1722 -91 
Q 1428 -91 1123 -41 
Q 819 9 494 109 
L 494 744 
Q 775 591 1075 516 
Q 1375 441 1709 441 
Q 2250 441 2565 725 
Q 2881 1009 2881 1497 
Q 2881 1984 2565 2268 
Q 2250 2553 1709 2553 
Q 1456 2553 1204 2497 
Q 953 2441 691 2322 
L 691 4666 
z
" id="DejaVuSans-35" transform="scale(0.015625)"/>
       </defs>
       <use xlink:href="#DejaVuSans-35"/>
       <use x="63.623047" xlink:href="#DejaVuSans-30"/>
      </g>
     </g>
    </g>
    <g id="text_7">
     <!-- Zeit (s) -->
     <g transform="translate(247.874219 268.034687)scale(0.1 -0.1)">
      <defs>
       <path d="M 359 4666 
L 4025 4666 
L 4025 4184 
L 1075 531 
L 4097 531 
L 4097 0 
L 288 0 
L 288 481 
L 3238 4134 
L 359 4134 
L 359 4666 
z
" id="DejaVuSans-5a" transform="scale(0.015625)"/>
       <path d="M 3597 1894 
L 3597 1613 
L 953 1613 
Q 991 1019 1311 708 
Q 1631 397 2203 397 
Q 2534 397 2845 478 
Q 3156 559 3463 722 
L 3463 178 
Q 3153 47 2828 -22 
Q 2503 -91 2169 -91 
Q 1331 -91 842 396 
Q 353 884 353 1716 
Q 353 2575 817 3079 
Q 1281 3584 2069 3584 
Q 2775 3584 3186 3129 
Q 3597 2675 3597 1894 
z
M 3022 2063 
Q 3016 2534 2758 2815 
Q 2500 3097 2075 3097 
Q 1594 3097 1305 2825 
Q 1016 2553 972 2059 
L 3022 2063 
z
" id="DejaVuSans-65" transform="scale(0.015625)"/>
       <path d="M 603 3500 
L 1178 3500 
L 1178 0 
L 603 0 
L 603 3500 
z
M 603 4863 
L 1178 4863 
L 1178 4134 
L 603 4134 
L 603 4863 
z
" id="DejaVuSans-69" transform="scale(0.015625)"/>
       <path d="M 1172 4494 
L 1172 3500 
L 2356 3500 
L 2356 3053 
L 1172 3053 
L 1172 1153 
Q 1172 725 1289 603 
Q 1406 481 1766 481 
L 2356 481 
L 2356 0 
L 1766 0 
Q 1100 0 847 248 
Q 594 497 594 1153 
L 594 3053 
L 172 3053 
L 172 3500 
L 594 3500 
L 594 4494 
L 1172 4494 
z
" id="DejaVuSans-74" transform="scale(0.015625)"/>
       <path id="DejaVuSans-20" transform="scale(0.015625)"/>
       <path d="M 1984 4856 
Q 1566 4138 1362 3434 
Q 1159 2731 1159 2009 
Q 1159 1288 1364 580 
Q 1569 -128 1984 -844 
L 1484 -844 
Q 1016 -109 783 600 
Q 550 1309 550 2009 
Q 550 2706 781 3412 
Q 1013 4119 1484 4856 
L 1984 4856 
z
" id="DejaVuSans-28" transform="scale(0.015625)"/>
       <path d="M 2834 3397 
L 2834 2853 
Q 2591 2978 2328 3040 
Q 2066 3103 1784 3103 
Q 1356 3103 1142 2972 
Q 928 2841 928 2578 
Q 928 2378 1081 2264 
Q 1234 2150 1697 2047 
L 1894 2003 
Q 2506 1872 2764 1633 
Q 3022 1394 3022 966 
Q 3022 478 2636 193 
Q 2250 -91 1575 -91 
Q 1294 -91 989 -36 
Q 684 19 347 128 
L 347 722 
Q 666 556 975 473 
Q 1284 391 1588 391 
Q 1994 391 2212 530 
Q 2431 669 2431 922 
Q 2431 1156 2273 1281 
Q 2116 1406 1581 1522 
L 1381 1569 
Q 847 1681 609 1914 
Q 372 2147 372 2553 
Q 372 3047 722 3315 
Q 1072 3584 1716 3584 
Q 2034 3584 2315 3537 
Q 2597 3491 2834 3397 
z
" id="DejaVuSans-73" transform="scale(0.015625)"/>
       <path d="M 513 4856 
L 1013 4856 
Q 1481 4119 1714 3412 
Q 1947 2706 1947 2009 
Q 1947 1309 1714 600 
Q 1481 -109 1013 -844 
L 513 -844 
Q 928 -128 1133 580 
Q 1338 1288 1338 2009 
Q 1338 2731 1133 3434 
Q 928 4138 513 4856 
z
" id="DejaVuSans-29" transform="scale(0.015625)"/>
      </defs>
      <use xlink:href="#DejaVuSans-5a"/>
      <use x="68.505859" xlink:href="#DejaVuSans-65"/>
      <use x="130.029297" xlink:href="#DejaVuSans-69"/>
      <use x="157.8125" xlink:href="#DejaVuSans-74"/>
      <use x="197.021484" xlink:href="#DejaVuSans-20"/>
      <use x="228.808594" xlink:href="#DejaVuSans-28"/>
      <use x="267.822266" xlink:href="#DejaVuSans-73"/>
      <use x="319.921875" xlink:href="#DejaVuSans-29"/>
     </g>
    </g>
   </g>
   <g id="matplotlib.axis_2">
    <g id="ytick_1">
     <g id="line2d_13">
      <path clip-path="url(#p749784331a)" d="M 42.620313 220.262402 
L 489.020312 220.262402 
" style="fill:none;stroke:#b0b0b0;stroke-linecap:square;stroke-width:0.8;"/>
     </g>
     <g id="line2d_14">
      <defs>
       <path d="M 0 0 
L -3.5 0 
" id="me2195f083c" style="stroke:#000000;stroke-width:0.8;"/>
      </defs>
      <g>
       <use style="stroke:#000000;stroke-width:0.8;" x="42.620313" xlink:href="#me2195f083c" y="220.262402"/>
      </g>
     </g>
     <g id="text_8">
      <!-- −6 -->
      <g transform="translate(20.878125 224.06162)scale(0.1 -0.1)">
       <defs>
        <path d="M 678 2272 
L 4684 2272 
L 4684 1741 
L 678 1741 
L 678 2272 
z
" id="DejaVuSans-2212" transform="scale(0.015625)"/>
        <path d="M 2113 2584 
Q 1688 2584 1439 2293 
Q 1191 2003 1191 1497 
Q 1191 994 1439 701 
Q 1688 409 2113 409 
Q 2538 409 2786 701 
Q 3034 994 3034 1497 
Q 3034 2003 2786 2293 
Q 2538 2584 2113 2584 
z
M 3366 4563 
L 3366 3988 
Q 3128 4100 2886 4159 
Q 2644 4219 2406 4219 
Q 1781 4219 1451 3797 
Q 1122 3375 1075 2522 
Q 1259 2794 1537 2939 
Q 1816 3084 2150 3084 
Q 2853 3084 3261 2657 
Q 3669 2231 3669 1497 
Q 3669 778 3244 343 
Q 2819 -91 2113 -91 
Q 1303 -91 875 529 
Q 447 1150 447 2328 
Q 447 3434 972 4092 
Q 1497 4750 2381 4750 
Q 2619 4750 2861 4703 
Q 3103 4656 3366 4563 
z
" id="DejaVuSans-36" transform="scale(0.015625)"/>
       </defs>
       <use xlink:href="#DejaVuSans-2212"/>
       <use x="83.789062" xlink:href="#DejaVuSans-36"/>
      </g>
     </g>
    </g>
    <g id="ytick_2">
     <g id="line2d_15">
      <path clip-path="url(#p749784331a)" d="M 42.620313 195.571208 
L 489.020312 195.571208 
" style="fill:none;stroke:#b0b0b0;stroke-linecap:square;stroke-width:0.8;"/>
     </g>
     <g id="line2d_16">
      <g>
       <use style="stroke:#000000;stroke-width:0.8;" x="42.620313" xlink:href="#me2195f083c" y="195.571208"/>
      </g>
     </g>
     <g id="text_9">
      <!-- −4 -->
      <g transform="translate(20.878125 199.370426)scale(0.1 -0.1)">
       <use xlink:href="#DejaVuSans-2212"/>
       <use x="83.789062" xlink:href="#DejaVuSans-34"/>
      </g>
     </g>
    </g>
    <g id="ytick_3">
     <g id="line2d_17">
      <path clip-path="url(#p749784331a)" d="M 42.620313 170.880014 
L 489.020312 170.880014 
" style="fill:none;stroke:#b0b0b0;stroke-linecap:square;stroke-width:0.8;"/>
     </g>
     <g id="line2d_18">
      <g>
       <use style="stroke:#000000;stroke-width:0.8;" x="42.620313" xlink:href="#me2195f083c" y="170.880014"/>
      </g>
     </g>
     <g id="text_10">
      <!-- −2 -->
      <g transform="translate(20.878125 174.679233)scale(0.1 -0.1)">
       <use xlink:href="#DejaVuSans-2212"/>
       <use x="83.789062" xlink:href="#DejaVuSans-32"/>
      </g>
     </g>
    </g>
    <g id="ytick_4">
     <g id="line2d_19">
      <path clip-path="url(#p749784331a)" d="M 42.620313 146.18882 
L 489.020312 146.18882 
" style="fill:none;stroke:#b0b0b0;stroke-linecap:square;stroke-width:0.8;"/>
     </g>
     <g id="line2d_20">
      <g>
       <use style="stroke:#000000;stroke-width:0.8;" x="42.620313" xlink:href="#me2195f083c" y="146.18882"/>
      </g>
     </g>
     <g id="text_11">
      <!-- 0 -->
      <g transform="translate(29.257813 149.988039)scale(0.1 -0.1)">
       <use xlink:href="#DejaVuSans-30"/>
      </g>
     </g>
    </g>
    <g id="ytick_5">
     <g id="line2d_21">
      <path clip-path="url(#p749784331a)" d="M 42.620313 121.497626 
L 489.020312 121.497626 
" style="fill:none;stroke:#b0b0b0;stroke-linecap:square;stroke-width:0.8;"/>
     </g>
     <g id="line2d_22">
      <g>
       <use style="stroke:#000000;stroke-width:0.8;" x="42.620313" xlink:href="#me2195f083c" y="121.497626"/>
      </g>
     </g>
     <g id="text_12">
      <!-- 2 -->
      <g transform="translate(29.257813 125.296845)scale(0.1 -0.1)">
       <use xlink:href="#DejaVuSans-32"/>
      </g>
     </g>
    </g>
    <g id="ytick_6">
     <g id="line2d_23">
      <path clip-path="url(#p749784331a)" d="M 42.620313 96.806432 
L 489.020312 96.806432 
" style="fill:none;stroke:#b0b0b0;stroke-linecap:square;stroke-width:0.8;"/>
     </g>
     <g id="line2d_24">
      <g>
       <use style="stroke:#000000;stroke-width:0.8;" x="42.620313" xlink:href="#me2195f083c" y="96.806432"/>
      </g>
     </g>
     <g id="text_13">
      <!-- 4 -->
      <g transform="translate(29.257813 100.605651)scale(0.1 -0.1)">
       <use xlink:href="#DejaVuSans-34"/>
      </g>
     </g>
    </g>
    <g id="ytick_7">
     <g id="line2d_25">
      <path clip-path="url(#p749784331a)" d="M 42.620313 72.115238 
L 489.020312 72.115238 
" style="fill:none;stroke:#b0b0b0;stroke-linecap:square;stroke-width:0.8;"/>
     </g>
     <g id="line2d_26">
      <g>
       <use style="stroke:#000000;stroke-width:0.8;" x="42.620313" xlink:href="#me2195f083c" y="72.115238"/>
      </g>
     </g>
     <g id="text_14">
      <!-- 6 -->
      <g transform="translate(29.257813 75.914457)scale(0.1 -0.1)">
       <use xlink:href="#DejaVuSans-36"/>
      </g>
     </g>
    </g>
    <g id="ytick_8">
     <g id="line2d_27">
      <path clip-path="url(#p749784331a)" d="M 42.620313 47.424044 
L 489.020312 47.424044 
" style="fill:none;stroke:#b0b0b0;stroke-linecap:square;stroke-width:0.8;"/>
     </g>
     <g id="line2d_28">
      <g>
       <use style="stroke:#000000;stroke-width:0.8;" x="42.620313" xlink:href="#me2195f083c" y="47.424044"/>
      </g>
     </g>
     <g id="text_15">
      <!-- 8 -->
      <g transform="translate(29.257813 51.223263)scale(0.1 -0.1)">
       <defs>
        <path d="M 2034 2216 
Q 1584 2216 1326 1975 
Q 1069 1734 1069 1313 
Q 1069 891 1326 650 
Q 1584 409 2034 409 
Q 2484 409 2743 651 
Q 3003 894 3003 1313 
Q 3003 1734 2745 1975 
Q 2488 2216 2034 2216 
z
M 1403 2484 
Q 997 2584 770 2862 
Q 544 3141 544 3541 
Q 544 4100 942 4425 
Q 1341 4750 2034 4750 
Q 2731 4750 3128 4425 
Q 3525 4100 3525 3541 
Q 3525 3141 3298 2862 
Q 3072 2584 2669 2484 
Q 3125 2378 3379 2068 
Q 3634 1759 3634 1313 
Q 3634 634 3220 271 
Q 2806 -91 2034 -91 
Q 1263 -91 848 271 
Q 434 634 434 1313 
Q 434 1759 690 2068 
Q 947 2378 1403 2484 
z
M 1172 3481 
Q 1172 3119 1398 2916 
Q 1625 2713 2034 2713 
Q 2441 2713 2670 2916 
Q 2900 3119 2900 3481 
Q 2900 3844 2670 4047 
Q 2441 4250 2034 4250 
Q 1625 4250 1398 4047 
Q 1172 3844 1172 3481 
z
" id="DejaVuSans-38" transform="scale(0.015625)"/>
       </defs>
       <use xlink:href="#DejaVuSans-38"/>
      </g>
     </g>
    </g>
    <g id="ytick_9">
     <g id="line2d_29">
      <path clip-path="url(#p749784331a)" d="M 42.620313 22.73285 
L 489.020312 22.73285 
" style="fill:none;stroke:#b0b0b0;stroke-linecap:square;stroke-width:0.8;"/>
     </g>
     <g id="line2d_30">
      <g>
       <use style="stroke:#000000;stroke-width:0.8;" x="42.620313" xlink:href="#me2195f083c" y="22.73285"/>
      </g>
     </g>
     <g id="text_16">
      <!-- 10 -->
      <g transform="translate(22.895313 26.532069)scale(0.1 -0.1)">
       <use xlink:href="#DejaVuSans-31"/>
       <use x="63.623047" xlink:href="#DejaVuSans-30"/>
      </g>
     </g>
    </g>
    <g id="text_17">
     <!-- Geschwindigkeit Variometer (m/s) -->
     <g transform="translate(14.798438 215.914687)rotate(-90)scale(0.1 -0.1)">
      <defs>
       <path d="M 3809 666 
L 3809 1919 
L 2778 1919 
L 2778 2438 
L 4434 2438 
L 4434 434 
Q 4069 175 3628 42 
Q 3188 -91 2688 -91 
Q 1594 -91 976 548 
Q 359 1188 359 2328 
Q 359 3472 976 4111 
Q 1594 4750 2688 4750 
Q 3144 4750 3555 4637 
Q 3966 4525 4313 4306 
L 4313 3634 
Q 3963 3931 3569 4081 
Q 3175 4231 2741 4231 
Q 1884 4231 1454 3753 
Q 1025 3275 1025 2328 
Q 1025 1384 1454 906 
Q 1884 428 2741 428 
Q 3075 428 3337 486 
Q 3600 544 3809 666 
z
" id="DejaVuSans-47" transform="scale(0.015625)"/>
       <path d="M 3122 3366 
L 3122 2828 
Q 2878 2963 2633 3030 
Q 2388 3097 2138 3097 
Q 1578 3097 1268 2742 
Q 959 2388 959 1747 
Q 959 1106 1268 751 
Q 1578 397 2138 397 
Q 2388 397 2633 464 
Q 2878 531 3122 666 
L 3122 134 
Q 2881 22 2623 -34 
Q 2366 -91 2075 -91 
Q 1284 -91 818 406 
Q 353 903 353 1747 
Q 353 2603 823 3093 
Q 1294 3584 2113 3584 
Q 2378 3584 2631 3529 
Q 2884 3475 3122 3366 
z
" id="DejaVuSans-63" transform="scale(0.015625)"/>
       <path d="M 3513 2113 
L 3513 0 
L 2938 0 
L 2938 2094 
Q 2938 2591 2744 2837 
Q 2550 3084 2163 3084 
Q 1697 3084 1428 2787 
Q 1159 2491 1159 1978 
L 1159 0 
L 581 0 
L 581 4863 
L 1159 4863 
L 1159 2956 
Q 1366 3272 1645 3428 
Q 1925 3584 2291 3584 
Q 2894 3584 3203 3211 
Q 3513 2838 3513 2113 
z
" id="DejaVuSans-68" transform="scale(0.015625)"/>
       <path d="M 269 3500 
L 844 3500 
L 1563 769 
L 2278 3500 
L 2956 3500 
L 3675 769 
L 4391 3500 
L 4966 3500 
L 4050 0 
L 3372 0 
L 2619 2869 
L 1863 0 
L 1184 0 
L 269 3500 
z
" id="DejaVuSans-77" transform="scale(0.015625)"/>
       <path d="M 3513 2113 
L 3513 0 
L 2938 0 
L 2938 2094 
Q 2938 2591 2744 2837 
Q 2550 3084 2163 3084 
Q 1697 3084 1428 2787 
Q 1159 2491 1159 1978 
L 1159 0 
L 581 0 
L 581 3500 
L 1159 3500 
L 1159 2956 
Q 1366 3272 1645 3428 
Q 1925 3584 2291 3584 
Q 2894 3584 3203 3211 
Q 3513 2838 3513 2113 
z
" id="DejaVuSans-6e" transform="scale(0.015625)"/>
       <path d="M 2906 2969 
L 2906 4863 
L 3481 4863 
L 3481 0 
L 2906 0 
L 2906 525 
Q 2725 213 2448 61 
Q 2172 -91 1784 -91 
Q 1150 -91 751 415 
Q 353 922 353 1747 
Q 353 2572 751 3078 
Q 1150 3584 1784 3584 
Q 2172 3584 2448 3432 
Q 2725 3281 2906 2969 
z
M 947 1747 
Q 947 1113 1208 752 
Q 1469 391 1925 391 
Q 2381 391 2643 752 
Q 2906 1113 2906 1747 
Q 2906 2381 2643 2742 
Q 2381 3103 1925 3103 
Q 1469 3103 1208 2742 
Q 947 2381 947 1747 
z
" id="DejaVuSans-64" transform="scale(0.015625)"/>
       <path d="M 2906 1791 
Q 2906 2416 2648 2759 
Q 2391 3103 1925 3103 
Q 1463 3103 1205 2759 
Q 947 2416 947 1791 
Q 947 1169 1205 825 
Q 1463 481 1925 481 
Q 2391 481 2648 825 
Q 2906 1169 2906 1791 
z
M 3481 434 
Q 3481 -459 3084 -895 
Q 2688 -1331 1869 -1331 
Q 1566 -1331 1297 -1286 
Q 1028 -1241 775 -1147 
L 775 -588 
Q 1028 -725 1275 -790 
Q 1522 -856 1778 -856 
Q 2344 -856 2625 -561 
Q 2906 -266 2906 331 
L 2906 616 
Q 2728 306 2450 153 
Q 2172 0 1784 0 
Q 1141 0 747 490 
Q 353 981 353 1791 
Q 353 2603 747 3093 
Q 1141 3584 1784 3584 
Q 2172 3584 2450 3431 
Q 2728 3278 2906 2969 
L 2906 3500 
L 3481 3500 
L 3481 434 
z
" id="DejaVuSans-67" transform="scale(0.015625)"/>
       <path d="M 581 4863 
L 1159 4863 
L 1159 1991 
L 2875 3500 
L 3609 3500 
L 1753 1863 
L 3688 0 
L 2938 0 
L 1159 1709 
L 1159 0 
L 581 0 
L 581 4863 
z
" id="DejaVuSans-6b" transform="scale(0.015625)"/>
       <path d="M 1831 0 
L 50 4666 
L 709 4666 
L 2188 738 
L 3669 4666 
L 4325 4666 
L 2547 0 
L 1831 0 
z
" id="DejaVuSans-56" transform="scale(0.015625)"/>
       <path d="M 2194 1759 
Q 1497 1759 1228 1600 
Q 959 1441 959 1056 
Q 959 750 1161 570 
Q 1363 391 1709 391 
Q 2188 391 2477 730 
Q 2766 1069 2766 1631 
L 2766 1759 
L 2194 1759 
z
M 3341 1997 
L 3341 0 
L 2766 0 
L 2766 531 
Q 2569 213 2275 61 
Q 1981 -91 1556 -91 
Q 1019 -91 701 211 
Q 384 513 384 1019 
Q 384 1609 779 1909 
Q 1175 2209 1959 2209 
L 2766 2209 
L 2766 2266 
Q 2766 2663 2505 2880 
Q 2244 3097 1772 3097 
Q 1472 3097 1187 3025 
Q 903 2953 641 2809 
L 641 3341 
Q 956 3463 1253 3523 
Q 1550 3584 1831 3584 
Q 2591 3584 2966 3190 
Q 3341 2797 3341 1997 
z
" id="DejaVuSans-61" transform="scale(0.015625)"/>
       <path d="M 2631 2963 
Q 2534 3019 2420 3045 
Q 2306 3072 2169 3072 
Q 1681 3072 1420 2755 
Q 1159 2438 1159 1844 
L 1159 0 
L 581 0 
L 581 3500 
L 1159 3500 
L 1159 2956 
Q 1341 3275 1631 3429 
Q 1922 3584 2338 3584 
Q 2397 3584 2469 3576 
Q 2541 3569 2628 3553 
L 2631 2963 
z
" id="DejaVuSans-72" transform="scale(0.015625)"/>
       <path d="M 1959 3097 
Q 1497 3097 1228 2736 
Q 959 2375 959 1747 
Q 959 1119 1226 758 
Q 1494 397 1959 397 
Q 2419 397 2687 759 
Q 2956 1122 2956 1747 
Q 2956 2369 2687 2733 
Q 2419 3097 1959 3097 
z
M 1959 3584 
Q 2709 3584 3137 3096 
Q 3566 2609 3566 1747 
Q 3566 888 3137 398 
Q 2709 -91 1959 -91 
Q 1206 -91 779 398 
Q 353 888 353 1747 
Q 353 2609 779 3096 
Q 1206 3584 1959 3584 
z
" id="DejaVuSans-6f" transform="scale(0.015625)"/>
       <path d="M 3328 2828 
Q 3544 3216 3844 3400 
Q 4144 3584 4550 3584 
Q 5097 3584 5394 3201 
Q 5691 2819 5691 2113 
L 5691 0 
L 5113 0 
L 5113 2094 
Q 5113 2597 4934 2840 
Q 4756 3084 4391 3084 
Q 3944 3084 3684 2787 
Q 3425 2491 3425 1978 
L 3425 0 
L 2847 0 
L 2847 2094 
Q 2847 2600 2669 2842 
Q 2491 3084 2119 3084 
Q 1678 3084 1418 2786 
Q 1159 2488 1159 1978 
L 1159 0 
L 581 0 
L 581 3500 
L 1159 3500 
L 1159 2956 
Q 1356 3278 1631 3431 
Q 1906 3584 2284 3584 
Q 2666 3584 2933 3390 
Q 3200 3197 3328 2828 
z
" id="DejaVuSans-6d" transform="scale(0.015625)"/>
       <path d="M 1625 4666 
L 2156 4666 
L 531 -594 
L 0 -594 
L 1625 4666 
z
" id="DejaVuSans-2f" transform="scale(0.015625)"/>
      </defs>
      <use xlink:href="#DejaVuSans-47"/>
      <use x="77.490234" xlink:href="#DejaVuSans-65"/>
      <use x="139.013672" xlink:href="#DejaVuSans-73"/>
      <use x="191.113281" xlink:href="#DejaVuSans-63"/>
      <use x="246.09375" xlink:href="#DejaVuSans-68"/>
      <use x="309.472656" xlink:href="#DejaVuSans-77"/>
      <use x="391.259766" xlink:href="#DejaVuSans-69"/>
      <use x="419.042969" xlink:href="#DejaVuSans-6e"/>
      <use x="482.421875" xlink:href="#DejaVuSans-64"/>
      <use x="545.898438" xlink:href="#DejaVuSans-69"/>
      <use x="573.681641" xlink:href="#DejaVuSans-67"/>
      <use x="637.158203" xlink:href="#DejaVuSans-6b"/>
      <use x="691.443359" xlink:href="#DejaVuSans-65"/>
      <use x="752.966797" xlink:href="#DejaVuSans-69"/>
      <use x="780.75" xlink:href="#DejaVuSans-74"/>
      <use x="819.958984" xlink:href="#DejaVuSans-20"/>
      <use x="851.746094" xlink:href="#DejaVuSans-56"/>
      <use x="912.404297" xlink:href="#DejaVuSans-61"/>
      <use x="973.683594" xlink:href="#DejaVuSans-72"/>
      <use x="1014.796875" xlink:href="#DejaVuSans-69"/>
      <use x="1042.580078" xlink:href="#DejaVuSans-6f"/>
      <use x="1103.761719" xlink:href="#DejaVuSans-6d"/>
      <use x="1201.173828" xlink:href="#DejaVuSans-65"/>
      <use x="1262.697266" xlink:href="#DejaVuSans-74"/>
      <use x="1301.90625" xlink:href="#DejaVuSans-65"/>
      <use x="1363.429688" xlink:href="#DejaVuSans-72"/>
      <use x="1404.542969" xlink:href="#DejaVuSans-20"/>
      <use x="1436.330078" xlink:href="#DejaVuSans-28"/>
      <use x="1475.34375" xlink:href="#DejaVuSans-6d"/>
      <use x="1572.755859" xlink:href="#DejaVuSans-2f"/>
      <use x="1606.447266" xlink:href="#DejaVuSans-73"/>
      <use x="1658.546875" xlink:href="#DejaVuSans-29"/>
     </g>
    </g>
   </g>
   <g id="line2d_31">
    <path clip-path="url(#p749784331a)" d="M 62.911222 168.673453 
L 67.557795 169.97519 
L 68.718446 170.337325 
L 71.045842 170.669536 
L 72.207408 170.652679 
L 73.367959 170.409117 
L 74.528259 169.908012 
L 75.688433 169.168445 
L 76.847865 168.232628 
L 79.169819 165.859988 
L 83.814523 160.419014 
L 87.295398 155.839974 
L 93.101778 147.94845 
L 95.424255 145.246043 
L 96.588168 144.134414 
L 97.748843 143.206673 
L 98.911536 142.499118 
L 100.071063 141.976051 
L 101.233043 141.639764 
L 102.393101 141.420578 
L 104.715343 141.315373 
L 105.877308 141.433589 
L 107.037648 141.689236 
L 108.199535 142.135903 
L 109.359867 142.790582 
L 110.521989 143.688065 
L 111.689332 144.838407 
L 112.849993 146.224008 
L 114.011287 147.856984 
L 116.333059 151.733519 
L 118.654566 156.138052 
L 123.299059 165.539553 
L 125.621731 170.664947 
L 127.945622 176.289274 
L 137.238446 199.77996 
L 141.872766 209.79905 
L 146.511871 218.069163 
L 147.672727 219.968874 
L 148.833831 221.629568 
L 149.99902 222.829199 
L 151.160601 224.339603 
L 152.321293 225.499067 
L 154.643363 227.25566 
L 155.807627 227.762751 
L 156.968349 228.621263 
L 159.29192 229.402302 
L 161.613515 229.874489 
L 162.775088 229.779641 
L 163.935279 229.851418 
L 165.097643 229.626371 
L 167.420597 229.470446 
L 168.580834 229.34296 
L 169.743183 228.93063 
L 170.904407 228.673846 
L 172.065927 228.239662 
L 175.551698 226.471001 
L 180.221618 220.994454 
L 181.392966 218.683344 
L 182.55709 216.859385 
L 183.728523 213.889513 
L 184.889832 211.683773 
L 186.073268 207.498455 
L 187.243178 205.017567 
L 188.405112 202.070947 
L 189.575984 198.25549 
L 190.737715 195.247966 
L 191.903457 191.76258 
L 195.392677 182.769646 
L 197.724403 177.830805 
L 198.890912 175.749356 
L 201.215946 172.431032 
L 202.38042 171.092031 
L 204.705235 169.078097 
L 207.031934 167.024547 
L 208.198419 165.672738 
L 209.36202 164.100328 
L 210.525799 162.086962 
L 211.690134 159.635379 
L 212.857479 156.700364 
L 214.02233 153.335792 
L 215.187837 149.456489 
L 216.353 145.089795 
L 218.679481 134.893938 
L 219.847193 129.140625 
L 222.173407 116.335161 
L 224.502616 102.509087 
L 227.968238 80.784875 
L 232.618437 56.479421 
L 234.94122 47.092878 
L 236.108377 43.693775 
L 237.270381 39.905672 
L 238.431972 37.114605 
L 239.592906 34.905156 
L 240.754519 33.448606 
L 241.915062 32.44075 
L 243.07608 32.201761 
L 244.23746 32.527972 
L 245.400395 33.492234 
L 246.561555 34.603162 
L 247.72234 36.274423 
L 248.883782 38.415062 
L 250.045255 40.869998 
L 252.368951 46.794715 
L 254.693454 54.030143 
L 263.993229 85.828738 
L 266.318097 92.767225 
L 268.643021 99.168376 
L 270.96693 104.959938 
L 272.132195 107.68226 
L 274.466352 112.574701 
L 276.793553 116.599758 
L 277.97254 118.952074 
L 279.141988 120.7249 
L 281.4723 124.75481 
L 290.809034 144.18491 
L 297.783041 159.188158 
L 300.107425 163.676142 
L 302.432647 167.6384 
L 304.755185 171.271866 
L 305.916548 172.986833 
L 307.085318 174.506164 
L 308.246469 176.367825 
L 310.600896 179.021688 
L 311.754791 181.21774 
L 312.908789 182.527635 
L 314.076134 183.237355 
L 316.411802 184.948337 
L 317.572016 185.691064 
L 318.733465 186.015059 
L 319.895 186.208203 
L 321.056928 186.250083 
L 323.381875 186.001593 
L 324.543715 185.753311 
L 325.705376 185.356127 
L 326.8667 184.816284 
L 328.035343 183.853299 
L 329.196848 183.178129 
L 331.520794 180.847058 
L 337.336712 173.145927 
L 341.986984 166.92846 
L 348.966173 158.141589 
L 352.451469 153.031177 
L 355.93992 147.424079 
L 360.592334 139.417803 
L 368.726774 124.993181 
L 371.052339 121.824424 
L 372.214429 120.655513 
L 373.376098 119.755832 
L 374.538815 119.201207 
L 375.700709 118.893316 
L 376.865778 118.981084 
L 378.030739 119.276958 
L 379.192203 119.784409 
L 380.354631 120.679878 
L 381.516072 121.826762 
L 382.677007 123.282664 
L 383.837744 125.055281 
L 385.001148 127.198698 
L 386.16338 129.611236 
L 387.324244 132.350241 
L 389.646329 138.67539 
L 394.292736 152.773887 
L 396.60372 159.713204 
L 398.933694 165.868105 
L 400.09351 168.933322 
L 402.420365 173.951497 
L 403.581197 176.224066 
L 404.742497 178.158793 
L 407.077712 181.233264 
L 409.413301 183.414285 
L 410.575486 184.258266 
L 411.73656 184.759676 
L 412.89811 184.9662 
L 414.059451 184.986597 
L 415.221519 184.809289 
L 417.547513 184.118045 
L 419.871453 183.087363 
L 421.036992 182.31814 
L 422.197988 181.748002 
L 424.527086 180.142427 
L 426.855217 178.69133 
L 432.675115 175.699228 
L 433.836948 175.364048 
L 437.323361 173.907634 
L 438.492175 173.292272 
L 440.815474 172.586806 
L 441.987573 171.947527 
L 443.150507 171.804538 
L 444.32302 171.316077 
L 445.485314 171.324178 
L 446.655075 171.013885 
L 448.987154 170.996621 
L 452.470955 171.013535 
L 455.955281 170.774821 
L 459.439823 170.278304 
L 462.923618 169.877067 
L 468.729403 169.542675 
L 468.729403 169.542675 
" style="fill:none;stroke:#1f77b4;stroke-linecap:square;stroke-width:1.5;"/>
   </g>
   <g id="line2d_32">
    <path clip-path="url(#p749784331a)" d="M 62.911222 168.539824 
L 64.074604 170.597491 
L 65.234489 172.407674 
L 66.395438 173.755391 
L 67.557795 174.674111 
L 68.718446 175.206797 
L 69.882844 175.128678 
L 71.045842 174.694119 
L 72.207408 173.772711 
L 73.367959 172.38558 
L 74.528259 170.570545 
L 75.688433 168.405881 
L 78.00926 163.333308 
L 86.135021 144.531775 
L 87.295398 142.128089 
L 88.457043 140.003561 
L 89.616945 138.27135 
L 90.778379 137.092884 
L 91.939438 136.534551 
L 93.101778 136.680679 
L 94.262399 137.512027 
L 95.424255 139.014677 
L 96.588168 141.060893 
L 98.911536 146.088888 
L 101.233043 151.05056 
L 102.393101 153.019881 
L 103.55455 154.426543 
L 104.715343 155.253192 
L 105.877308 155.487374 
L 107.037648 155.245586 
L 108.199535 154.599983 
L 109.359867 153.719885 
L 111.689332 151.520894 
L 114.011287 149.076508 
L 115.173206 147.666042 
L 116.333059 146.079809 
L 118.654566 142.310669 
L 122.137421 136.136344 
L 123.299059 134.453245 
L 124.460485 133.184416 
L 125.621731 132.42085 
L 126.785089 132.236507 
L 127.945622 132.54431 
L 129.106111 133.403331 
L 130.268272 134.75185 
L 131.430652 136.476312 
L 133.752707 140.718143 
L 143.030705 159.195268 
L 145.35053 163.52436 
L 147.672727 167.261061 
L 148.833831 168.764987 
L 151.160601 171.013994 
L 153.482179 172.594838 
L 156.968349 174.575953 
L 159.29192 175.634062 
L 160.453674 175.96617 
L 161.613515 176.162993 
L 162.775088 176.036156 
L 163.935279 175.758868 
L 166.259413 174.505966 
L 168.580834 172.860835 
L 170.904407 171.139082 
L 173.228485 169.832673 
L 174.390842 169.427314 
L 176.719058 168.945717 
L 179.055516 168.908859 
L 181.392966 169.044144 
L 182.55709 169.4238 
L 183.728523 169.654582 
L 184.889832 170.408502 
L 186.073268 170.666493 
L 188.405112 172.839347 
L 189.575984 173.428514 
L 190.737715 174.240384 
L 191.903457 174.426282 
L 193.064867 174.404035 
L 194.226379 173.796515 
L 195.392677 172.580356 
L 196.557285 171.0143 
L 197.724403 168.8963 
L 200.053291 163.804996 
L 202.38042 158.2228 
L 203.543051 155.715531 
L 204.705235 153.482347 
L 205.86857 151.528812 
L 208.198419 148.183144 
L 212.857479 141.96288 
L 214.02233 140.647297 
L 215.187837 139.624774 
L 216.353 138.9559 
L 217.51402 138.655272 
L 218.679481 138.816071 
L 219.847193 139.353862 
L 221.009112 140.201519 
L 223.337945 142.680059 
L 224.502616 143.985087 
L 225.659178 145.103682 
L 226.814116 145.901096 
L 227.968238 146.287508 
L 229.132377 146.265734 
L 230.293466 145.935773 
L 232.618437 144.952708 
L 233.779927 144.599571 
L 234.94122 144.442738 
L 236.108377 144.507535 
L 237.270381 144.738882 
L 239.592906 145.504495 
L 246.561555 148.064294 
L 247.72234 148.332282 
L 248.883782 148.408244 
L 250.045255 148.211655 
L 251.207619 147.672048 
L 252.368951 146.746389 
L 253.531363 145.414929 
L 254.693454 143.69826 
L 257.018299 139.422689 
L 259.341965 134.823546 
L 261.668679 130.812673 
L 262.830253 129.204347 
L 263.993229 127.929611 
L 265.156124 126.901152 
L 266.318097 126.059146 
L 269.804558 124.067573 
L 270.96693 123.502528 
L 272.132195 123.095821 
L 273.296005 122.831727 
L 275.629492 123.358523 
L 276.793553 124.205175 
L 277.97254 125.602621 
L 279.141988 126.755185 
L 282.645383 130.732124 
L 283.820062 131.824724 
L 287.31055 134.469144 
L 289.64269 136.480038 
L 291.971509 139.111879 
L 293.133107 140.743501 
L 294.295689 142.616581 
L 296.619918 146.992336 
L 298.94499 151.951251 
L 302.432647 159.856138 
L 308.246469 173.333603 
L 310.600896 177.118162 
L 311.754791 179.488233 
L 312.908789 180.814203 
L 316.411802 182.560889 
L 317.572016 182.937834 
L 319.895 182.746554 
L 323.381875 182.026125 
L 326.8667 181.713921 
L 328.035343 181.332409 
L 329.196848 181.245234 
L 330.35911 180.703964 
L 331.520794 179.939738 
L 333.850119 177.571517 
L 336.173315 174.567891 
L 338.498695 171.438212 
L 345.476892 162.35795 
L 353.615544 150.834215 
L 355.93992 148.384713 
L 360.592334 144.173766 
L 362.915398 141.550585 
L 366.401396 137.353877 
L 367.563971 136.238896 
L 368.726774 135.392311 
L 369.89067 134.852996 
L 371.052339 134.583321 
L 372.214429 134.633338 
L 373.376098 134.943999 
L 374.538815 135.521098 
L 375.700709 136.303896 
L 378.030739 138.446323 
L 380.354631 141.024551 
L 383.837744 145.329642 
L 390.806808 154.495171 
L 393.131443 156.853432 
L 395.448603 158.686323 
L 396.60372 159.307206 
L 397.764527 159.629699 
L 400.09351 159.615753 
L 401.256234 159.184642 
L 404.742497 157.468325 
L 405.912642 157.015466 
L 407.077712 156.937344 
L 408.247301 157.028967 
L 409.413301 157.432969 
L 411.73656 158.734554 
L 421.036992 164.905228 
L 423.362932 166.820724 
L 424.527086 168.041036 
L 426.855217 170.974508 
L 431.506691 177.783484 
L 432.675115 179.302739 
L 433.836948 181.070011 
L 434.998561 182.538808 
L 436.160926 183.812763 
L 437.323361 184.895304 
L 438.492175 185.506155 
L 439.654265 186.269129 
L 440.815474 186.532141 
L 441.987573 186.08748 
L 443.150507 186.052804 
L 444.32302 185.134872 
L 445.485314 184.672298 
L 447.823304 182.384471 
L 448.987154 181.273406 
L 450.148338 179.984205 
L 452.470955 176.879115 
L 455.955281 171.32639 
L 458.279243 167.546654 
L 460.600946 164.320656 
L 461.762481 163.041143 
L 462.923618 162.037264 
L 464.084911 161.293977 
L 465.245743 160.818983 
L 466.406809 160.580698 
L 467.568383 160.568701 
L 468.729403 160.788004 
L 468.729403 160.788004 
" style="fill:none;stroke:#ff7f0e;stroke-linecap:square;stroke-width:1.5;"/>
   </g>
   <g id="patch_3">
    <path d="M 42.620313 239.758125 
L 42.620313 22.318125 
" style="fill:none;stroke:#000000;stroke-linecap:square;stroke-linejoin:miter;stroke-width:0.8;"/>
   </g>
   <g id="patch_4">
    <path d="M 489.020312 239.758125 
L 489.020312 22.318125 
" style="fill:none;stroke:#000000;stroke-linecap:square;stroke-linejoin:miter;stroke-width:0.8;"/>
   </g>
   <g id="patch_5">
    <path d="M 42.620313 239.758125 
L 489.020312 239.758125 
" style="fill:none;stroke:#000000;stroke-linecap:square;stroke-linejoin:miter;stroke-width:0.8;"/>
   </g>
   <g id="patch_6">
    <path d="M 42.620313 22.318125 
L 489.020312 22.318125 
" style="fill:none;stroke:#000000;stroke-linecap:square;stroke-linejoin:miter;stroke-width:0.8;"/>
   </g>
   <g id="text_18">
    <!-- Vertikale Geschwindigkeit -->
    <g transform="translate(188.494375 16.318125)scale(0.12 -0.12)">
     <defs>
      <path d="M 603 4863 
L 1178 4863 
L 1178 0 
L 603 0 
L 603 4863 
z
" id="DejaVuSans-6c" transform="scale(0.015625)"/>
     </defs>
     <use xlink:href="#DejaVuSans-56"/>
     <use x="60.658203" xlink:href="#DejaVuSans-65"/>
     <use x="122.181641" xlink:href="#DejaVuSans-72"/>
     <use x="163.294922" xlink:href="#DejaVuSans-74"/>
     <use x="202.503906" xlink:href="#DejaVuSans-69"/>
     <use x="230.287109" xlink:href="#DejaVuSans-6b"/>
     <use x="286.447266" xlink:href="#DejaVuSans-61"/>
     <use x="347.726562" xlink:href="#DejaVuSans-6c"/>
     <use x="375.509766" xlink:href="#DejaVuSans-65"/>
     <use x="437.033203" xlink:href="#DejaVuSans-20"/>
     <use x="468.820312" xlink:href="#DejaVuSans-47"/>
     <use x="546.310547" xlink:href="#DejaVuSans-65"/>
     <use x="607.833984" xlink:href="#DejaVuSans-73"/>
     <use x="659.933594" xlink:href="#DejaVuSans-63"/>
     <use x="714.914062" xlink:href="#DejaVuSans-68"/>
     <use x="778.292969" xlink:href="#DejaVuSans-77"/>
     <use x="860.080078" xlink:href="#DejaVuSans-69"/>
     <use x="887.863281" xlink:href="#DejaVuSans-6e"/>
     <use x="951.242188" xlink:href="#DejaVuSans-64"/>
     <use x="1014.71875" xlink:href="#DejaVuSans-69"/>
     <use x="1042.501953" xlink:href="#DejaVuSans-67"/>
     <use x="1105.978516" xlink:href="#DejaVuSans-6b"/>
     <use x="1160.263672" xlink:href="#DejaVuSans-65"/>
     <use x="1221.787109" xlink:href="#DejaVuSans-69"/>
     <use x="1249.570312" xlink:href="#DejaVuSans-74"/>
    </g>
   </g>
  </g>
 </g>
 <defs>
  <clipPath id="p749784331a">
   <rect height="217.44" width="446.4" x="42.620313" y="22.318125"/>
  </clipPath>
 </defs>
</svg>
