<?xml version="1.0" encoding="utf-8" standalone="no"?>
<!DOCTYPE svg PUBLIC "-//W3C//DTD SVG 1.1//EN"
  "http://www.w3.org/Graphics/SVG/1.1/DTD/svg11.dtd">
<svg height="269.892504pt" version="1.1" viewBox="0 0 496.498437 269.892504" width="496.498437pt" xmlns="http://www.w3.org/2000/svg" xmlns:xlink="http://www.w3.org/1999/xlink">
 <metadata>
  <rdf:RDF xmlns:cc="http://creativecommons.org/ns#" xmlns:dc="http://purl.org/dc/elements/1.1/" xmlns:rdf="http://www.w3.org/1999/02/22-rdf-syntax-ns#">
   <cc:Work>
    <dc:type rdf:resource="http://purl.org/dc/dcmitype/StillImage"/>
    <dc:date>2023-05-19T15:58:06.577875</dc:date>
    <dc:format>image/svg+xml</dc:format>
    <dc:creator>
     <cc:Agent>
      <dc:title>Matplotlib v3.4.3, https://matplotlib.org/</dc:title>
     </cc:Agent>
    </dc:creator>
   </cc:Work>
  </rdf:RDF>
 </metadata>
 <defs>
  <style type="text/css">*{stroke-linecap:butt;stroke-linejoin:round;}</style>
 </defs>
 <g id="figure_1">
  <g id="patch_1">
   <path d="M 0 269.892504 
L 496.498437 269.892504 
L 496.498437 0 
L 0 0 
z
" style="fill:#ffffff;"/>
  </g>
  <g id="axes_1">
   <g id="patch_2">
    <path d="M 42.898438 232.336254 
L 489.298437 232.336254 
L 489.298437 10.576254 
L 42.898438 10.576254 
z
" style="fill:#ffffff;"/>
   </g>
   <g id="matplotlib.axis_1">
    <g id="xtick_1">
     <g id="line2d_1">
      <path clip-path="url(#p2cebc01813)" d="M 67.061542 232.336254 
L 67.061542 10.576254 
" style="fill:none;stroke:#b0b0b0;stroke-linecap:square;stroke-width:0.8;"/>
     </g>
     <g id="line2d_2">
      <defs>
       <path d="M 0 0 
L 0 3.5 
" id="mbc30e30bbf" style="stroke:#000000;stroke-width:0.8;"/>
      </defs>
      <g>
       <use style="stroke:#000000;stroke-width:0.8;" x="67.061542" xlink:href="#mbc30e30bbf" y="232.336254"/>
      </g>
     </g>
     <g id="text_1">
      <!-- 0 -->
      <g transform="translate(63.880292 246.934691)scale(0.1 -0.1)">
       <defs>
        <path d="M 2034 4250 
Q 1547 4250 1301 3770 
Q 1056 3291 1056 2328 
Q 1056 1369 1301 889 
Q 1547 409 2034 409 
Q 2525 409 2770 889 
Q 3016 1369 3016 2328 
Q 3016 3291 2770 3770 
Q 2525 4250 2034 4250 
z
M 2034 4750 
Q 2819 4750 3233 4129 
Q 3647 3509 3647 2328 
Q 3647 1150 3233 529 
Q 2819 -91 2034 -91 
Q 1250 -91 836 529 
Q 422 1150 422 2328 
Q 422 3509 836 4129 
Q 1250 4750 2034 4750 
z
" id="DejaVuSans-30" transform="scale(0.015625)"/>
       </defs>
       <use xlink:href="#DejaVuSans-30"/>
      </g>
     </g>
    </g>
    <g id="xtick_2">
     <g id="line2d_3">
      <path clip-path="url(#p2cebc01813)" d="M 144.50545 232.336254 
L 144.50545 10.576254 
" style="fill:none;stroke:#b0b0b0;stroke-linecap:square;stroke-width:0.8;"/>
     </g>
     <g id="line2d_4">
      <g>
       <use style="stroke:#000000;stroke-width:0.8;" x="144.50545" xlink:href="#mbc30e30bbf" y="232.336254"/>
      </g>
     </g>
     <g id="text_2">
      <!-- 10 -->
      <g transform="translate(138.14295 246.934691)scale(0.1 -0.1)">
       <defs>
        <path d="M 794 531 
L 1825 531 
L 1825 4091 
L 703 3866 
L 703 4441 
L 1819 4666 
L 2450 4666 
L 2450 531 
L 3481 531 
L 3481 0 
L 794 0 
L 794 531 
z
" id="DejaVuSans-31" transform="scale(0.015625)"/>
       </defs>
       <use xlink:href="#DejaVuSans-31"/>
       <use x="63.623047" xlink:href="#DejaVuSans-30"/>
      </g>
     </g>
    </g>
    <g id="xtick_3">
     <g id="line2d_5">
      <path clip-path="url(#p2cebc01813)" d="M 221.949357 232.336254 
L 221.949357 10.576254 
" style="fill:none;stroke:#b0b0b0;stroke-linecap:square;stroke-width:0.8;"/>
     </g>
     <g id="line2d_6">
      <g>
       <use style="stroke:#000000;stroke-width:0.8;" x="221.949357" xlink:href="#mbc30e30bbf" y="232.336254"/>
      </g>
     </g>
     <g id="text_3">
      <!-- 20 -->
      <g transform="translate(215.586857 246.934691)scale(0.1 -0.1)">
       <defs>
        <path d="M 1228 531 
L 3431 531 
L 3431 0 
L 469 0 
L 469 531 
Q 828 903 1448 1529 
Q 2069 2156 2228 2338 
Q 2531 2678 2651 2914 
Q 2772 3150 2772 3378 
Q 2772 3750 2511 3984 
Q 2250 4219 1831 4219 
Q 1534 4219 1204 4116 
Q 875 4013 500 3803 
L 500 4441 
Q 881 4594 1212 4672 
Q 1544 4750 1819 4750 
Q 2544 4750 2975 4387 
Q 3406 4025 3406 3419 
Q 3406 3131 3298 2873 
Q 3191 2616 2906 2266 
Q 2828 2175 2409 1742 
Q 1991 1309 1228 531 
z
" id="DejaVuSans-32" transform="scale(0.015625)"/>
       </defs>
       <use xlink:href="#DejaVuSans-32"/>
       <use x="63.623047" xlink:href="#DejaVuSans-30"/>
      </g>
     </g>
    </g>
    <g id="xtick_4">
     <g id="line2d_7">
      <path clip-path="url(#p2cebc01813)" d="M 299.393265 232.336254 
L 299.393265 10.576254 
" style="fill:none;stroke:#b0b0b0;stroke-linecap:square;stroke-width:0.8;"/>
     </g>
     <g id="line2d_8">
      <g>
       <use style="stroke:#000000;stroke-width:0.8;" x="299.393265" xlink:href="#mbc30e30bbf" y="232.336254"/>
      </g>
     </g>
     <g id="text_4">
      <!-- 30 -->
      <g transform="translate(293.030765 246.934691)scale(0.1 -0.1)">
       <defs>
        <path d="M 2597 2516 
Q 3050 2419 3304 2112 
Q 3559 1806 3559 1356 
Q 3559 666 3084 287 
Q 2609 -91 1734 -91 
Q 1441 -91 1130 -33 
Q 819 25 488 141 
L 488 750 
Q 750 597 1062 519 
Q 1375 441 1716 441 
Q 2309 441 2620 675 
Q 2931 909 2931 1356 
Q 2931 1769 2642 2001 
Q 2353 2234 1838 2234 
L 1294 2234 
L 1294 2753 
L 1863 2753 
Q 2328 2753 2575 2939 
Q 2822 3125 2822 3475 
Q 2822 3834 2567 4026 
Q 2313 4219 1838 4219 
Q 1578 4219 1281 4162 
Q 984 4106 628 3988 
L 628 4550 
Q 988 4650 1302 4700 
Q 1616 4750 1894 4750 
Q 2613 4750 3031 4423 
Q 3450 4097 3450 3541 
Q 3450 3153 3228 2886 
Q 3006 2619 2597 2516 
z
" id="DejaVuSans-33" transform="scale(0.015625)"/>
       </defs>
       <use xlink:href="#DejaVuSans-33"/>
       <use x="63.623047" xlink:href="#DejaVuSans-30"/>
      </g>
     </g>
    </g>
    <g id="xtick_5">
     <g id="line2d_9">
      <path clip-path="url(#p2cebc01813)" d="M 376.837173 232.336254 
L 376.837173 10.576254 
" style="fill:none;stroke:#b0b0b0;stroke-linecap:square;stroke-width:0.8;"/>
     </g>
     <g id="line2d_10">
      <g>
       <use style="stroke:#000000;stroke-width:0.8;" x="376.837173" xlink:href="#mbc30e30bbf" y="232.336254"/>
      </g>
     </g>
     <g id="text_5">
      <!-- 40 -->
      <g transform="translate(370.474673 246.934691)scale(0.1 -0.1)">
       <defs>
        <path d="M 2419 4116 
L 825 1625 
L 2419 1625 
L 2419 4116 
z
M 2253 4666 
L 3047 4666 
L 3047 1625 
L 3713 1625 
L 3713 1100 
L 3047 1100 
L 3047 0 
L 2419 0 
L 2419 1100 
L 313 1100 
L 313 1709 
L 2253 4666 
z
" id="DejaVuSans-34" transform="scale(0.015625)"/>
       </defs>
       <use xlink:href="#DejaVuSans-34"/>
       <use x="63.623047" xlink:href="#DejaVuSans-30"/>
      </g>
     </g>
    </g>
    <g id="xtick_6">
     <g id="line2d_11">
      <path clip-path="url(#p2cebc01813)" d="M 454.28108 232.336254 
L 454.28108 10.576254 
" style="fill:none;stroke:#b0b0b0;stroke-linecap:square;stroke-width:0.8;"/>
     </g>
     <g id="line2d_12">
      <g>
       <use style="stroke:#000000;stroke-width:0.8;" x="454.28108" xlink:href="#mbc30e30bbf" y="232.336254"/>
      </g>
     </g>
     <g id="text_6">
      <!-- 50 -->
      <g transform="translate(447.91858 246.934691)scale(0.1 -0.1)">
       <defs>
        <path d="M 691 4666 
L 3169 4666 
L 3169 4134 
L 1269 4134 
L 1269 2991 
Q 1406 3038 1543 3061 
Q 1681 3084 1819 3084 
Q 2600 3084 3056 2656 
Q 3513 2228 3513 1497 
Q 3513 744 3044 326 
Q 2575 -91 1722 -91 
Q 1428 -91 1123 -41 
Q 819 9 494 109 
L 494 744 
Q 775 591 1075 516 
Q 1375 441 1709 441 
Q 2250 441 2565 725 
Q 2881 1009 2881 1497 
Q 2881 1984 2565 2268 
Q 2250 2553 1709 2553 
Q 1456 2553 1204 2497 
Q 953 2441 691 2322 
L 691 4666 
z
" id="DejaVuSans-35" transform="scale(0.015625)"/>
       </defs>
       <use xlink:href="#DejaVuSans-35"/>
       <use x="63.623047" xlink:href="#DejaVuSans-30"/>
      </g>
     </g>
    </g>
    <g id="text_7">
     <!-- Zeit (s) -->
     <g transform="translate(248.152344 260.612816)scale(0.1 -0.1)">
      <defs>
       <path d="M 359 4666 
L 4025 4666 
L 4025 4184 
L 1075 531 
L 4097 531 
L 4097 0 
L 288 0 
L 288 481 
L 3238 4134 
L 359 4134 
L 359 4666 
z
" id="DejaVuSans-5a" transform="scale(0.015625)"/>
       <path d="M 3597 1894 
L 3597 1613 
L 953 1613 
Q 991 1019 1311 708 
Q 1631 397 2203 397 
Q 2534 397 2845 478 
Q 3156 559 3463 722 
L 3463 178 
Q 3153 47 2828 -22 
Q 2503 -91 2169 -91 
Q 1331 -91 842 396 
Q 353 884 353 1716 
Q 353 2575 817 3079 
Q 1281 3584 2069 3584 
Q 2775 3584 3186 3129 
Q 3597 2675 3597 1894 
z
M 3022 2063 
Q 3016 2534 2758 2815 
Q 2500 3097 2075 3097 
Q 1594 3097 1305 2825 
Q 1016 2553 972 2059 
L 3022 2063 
z
" id="DejaVuSans-65" transform="scale(0.015625)"/>
       <path d="M 603 3500 
L 1178 3500 
L 1178 0 
L 603 0 
L 603 3500 
z
M 603 4863 
L 1178 4863 
L 1178 4134 
L 603 4134 
L 603 4863 
z
" id="DejaVuSans-69" transform="scale(0.015625)"/>
       <path d="M 1172 4494 
L 1172 3500 
L 2356 3500 
L 2356 3053 
L 1172 3053 
L 1172 1153 
Q 1172 725 1289 603 
Q 1406 481 1766 481 
L 2356 481 
L 2356 0 
L 1766 0 
Q 1100 0 847 248 
Q 594 497 594 1153 
L 594 3053 
L 172 3053 
L 172 3500 
L 594 3500 
L 594 4494 
L 1172 4494 
z
" id="DejaVuSans-74" transform="scale(0.015625)"/>
       <path id="DejaVuSans-20" transform="scale(0.015625)"/>
       <path d="M 1984 4856 
Q 1566 4138 1362 3434 
Q 1159 2731 1159 2009 
Q 1159 1288 1364 580 
Q 1569 -128 1984 -844 
L 1484 -844 
Q 1016 -109 783 600 
Q 550 1309 550 2009 
Q 550 2706 781 3412 
Q 1013 4119 1484 4856 
L 1984 4856 
z
" id="DejaVuSans-28" transform="scale(0.015625)"/>
       <path d="M 2834 3397 
L 2834 2853 
Q 2591 2978 2328 3040 
Q 2066 3103 1784 3103 
Q 1356 3103 1142 2972 
Q 928 2841 928 2578 
Q 928 2378 1081 2264 
Q 1234 2150 1697 2047 
L 1894 2003 
Q 2506 1872 2764 1633 
Q 3022 1394 3022 966 
Q 3022 478 2636 193 
Q 2250 -91 1575 -91 
Q 1294 -91 989 -36 
Q 684 19 347 128 
L 347 722 
Q 666 556 975 473 
Q 1284 391 1588 391 
Q 1994 391 2212 530 
Q 2431 669 2431 922 
Q 2431 1156 2273 1281 
Q 2116 1406 1581 1522 
L 1381 1569 
Q 847 1681 609 1914 
Q 372 2147 372 2553 
Q 372 3047 722 3315 
Q 1072 3584 1716 3584 
Q 2034 3584 2315 3537 
Q 2597 3491 2834 3397 
z
" id="DejaVuSans-73" transform="scale(0.015625)"/>
       <path d="M 513 4856 
L 1013 4856 
Q 1481 4119 1714 3412 
Q 1947 2706 1947 2009 
Q 1947 1309 1714 600 
Q 1481 -109 1013 -844 
L 513 -844 
Q 928 -128 1133 580 
Q 1338 1288 1338 2009 
Q 1338 2731 1133 3434 
Q 928 4138 513 4856 
z
" id="DejaVuSans-29" transform="scale(0.015625)"/>
      </defs>
      <use xlink:href="#DejaVuSans-5a"/>
      <use x="68.505859" xlink:href="#DejaVuSans-65"/>
      <use x="130.029297" xlink:href="#DejaVuSans-69"/>
      <use x="157.8125" xlink:href="#DejaVuSans-74"/>
      <use x="197.021484" xlink:href="#DejaVuSans-20"/>
      <use x="228.808594" xlink:href="#DejaVuSans-28"/>
      <use x="267.822266" xlink:href="#DejaVuSans-73"/>
      <use x="319.921875" xlink:href="#DejaVuSans-29"/>
     </g>
    </g>
   </g>
   <g id="matplotlib.axis_2">
    <g id="ytick_1">
     <g id="line2d_13">
      <path clip-path="url(#p2cebc01813)" d="M 42.898438 212.453198 
L 489.298437 212.453198 
" style="fill:none;stroke:#b0b0b0;stroke-linecap:square;stroke-width:0.8;"/>
     </g>
     <g id="line2d_14">
      <defs>
       <path d="M 0 0 
L -3.5 0 
" id="m2c953d913a" style="stroke:#000000;stroke-width:0.8;"/>
      </defs>
      <g>
       <use style="stroke:#000000;stroke-width:0.8;" x="42.898438" xlink:href="#m2c953d913a" y="212.453198"/>
      </g>
     </g>
     <g id="text_8">
      <!-- −6 -->
      <g transform="translate(21.15625 216.252417)scale(0.1 -0.1)">
       <defs>
        <path d="M 678 2272 
L 4684 2272 
L 4684 1741 
L 678 1741 
L 678 2272 
z
" id="DejaVuSans-2212" transform="scale(0.015625)"/>
        <path d="M 2113 2584 
Q 1688 2584 1439 2293 
Q 1191 2003 1191 1497 
Q 1191 994 1439 701 
Q 1688 409 2113 409 
Q 2538 409 2786 701 
Q 3034 994 3034 1497 
Q 3034 2003 2786 2293 
Q 2538 2584 2113 2584 
z
M 3366 4563 
L 3366 3988 
Q 3128 4100 2886 4159 
Q 2644 4219 2406 4219 
Q 1781 4219 1451 3797 
Q 1122 3375 1075 2522 
Q 1259 2794 1537 2939 
Q 1816 3084 2150 3084 
Q 2853 3084 3261 2657 
Q 3669 2231 3669 1497 
Q 3669 778 3244 343 
Q 2819 -91 2113 -91 
Q 1303 -91 875 529 
Q 447 1150 447 2328 
Q 447 3434 972 4092 
Q 1497 4750 2381 4750 
Q 2619 4750 2861 4703 
Q 3103 4656 3366 4563 
z
" id="DejaVuSans-36" transform="scale(0.015625)"/>
       </defs>
       <use xlink:href="#DejaVuSans-2212"/>
       <use x="83.789062" xlink:href="#DejaVuSans-36"/>
      </g>
     </g>
    </g>
    <g id="ytick_2">
     <g id="line2d_15">
      <path clip-path="url(#p2cebc01813)" d="M 42.898438 187.271451 
L 489.298437 187.271451 
" style="fill:none;stroke:#b0b0b0;stroke-linecap:square;stroke-width:0.8;"/>
     </g>
     <g id="line2d_16">
      <g>
       <use style="stroke:#000000;stroke-width:0.8;" x="42.898438" xlink:href="#m2c953d913a" y="187.271451"/>
      </g>
     </g>
     <g id="text_9">
      <!-- −4 -->
      <g transform="translate(21.15625 191.070669)scale(0.1 -0.1)">
       <use xlink:href="#DejaVuSans-2212"/>
       <use x="83.789062" xlink:href="#DejaVuSans-34"/>
      </g>
     </g>
    </g>
    <g id="ytick_3">
     <g id="line2d_17">
      <path clip-path="url(#p2cebc01813)" d="M 42.898438 162.089703 
L 489.298437 162.089703 
" style="fill:none;stroke:#b0b0b0;stroke-linecap:square;stroke-width:0.8;"/>
     </g>
     <g id="line2d_18">
      <g>
       <use style="stroke:#000000;stroke-width:0.8;" x="42.898438" xlink:href="#m2c953d913a" y="162.089703"/>
      </g>
     </g>
     <g id="text_10">
      <!-- −2 -->
      <g transform="translate(21.15625 165.888922)scale(0.1 -0.1)">
       <use xlink:href="#DejaVuSans-2212"/>
       <use x="83.789062" xlink:href="#DejaVuSans-32"/>
      </g>
     </g>
    </g>
    <g id="ytick_4">
     <g id="line2d_19">
      <path clip-path="url(#p2cebc01813)" d="M 42.898438 136.907956 
L 489.298437 136.907956 
" style="fill:none;stroke:#b0b0b0;stroke-linecap:square;stroke-width:0.8;"/>
     </g>
     <g id="line2d_20">
      <g>
       <use style="stroke:#000000;stroke-width:0.8;" x="42.898438" xlink:href="#m2c953d913a" y="136.907956"/>
      </g>
     </g>
     <g id="text_11">
      <!-- 0 -->
      <g transform="translate(29.535938 140.707175)scale(0.1 -0.1)">
       <use xlink:href="#DejaVuSans-30"/>
      </g>
     </g>
    </g>
    <g id="ytick_5">
     <g id="line2d_21">
      <path clip-path="url(#p2cebc01813)" d="M 42.898438 111.726208 
L 489.298437 111.726208 
" style="fill:none;stroke:#b0b0b0;stroke-linecap:square;stroke-width:0.8;"/>
     </g>
     <g id="line2d_22">
      <g>
       <use style="stroke:#000000;stroke-width:0.8;" x="42.898438" xlink:href="#m2c953d913a" y="111.726208"/>
      </g>
     </g>
     <g id="text_12">
      <!-- 2 -->
      <g transform="translate(29.535938 115.525427)scale(0.1 -0.1)">
       <use xlink:href="#DejaVuSans-32"/>
      </g>
     </g>
    </g>
    <g id="ytick_6">
     <g id="line2d_23">
      <path clip-path="url(#p2cebc01813)" d="M 42.898438 86.544461 
L 489.298437 86.544461 
" style="fill:none;stroke:#b0b0b0;stroke-linecap:square;stroke-width:0.8;"/>
     </g>
     <g id="line2d_24">
      <g>
       <use style="stroke:#000000;stroke-width:0.8;" x="42.898438" xlink:href="#m2c953d913a" y="86.544461"/>
      </g>
     </g>
     <g id="text_13">
      <!-- 4 -->
      <g transform="translate(29.535938 90.34368)scale(0.1 -0.1)">
       <use xlink:href="#DejaVuSans-34"/>
      </g>
     </g>
    </g>
    <g id="ytick_7">
     <g id="line2d_25">
      <path clip-path="url(#p2cebc01813)" d="M 42.898438 61.362714 
L 489.298437 61.362714 
" style="fill:none;stroke:#b0b0b0;stroke-linecap:square;stroke-width:0.8;"/>
     </g>
     <g id="line2d_26">
      <g>
       <use style="stroke:#000000;stroke-width:0.8;" x="42.898438" xlink:href="#m2c953d913a" y="61.362714"/>
      </g>
     </g>
     <g id="text_14">
      <!-- 6 -->
      <g transform="translate(29.535938 65.161932)scale(0.1 -0.1)">
       <use xlink:href="#DejaVuSans-36"/>
      </g>
     </g>
    </g>
    <g id="ytick_8">
     <g id="line2d_27">
      <path clip-path="url(#p2cebc01813)" d="M 42.898438 36.180966 
L 489.298437 36.180966 
" style="fill:none;stroke:#b0b0b0;stroke-linecap:square;stroke-width:0.8;"/>
     </g>
     <g id="line2d_28">
      <g>
       <use style="stroke:#000000;stroke-width:0.8;" x="42.898438" xlink:href="#m2c953d913a" y="36.180966"/>
      </g>
     </g>
     <g id="text_15">
      <!-- 8 -->
      <g transform="translate(29.535938 39.980185)scale(0.1 -0.1)">
       <defs>
        <path d="M 2034 2216 
Q 1584 2216 1326 1975 
Q 1069 1734 1069 1313 
Q 1069 891 1326 650 
Q 1584 409 2034 409 
Q 2484 409 2743 651 
Q 3003 894 3003 1313 
Q 3003 1734 2745 1975 
Q 2488 2216 2034 2216 
z
M 1403 2484 
Q 997 2584 770 2862 
Q 544 3141 544 3541 
Q 544 4100 942 4425 
Q 1341 4750 2034 4750 
Q 2731 4750 3128 4425 
Q 3525 4100 3525 3541 
Q 3525 3141 3298 2862 
Q 3072 2584 2669 2484 
Q 3125 2378 3379 2068 
Q 3634 1759 3634 1313 
Q 3634 634 3220 271 
Q 2806 -91 2034 -91 
Q 1263 -91 848 271 
Q 434 634 434 1313 
Q 434 1759 690 2068 
Q 947 2378 1403 2484 
z
M 1172 3481 
Q 1172 3119 1398 2916 
Q 1625 2713 2034 2713 
Q 2441 2713 2670 2916 
Q 2900 3119 2900 3481 
Q 2900 3844 2670 4047 
Q 2441 4250 2034 4250 
Q 1625 4250 1398 4047 
Q 1172 3844 1172 3481 
z
" id="DejaVuSans-38" transform="scale(0.015625)"/>
       </defs>
       <use xlink:href="#DejaVuSans-38"/>
      </g>
     </g>
    </g>
    <g id="ytick_9">
     <g id="line2d_29">
      <path clip-path="url(#p2cebc01813)" d="M 42.898438 10.999219 
L 489.298437 10.999219 
" style="fill:none;stroke:#b0b0b0;stroke-linecap:square;stroke-width:0.8;"/>
     </g>
     <g id="line2d_30">
      <g>
       <use style="stroke:#000000;stroke-width:0.8;" x="42.898438" xlink:href="#m2c953d913a" y="10.999219"/>
      </g>
     </g>
     <g id="text_16">
      <!-- 10 -->
      <g transform="translate(23.173438 14.798438)scale(0.1 -0.1)">
       <use xlink:href="#DejaVuSans-31"/>
       <use x="63.623047" xlink:href="#DejaVuSans-30"/>
      </g>
     </g>
    </g>
    <g id="text_17">
     <!-- Vertikale Geschwindigkeit v_vario (m/s) -->
     <g transform="translate(14.798438 220.120316)rotate(-90)scale(0.1 -0.1)">
      <defs>
       <path d="M 1831 0 
L 50 4666 
L 709 4666 
L 2188 738 
L 3669 4666 
L 4325 4666 
L 2547 0 
L 1831 0 
z
" id="DejaVuSans-56" transform="scale(0.015625)"/>
       <path d="M 2631 2963 
Q 2534 3019 2420 3045 
Q 2306 3072 2169 3072 
Q 1681 3072 1420 2755 
Q 1159 2438 1159 1844 
L 1159 0 
L 581 0 
L 581 3500 
L 1159 3500 
L 1159 2956 
Q 1341 3275 1631 3429 
Q 1922 3584 2338 3584 
Q 2397 3584 2469 3576 
Q 2541 3569 2628 3553 
L 2631 2963 
z
" id="DejaVuSans-72" transform="scale(0.015625)"/>
       <path d="M 581 4863 
L 1159 4863 
L 1159 1991 
L 2875 3500 
L 3609 3500 
L 1753 1863 
L 3688 0 
L 2938 0 
L 1159 1709 
L 1159 0 
L 581 0 
L 581 4863 
z
" id="DejaVuSans-6b" transform="scale(0.015625)"/>
       <path d="M 2194 1759 
Q 1497 1759 1228 1600 
Q 959 1441 959 1056 
Q 959 750 1161 570 
Q 1363 391 1709 391 
Q 2188 391 2477 730 
Q 2766 1069 2766 1631 
L 2766 1759 
L 2194 1759 
z
M 3341 1997 
L 3341 0 
L 2766 0 
L 2766 531 
Q 2569 213 2275 61 
Q 1981 -91 1556 -91 
Q 1019 -91 701 211 
Q 384 513 384 1019 
Q 384 1609 779 1909 
Q 1175 2209 1959 2209 
L 2766 2209 
L 2766 2266 
Q 2766 2663 2505 2880 
Q 2244 3097 1772 3097 
Q 1472 3097 1187 3025 
Q 903 2953 641 2809 
L 641 3341 
Q 956 3463 1253 3523 
Q 1550 3584 1831 3584 
Q 2591 3584 2966 3190 
Q 3341 2797 3341 1997 
z
" id="DejaVuSans-61" transform="scale(0.015625)"/>
       <path d="M 603 4863 
L 1178 4863 
L 1178 0 
L 603 0 
L 603 4863 
z
" id="DejaVuSans-6c" transform="scale(0.015625)"/>
       <path d="M 3809 666 
L 3809 1919 
L 2778 1919 
L 2778 2438 
L 4434 2438 
L 4434 434 
Q 4069 175 3628 42 
Q 3188 -91 2688 -91 
Q 1594 -91 976 548 
Q 359 1188 359 2328 
Q 359 3472 976 4111 
Q 1594 4750 2688 4750 
Q 3144 4750 3555 4637 
Q 3966 4525 4313 4306 
L 4313 3634 
Q 3963 3931 3569 4081 
Q 3175 4231 2741 4231 
Q 1884 4231 1454 3753 
Q 1025 3275 1025 2328 
Q 1025 1384 1454 906 
Q 1884 428 2741 428 
Q 3075 428 3337 486 
Q 3600 544 3809 666 
z
" id="DejaVuSans-47" transform="scale(0.015625)"/>
       <path d="M 3122 3366 
L 3122 2828 
Q 2878 2963 2633 3030 
Q 2388 3097 2138 3097 
Q 1578 3097 1268 2742 
Q 959 2388 959 1747 
Q 959 1106 1268 751 
Q 1578 397 2138 397 
Q 2388 397 2633 464 
Q 2878 531 3122 666 
L 3122 134 
Q 2881 22 2623 -34 
Q 2366 -91 2075 -91 
Q 1284 -91 818 406 
Q 353 903 353 1747 
Q 353 2603 823 3093 
Q 1294 3584 2113 3584 
Q 2378 3584 2631 3529 
Q 2884 3475 3122 3366 
z
" id="DejaVuSans-63" transform="scale(0.015625)"/>
       <path d="M 3513 2113 
L 3513 0 
L 2938 0 
L 2938 2094 
Q 2938 2591 2744 2837 
Q 2550 3084 2163 3084 
Q 1697 3084 1428 2787 
Q 1159 2491 1159 1978 
L 1159 0 
L 581 0 
L 581 4863 
L 1159 4863 
L 1159 2956 
Q 1366 3272 1645 3428 
Q 1925 3584 2291 3584 
Q 2894 3584 3203 3211 
Q 3513 2838 3513 2113 
z
" id="DejaVuSans-68" transform="scale(0.015625)"/>
       <path d="M 269 3500 
L 844 3500 
L 1563 769 
L 2278 3500 
L 2956 3500 
L 3675 769 
L 4391 3500 
L 4966 3500 
L 4050 0 
L 3372 0 
L 2619 2869 
L 1863 0 
L 1184 0 
L 269 3500 
z
" id="DejaVuSans-77" transform="scale(0.015625)"/>
       <path d="M 3513 2113 
L 3513 0 
L 2938 0 
L 2938 2094 
Q 2938 2591 2744 2837 
Q 2550 3084 2163 3084 
Q 1697 3084 1428 2787 
Q 1159 2491 1159 1978 
L 1159 0 
L 581 0 
L 581 3500 
L 1159 3500 
L 1159 2956 
Q 1366 3272 1645 3428 
Q 1925 3584 2291 3584 
Q 2894 3584 3203 3211 
Q 3513 2838 3513 2113 
z
" id="DejaVuSans-6e" transform="scale(0.015625)"/>
       <path d="M 2906 2969 
L 2906 4863 
L 3481 4863 
L 3481 0 
L 2906 0 
L 2906 525 
Q 2725 213 2448 61 
Q 2172 -91 1784 -91 
Q 1150 -91 751 415 
Q 353 922 353 1747 
Q 353 2572 751 3078 
Q 1150 3584 1784 3584 
Q 2172 3584 2448 3432 
Q 2725 3281 2906 2969 
z
M 947 1747 
Q 947 1113 1208 752 
Q 1469 391 1925 391 
Q 2381 391 2643 752 
Q 2906 1113 2906 1747 
Q 2906 2381 2643 2742 
Q 2381 3103 1925 3103 
Q 1469 3103 1208 2742 
Q 947 2381 947 1747 
z
" id="DejaVuSans-64" transform="scale(0.015625)"/>
       <path d="M 2906 1791 
Q 2906 2416 2648 2759 
Q 2391 3103 1925 3103 
Q 1463 3103 1205 2759 
Q 947 2416 947 1791 
Q 947 1169 1205 825 
Q 1463 481 1925 481 
Q 2391 481 2648 825 
Q 2906 1169 2906 1791 
z
M 3481 434 
Q 3481 -459 3084 -895 
Q 2688 -1331 1869 -1331 
Q 1566 -1331 1297 -1286 
Q 1028 -1241 775 -1147 
L 775 -588 
Q 1028 -725 1275 -790 
Q 1522 -856 1778 -856 
Q 2344 -856 2625 -561 
Q 2906 -266 2906 331 
L 2906 616 
Q 2728 306 2450 153 
Q 2172 0 1784 0 
Q 1141 0 747 490 
Q 353 981 353 1791 
Q 353 2603 747 3093 
Q 1141 3584 1784 3584 
Q 2172 3584 2450 3431 
Q 2728 3278 2906 2969 
L 2906 3500 
L 3481 3500 
L 3481 434 
z
" id="DejaVuSans-67" transform="scale(0.015625)"/>
       <path d="M 191 3500 
L 800 3500 
L 1894 563 
L 2988 3500 
L 3597 3500 
L 2284 0 
L 1503 0 
L 191 3500 
z
" id="DejaVuSans-76" transform="scale(0.015625)"/>
       <path d="M 3263 -1063 
L 3263 -1509 
L -63 -1509 
L -63 -1063 
L 3263 -1063 
z
" id="DejaVuSans-5f" transform="scale(0.015625)"/>
       <path d="M 1959 3097 
Q 1497 3097 1228 2736 
Q 959 2375 959 1747 
Q 959 1119 1226 758 
Q 1494 397 1959 397 
Q 2419 397 2687 759 
Q 2956 1122 2956 1747 
Q 2956 2369 2687 2733 
Q 2419 3097 1959 3097 
z
M 1959 3584 
Q 2709 3584 3137 3096 
Q 3566 2609 3566 1747 
Q 3566 888 3137 398 
Q 2709 -91 1959 -91 
Q 1206 -91 779 398 
Q 353 888 353 1747 
Q 353 2609 779 3096 
Q 1206 3584 1959 3584 
z
" id="DejaVuSans-6f" transform="scale(0.015625)"/>
       <path d="M 3328 2828 
Q 3544 3216 3844 3400 
Q 4144 3584 4550 3584 
Q 5097 3584 5394 3201 
Q 5691 2819 5691 2113 
L 5691 0 
L 5113 0 
L 5113 2094 
Q 5113 2597 4934 2840 
Q 4756 3084 4391 3084 
Q 3944 3084 3684 2787 
Q 3425 2491 3425 1978 
L 3425 0 
L 2847 0 
L 2847 2094 
Q 2847 2600 2669 2842 
Q 2491 3084 2119 3084 
Q 1678 3084 1418 2786 
Q 1159 2488 1159 1978 
L 1159 0 
L 581 0 
L 581 3500 
L 1159 3500 
L 1159 2956 
Q 1356 3278 1631 3431 
Q 1906 3584 2284 3584 
Q 2666 3584 2933 3390 
Q 3200 3197 3328 2828 
z
" id="DejaVuSans-6d" transform="scale(0.015625)"/>
       <path d="M 1625 4666 
L 2156 4666 
L 531 -594 
L 0 -594 
L 1625 4666 
z
" id="DejaVuSans-2f" transform="scale(0.015625)"/>
      </defs>
      <use xlink:href="#DejaVuSans-56"/>
      <use x="60.658203" xlink:href="#DejaVuSans-65"/>
      <use x="122.181641" xlink:href="#DejaVuSans-72"/>
      <use x="163.294922" xlink:href="#DejaVuSans-74"/>
      <use x="202.503906" xlink:href="#DejaVuSans-69"/>
      <use x="230.287109" xlink:href="#DejaVuSans-6b"/>
      <use x="286.447266" xlink:href="#DejaVuSans-61"/>
      <use x="347.726562" xlink:href="#DejaVuSans-6c"/>
      <use x="375.509766" xlink:href="#DejaVuSans-65"/>
      <use x="437.033203" xlink:href="#DejaVuSans-20"/>
      <use x="468.820312" xlink:href="#DejaVuSans-47"/>
      <use x="546.310547" xlink:href="#DejaVuSans-65"/>
      <use x="607.833984" xlink:href="#DejaVuSans-73"/>
      <use x="659.933594" xlink:href="#DejaVuSans-63"/>
      <use x="714.914062" xlink:href="#DejaVuSans-68"/>
      <use x="778.292969" xlink:href="#DejaVuSans-77"/>
      <use x="860.080078" xlink:href="#DejaVuSans-69"/>
      <use x="887.863281" xlink:href="#DejaVuSans-6e"/>
      <use x="951.242188" xlink:href="#DejaVuSans-64"/>
      <use x="1014.71875" xlink:href="#DejaVuSans-69"/>
      <use x="1042.501953" xlink:href="#DejaVuSans-67"/>
      <use x="1105.978516" xlink:href="#DejaVuSans-6b"/>
      <use x="1160.263672" xlink:href="#DejaVuSans-65"/>
      <use x="1221.787109" xlink:href="#DejaVuSans-69"/>
      <use x="1249.570312" xlink:href="#DejaVuSans-74"/>
      <use x="1288.779297" xlink:href="#DejaVuSans-20"/>
      <use x="1320.566406" xlink:href="#DejaVuSans-76"/>
      <use x="1379.746094" xlink:href="#DejaVuSans-5f"/>
      <use x="1429.746094" xlink:href="#DejaVuSans-76"/>
      <use x="1488.925781" xlink:href="#DejaVuSans-61"/>
      <use x="1550.205078" xlink:href="#DejaVuSans-72"/>
      <use x="1591.318359" xlink:href="#DejaVuSans-69"/>
      <use x="1619.101562" xlink:href="#DejaVuSans-6f"/>
      <use x="1680.283203" xlink:href="#DejaVuSans-20"/>
      <use x="1712.070312" xlink:href="#DejaVuSans-28"/>
      <use x="1751.083984" xlink:href="#DejaVuSans-6d"/>
      <use x="1848.496094" xlink:href="#DejaVuSans-2f"/>
      <use x="1882.1875" xlink:href="#DejaVuSans-73"/>
      <use x="1934.287109" xlink:href="#DejaVuSans-29"/>
     </g>
    </g>
   </g>
   <g id="line2d_31">
    <path clip-path="url(#p2cebc01813)" d="M 67.061542 159.839304 
L 71.663779 161.166903 
L 72.813355 161.536233 
L 75.118544 161.875044 
L 76.269027 161.857852 
L 77.418504 161.60945 
L 78.567733 161.09839 
L 79.716837 160.34413 
L 80.865206 159.389721 
L 83.165005 156.969941 
L 87.76539 151.420869 
L 91.213052 146.750855 
L 96.964029 138.702545 
L 99.264345 135.946448 
L 100.417153 134.812734 
L 101.566754 133.866561 
L 102.718352 133.144948 
L 103.866815 132.611489 
L 105.017708 132.268521 
L 106.166697 132.04498 
L 108.466781 131.937685 
L 109.617659 132.05825 
L 110.766927 132.318976 
L 111.917728 132.774518 
L 113.066988 133.442203 
L 114.218022 134.357517 
L 115.374227 135.530714 
L 116.523812 136.943843 
L 117.674026 138.609262 
L 119.973644 142.562814 
L 122.273 147.054855 
L 126.873176 156.64314 
L 129.173687 161.870364 
L 131.475404 167.606432 
L 140.679558 191.56382 
L 145.269659 201.781965 
L 149.864499 210.216385 
L 151.014279 212.153839 
L 152.164304 213.847527 
L 153.318374 215.070991 
L 154.468872 216.611404 
L 155.618489 217.793903 
L 157.918403 219.585395 
L 159.071558 220.102561 
L 160.221204 220.978129 
L 162.522604 221.774686 
L 164.822047 222.256254 
L 165.972538 222.159522 
L 167.121658 222.232725 
L 168.272931 222.003207 
L 170.57372 221.844183 
L 171.722887 221.714165 
L 172.874145 221.293643 
L 174.024289 221.031757 
L 175.174726 220.588947 
L 178.627236 218.785148 
L 183.252598 213.199795 
L 184.412769 210.842769 
L 185.565785 208.982572 
L 186.726041 205.953696 
L 187.876269 203.704134 
L 189.048413 199.435663 
L 190.20716 196.905486 
L 191.358007 193.900324 
L 192.517707 190.009063 
L 193.668353 186.941787 
L 194.822972 183.387155 
L 198.278899 174.215554 
L 200.588377 169.17859 
L 201.743755 167.055788 
L 204.046604 163.671536 
L 205.199967 162.305933 
L 207.502599 160.251987 
L 209.807097 158.157638 
L 210.962453 156.778972 
L 212.11495 155.175321 
L 213.267625 153.121955 
L 214.42085 150.621665 
L 215.577057 147.628338 
L 216.730794 144.19692 
L 217.88518 140.240545 
L 219.039225 135.787096 
L 221.343507 125.388672 
L 222.500078 119.521055 
L 224.804096 106.461178 
L 227.111079 92.360413 
L 230.543634 70.204594 
L 235.149462 45.416251 
L 237.450081 35.84322 
L 238.606102 32.376586 
L 239.757019 28.513222 
L 240.907526 25.666704 
L 242.057383 23.413358 
L 243.207912 21.92787 
L 244.357381 20.89999 
L 245.507322 20.656254 
L 246.65762 20.988945 
L 247.809458 21.972365 
L 248.959539 23.105364 
L 250.109248 24.809829 
L 251.259608 26.992998 
L 252.409998 29.496707 
L 254.711522 35.539133 
L 257.013845 42.918311 
L 266.224885 75.348667 
L 268.52757 82.425005 
L 270.830311 88.953331 
L 273.132045 94.859957 
L 274.286191 97.636364 
L 276.598077 102.626007 
L 278.903072 106.731031 
L 280.07081 109.130083 
L 281.229099 110.93813 
L 283.537176 115.048105 
L 292.784822 134.864233 
L 299.692285 150.165559 
L 301.99449 154.742708 
L 304.297526 158.783686 
L 306.597903 162.489341 
L 307.748185 164.238379 
L 308.905802 165.787896 
L 310.055874 167.686544 
L 312.387835 170.393132 
L 313.53072 172.632815 
L 314.673707 173.968734 
L 315.829914 174.692555 
L 318.143295 176.437529 
L 319.29244 177.195013 
L 320.442807 177.525445 
L 321.593258 177.722426 
L 322.744099 177.765138 
L 325.046862 177.511711 
L 326.197617 177.258496 
L 327.348194 176.853421 
L 328.498437 176.302853 
L 329.655929 175.320736 
L 330.806351 174.632152 
L 333.108122 172.254768 
L 338.868547 164.400635 
L 343.474447 158.059642 
L 350.387043 149.098197 
L 353.839083 143.886254 
L 357.294249 138.167756 
L 361.902271 130.002415 
L 369.959094 115.291211 
L 372.262469 112.059499 
L 373.413471 110.867365 
L 374.564056 109.949809 
L 375.715678 109.384165 
L 376.866486 109.070157 
L 378.020439 109.159668 
L 379.174284 109.461421 
L 380.324665 109.978954 
L 381.476001 110.892214 
L 382.626361 112.061883 
L 383.776218 113.546711 
L 384.925879 115.354546 
L 386.078183 117.540547 
L 387.229325 120.001016 
L 388.379112 122.794439 
L 390.679041 129.245252 
L 395.281113 143.623852 
L 397.570046 150.701036 
L 399.877789 156.97822 
L 401.026538 160.104336 
L 403.331191 165.222209 
L 404.480947 167.539928 
L 405.631166 169.513094 
L 407.944099 172.648647 
L 410.257402 174.872999 
L 411.408498 175.733748 
L 412.558494 176.245121 
L 413.70896 176.455747 
L 414.85922 176.47655 
L 416.0102 176.295719 
L 418.314 175.590741 
L 420.615766 174.539582 
L 421.770183 173.755077 
L 422.920102 173.173612 
L 425.226976 171.536138 
L 427.532892 170.056211 
L 433.29726 167.004663 
L 434.448007 166.662824 
L 437.901153 165.177475 
L 439.058815 164.549887 
L 440.209816 164.24775 
L 441.359945 163.830405 
L 442.52086 163.178426 
L 443.672699 163.032595 
L 444.834024 162.53443 
L 445.985227 162.542692 
L 447.143827 162.226234 
L 449.453654 162.208627 
L 452.904213 162.225877 
L 456.355293 161.982421 
L 459.806587 161.476039 
L 463.25714 161.066831 
L 469.007528 160.725795 
L 469.007528 160.725795 
" style="fill:none;stroke:#1f77b4;stroke-linecap:square;stroke-width:1.5;"/>
   </g>
   <g id="line2d_32">
    <path clip-path="url(#p2cebc01813)" d="M 67.061542 169.352224 
L 68.213823 169.266323 
L 69.362641 168.53247 
L 70.512513 167.06196 
L 71.663779 165.052881 
L 72.813355 162.63946 
L 75.118544 156.647721 
L 79.716837 143.747553 
L 82.015519 138.391425 
L 84.316153 134.003278 
L 86.616222 130.126895 
L 87.76539 128.421799 
L 88.915369 127.08395 
L 90.063747 126.276592 
L 91.213052 126.27678 
L 92.363613 127.189502 
L 93.512447 128.999596 
L 94.662799 131.676045 
L 95.81278 135.019324 
L 99.264345 146.153826 
L 100.417153 149.240537 
L 101.566754 151.692944 
L 102.718352 153.211043 
L 103.866815 153.804798 
L 105.017708 153.342236 
L 106.166697 152.082011 
L 107.317064 150.12104 
L 111.917728 141.076044 
L 116.523812 133.336577 
L 121.123099 124.246777 
L 122.273 122.408621 
L 123.422571 121.071805 
L 124.572094 120.353381 
L 125.722623 120.384571 
L 126.873176 121.137991 
L 128.023521 122.546198 
L 129.173687 124.491955 
L 131.475404 129.382649 
L 136.077253 139.873885 
L 138.377965 144.595444 
L 140.679558 148.822408 
L 145.269659 156.470446 
L 147.565252 159.708581 
L 148.714239 161.030607 
L 149.864499 162.081279 
L 151.014279 162.933369 
L 154.468872 165.116381 
L 156.768298 167.195059 
L 157.918403 168.297517 
L 160.221204 169.914259 
L 161.372121 170.165166 
L 162.522604 170.096704 
L 163.673274 169.643713 
L 164.822047 168.964055 
L 167.121658 166.756816 
L 169.423616 163.70821 
L 172.874145 158.792897 
L 174.024289 157.662826 
L 175.174726 156.944958 
L 176.326191 156.690255 
L 177.477457 156.844146 
L 178.627236 157.328463 
L 179.783458 157.942967 
L 180.940911 158.882266 
L 182.097622 160.162418 
L 184.412769 163.580714 
L 185.565785 165.900446 
L 186.726041 167.97129 
L 187.876269 170.413772 
L 189.048413 171.637731 
L 190.20716 173.471342 
L 191.358007 174.645852 
L 193.668353 174.613281 
L 194.822972 173.391824 
L 195.9733 171.630398 
L 197.123729 168.853182 
L 198.278899 165.16051 
L 199.432395 160.967696 
L 202.895043 147.464907 
L 204.046604 143.712702 
L 205.199967 140.566111 
L 206.351505 138.005063 
L 208.654834 133.964843 
L 210.962453 130.559832 
L 212.11495 129.13637 
L 213.267625 128.087777 
L 214.42085 127.482489 
L 215.577057 127.50292 
L 216.730794 128.076284 
L 217.88518 129.245815 
L 219.039225 130.963537 
L 220.189167 133.163551 
L 224.804096 143.598667 
L 225.957522 145.172404 
L 227.111079 145.82184 
L 228.256607 145.562709 
L 229.400524 144.419671 
L 232.846676 139.309985 
L 234.000148 138.095373 
L 235.149462 137.362548 
L 236.29987 137.103151 
L 237.450081 137.20091 
L 238.606102 137.549563 
L 244.357381 140.086941 
L 245.507322 140.353175 
L 246.65762 140.219504 
L 247.809458 139.436812 
L 248.959539 137.829959 
L 250.109248 135.254022 
L 251.259608 131.783197 
L 253.561272 123.078047 
L 255.862844 114.155382 
L 257.013845 110.407352 
L 258.166234 107.424568 
L 259.316508 105.098247 
L 260.467015 103.563714 
L 261.618003 102.691232 
L 262.771218 102.417661 
L 263.922516 102.422883 
L 268.52757 103.334264 
L 270.830311 103.647366 
L 271.980764 104.325005 
L 273.132045 105.723122 
L 274.286191 107.966012 
L 275.438897 110.795353 
L 277.750118 117.541799 
L 278.903072 120.741345 
L 280.07081 123.549908 
L 281.229099 125.428237 
L 282.386058 126.756315 
L 283.537176 127.513229 
L 284.699066 128.045248 
L 287.016683 128.536579 
L 288.167013 128.990594 
L 289.319719 129.728402 
L 290.478683 130.804836 
L 291.629607 132.177601 
L 292.784822 134.029227 
L 293.936205 136.267191 
L 296.238208 141.694485 
L 299.692285 150.961252 
L 303.145647 160.135368 
L 305.448125 165.459242 
L 306.597903 167.685749 
L 307.748185 169.489845 
L 310.055874 171.90199 
L 312.387835 172.38927 
L 313.53072 173.322668 
L 314.673707 173.204188 
L 315.829914 172.433298 
L 319.29244 170.481363 
L 320.442807 169.612742 
L 321.593258 168.940801 
L 322.744099 168.503306 
L 323.895395 168.318232 
L 325.046862 168.328978 
L 327.348194 168.539175 
L 328.498437 168.486299 
L 330.806351 167.664196 
L 331.957523 166.867229 
L 333.108122 165.913901 
L 334.263679 164.692667 
L 340.019442 159.449013 
L 341.169833 158.269719 
L 342.323288 156.771596 
L 343.474447 155.051997 
L 345.776776 150.653791 
L 348.085828 146.08901 
L 349.237435 144.199768 
L 350.387043 142.637602 
L 351.537928 141.407556 
L 352.688799 140.459831 
L 354.992051 138.87644 
L 356.142946 137.94947 
L 357.294249 136.757407 
L 358.449782 135.269628 
L 360.750022 131.497642 
L 363.05246 127.811955 
L 364.203168 126.525213 
L 365.35362 125.773681 
L 366.504699 125.635537 
L 367.655904 125.979706 
L 368.807386 126.653192 
L 378.020439 133.304527 
L 384.925879 139.47299 
L 387.229325 141.089643 
L 390.679041 143.440791 
L 394.130901 146.136068 
L 395.281113 146.844922 
L 396.425952 147.298293 
L 397.570046 147.350575 
L 398.719778 146.983258 
L 402.178168 145.030478 
L 403.331191 144.70257 
L 404.480947 144.852028 
L 405.631166 145.518478 
L 406.790146 146.66472 
L 409.102529 150.231694 
L 411.408498 154.276488 
L 412.558494 155.95475 
L 413.70896 157.261755 
L 414.85922 158.208353 
L 416.0102 158.865083 
L 418.314 159.915074 
L 419.465072 160.643761 
L 420.615766 161.636305 
L 421.770183 162.878911 
L 424.07393 166.440557 
L 428.683763 174.612479 
L 429.834254 176.314592 
L 432.139984 178.902189 
L 434.448007 180.540386 
L 435.598536 180.878419 
L 436.749809 180.849797 
L 437.901153 180.514714 
L 439.058815 179.630619 
L 440.209816 178.942865 
L 441.359945 177.816684 
L 442.52086 176.14952 
L 443.672699 175.062917 
L 444.834024 173.327889 
L 445.985227 172.196634 
L 448.300909 168.966848 
L 449.453654 167.362437 
L 450.603758 165.486332 
L 452.904213 160.932966 
L 456.355293 153.426196 
L 457.50717 151.275147 
L 458.657081 149.603457 
L 459.806587 148.41661 
L 460.95663 147.764607 
L 462.107082 147.582331 
L 463.25714 147.779746 
L 464.407352 148.228589 
L 465.557108 148.85827 
L 467.857586 150.520731 
L 469.007528 151.584674 
L 469.007528 151.584674 
" style="fill:none;stroke:#ff7f0e;stroke-linecap:square;stroke-width:1.5;"/>
   </g>
   <g id="line2d_33">
    <path clip-path="url(#p2cebc01813)" d="M 67.061542 159.70302 
L 68.213823 161.801567 
L 69.362641 163.647715 
L 70.512513 165.022207 
L 71.663779 165.95918 
L 72.813355 166.502449 
L 73.966643 166.422778 
L 75.118544 165.979585 
L 76.269027 165.039871 
L 77.418504 163.625181 
L 78.567733 161.774086 
L 79.716837 159.566415 
L 82.015519 154.393063 
L 90.063747 135.217989 
L 91.213052 132.766548 
L 92.363613 130.599811 
L 93.512447 128.833185 
L 94.662799 127.631306 
L 95.81278 127.06188 
L 96.964029 127.210911 
L 98.113576 128.058776 
L 99.264345 129.591281 
L 100.417153 131.678149 
L 102.718352 136.806039 
L 105.017708 141.866287 
L 106.166697 143.874734 
L 107.317064 145.309342 
L 108.466781 146.152415 
L 109.617659 146.391249 
L 110.766927 146.144658 
L 111.917728 145.486228 
L 113.066988 144.588645 
L 115.374227 142.345965 
L 117.674026 139.853015 
L 118.824858 138.414526 
L 119.973644 136.796779 
L 122.273 132.952756 
L 125.722623 126.655762 
L 126.873176 124.939223 
L 128.023521 123.645187 
L 129.173687 122.86645 
L 130.325944 122.678445 
L 131.475404 122.992363 
L 132.62482 123.868451 
L 133.775892 125.243762 
L 134.92718 127.002484 
L 137.227079 131.32859 
L 146.416549 150.172811 
L 148.714239 154.587911 
L 151.014279 158.398851 
L 152.164304 159.932656 
L 154.468872 162.226345 
L 156.768298 163.838597 
L 160.221204 165.859072 
L 162.522604 166.938203 
L 163.673274 167.276909 
L 164.822047 167.477642 
L 165.972538 167.348286 
L 167.121658 167.065489 
L 169.423616 165.787695 
L 171.722887 164.109879 
L 174.024289 162.353919 
L 176.326191 161.021554 
L 177.477457 160.608142 
L 179.783458 160.116977 
L 182.097622 160.079386 
L 184.412769 160.217359 
L 185.565785 160.604558 
L 186.726041 160.839925 
L 187.876269 161.608824 
L 189.048413 161.87194 
L 191.358007 164.087963 
L 192.517707 164.688836 
L 193.668353 165.516836 
L 194.822972 165.706427 
L 195.9733 165.683738 
L 197.123729 165.064148 
L 198.278899 163.823827 
L 199.432395 162.226657 
L 200.588377 160.066578 
L 202.895043 154.874122 
L 205.199967 149.181022 
L 206.351505 146.623939 
L 207.502599 144.346387 
L 208.654834 142.354041 
L 210.962453 138.941903 
L 215.577057 132.598057 
L 216.730794 131.256337 
L 217.88518 130.213499 
L 219.039225 129.531336 
L 220.189167 129.224734 
L 221.343507 129.388728 
L 222.500078 129.937204 
L 223.65091 130.801702 
L 225.957522 133.329485 
L 227.111079 134.66044 
L 228.256607 135.801259 
L 229.400524 136.614516 
L 230.543634 137.008605 
L 231.696665 136.986398 
L 232.846676 136.649882 
L 235.149462 135.647285 
L 236.29987 135.287132 
L 237.450081 135.127184 
L 238.606102 135.193268 
L 239.757019 135.429212 
L 242.057383 136.210035 
L 248.959539 138.820691 
L 250.109248 139.094003 
L 251.259608 139.171474 
L 252.409998 138.97098 
L 253.561272 138.420652 
L 254.711522 137.476602 
L 255.862844 136.11869 
L 257.013845 134.367914 
L 259.316508 130.007398 
L 261.618003 125.316882 
L 263.922516 121.226322 
L 265.073006 119.586044 
L 266.224885 118.285981 
L 267.376685 117.23709 
L 268.52757 116.378354 
L 271.980764 114.347214 
L 273.132045 113.770943 
L 274.286191 113.356155 
L 275.438897 113.086815 
L 277.750118 113.624077 
L 278.903072 114.487549 
L 280.07081 115.91276 
L 281.229099 117.088223 
L 284.699066 121.144173 
L 285.862537 122.258481 
L 289.319719 124.955438 
L 291.629607 127.006284 
L 293.936205 129.690413 
L 295.086719 131.354452 
L 296.238208 133.264746 
L 298.54026 137.727436 
L 300.843146 142.784872 
L 304.297526 150.84681 
L 310.055874 164.592039 
L 312.387835 168.451788 
L 313.53072 170.868947 
L 314.673707 172.22126 
L 318.143295 174.002649 
L 319.29244 174.387082 
L 321.593258 174.192003 
L 325.046862 173.457261 
L 328.498437 173.138854 
L 329.655929 172.749762 
L 330.806351 172.660855 
L 331.957523 172.108831 
L 333.108122 171.329422 
L 335.415222 168.91415 
L 337.716251 165.850849 
L 340.019442 162.658992 
L 346.931055 153.398326 
L 354.992051 141.645644 
L 357.294249 139.147476 
L 361.902271 134.852868 
L 364.203168 132.177571 
L 367.655904 127.897484 
L 368.807386 126.760351 
L 369.959094 125.896946 
L 371.111885 125.346917 
L 372.262469 125.071884 
L 373.413471 125.122895 
L 374.564056 125.439728 
L 375.715678 126.028292 
L 376.866486 126.826642 
L 379.174284 129.011635 
L 381.476001 131.641085 
L 384.925879 136.031708 
L 391.828447 145.379334 
L 394.130901 147.784447 
L 396.425952 149.653753 
L 397.570046 150.286972 
L 398.719778 150.615872 
L 401.026538 150.601649 
L 402.178168 150.161973 
L 405.631166 148.411557 
L 406.790146 147.949701 
L 407.944099 147.870027 
L 409.102529 147.96347 
L 410.257402 148.375499 
L 412.558494 149.702943 
L 421.770183 155.996213 
L 424.07393 157.949765 
L 425.226976 159.194322 
L 427.532892 162.186074 
L 432.139984 169.130329 
L 433.29726 170.679767 
L 434.448007 172.482151 
L 435.598536 173.980129 
L 436.749809 175.279395 
L 437.901153 176.383442 
L 439.058815 177.00643 
L 440.209816 177.784563 
L 441.359945 178.0528 
L 442.52086 177.599304 
L 443.672699 177.563939 
L 444.834024 176.627771 
L 445.985227 176.156007 
L 448.300909 173.822726 
L 449.453654 172.689587 
L 450.603758 171.374773 
L 452.904213 168.207992 
L 456.355293 162.544948 
L 458.657081 158.690118 
L 460.95663 155.400027 
L 462.107082 154.095093 
L 463.25714 153.07127 
L 464.407352 152.313215 
L 465.557108 151.828784 
L 466.707096 151.585766 
L 467.857586 151.57353 
L 469.007528 151.79719 
L 469.007528 151.79719 
" style="fill:none;stroke:#2ca02c;stroke-linecap:square;stroke-width:1.5;"/>
   </g>
   <g id="line2d_34">
    <path clip-path="url(#p2cebc01813)" d="M 63.189347 155.438664 
L 70.933737 157.226651 
L 78.678128 156.609753 
L 86.422519 153.120192 
L 94.16691 147.88247 
L 101.9113 143.102434 
L 109.655691 142.01826 
L 117.400082 147.411073 
L 125.144473 159.432793 
L 132.888863 175.0907 
L 140.633254 190.456527 
L 148.377645 203.030552 
L 156.122036 211.737488 
L 163.866427 215.866591 
L 171.610817 214.997412 
L 179.355208 209.171718 
L 187.099599 199.235357 
L 194.84399 186.770872 
L 202.58838 172.554474 
L 210.332771 154.07774 
L 218.077162 127.307181 
L 225.821553 93.110068 
L 233.565943 60.111344 
L 241.310334 39.421221 
L 249.054725 36.861106 
L 256.799116 49.743524 
L 264.543506 70.20977 
L 272.287897 91.406811 
L 280.032288 111.127978 
L 287.776679 129.500086 
L 295.52107 145.595723 
L 303.26546 158.495851 
L 311.009851 168.506027 
L 318.754242 175.250623 
L 326.498633 176.396925 
L 334.243023 170.69507 
L 341.987414 160.293116 
L 349.731805 148.328296 
L 357.476196 136.026285 
L 365.220586 124.505145 
L 372.964977 117.129804 
L 380.709368 117.964832 
L 388.453759 127.508809 
L 396.198149 141.800037 
L 403.94254 155.430194 
L 411.686931 165.253659 
L 419.431322 170.879081 
L 427.175713 173.191175 
L 434.920103 173.006184 
L 442.664494 171.18176 
L 450.408885 168.765276 
L 458.153276 167.000267 
" style="fill:none;stroke:#d62728;stroke-linecap:square;stroke-width:1.5;"/>
   </g>
   <g id="line2d_35">
    <path clip-path="url(#p2cebc01813)" d="M 63.189347 152.355958 
L 70.933737 153.274218 
L 78.678128 151.594359 
L 86.422519 148.303777 
L 94.16691 144.892493 
L 101.9113 141.416296 
L 109.655691 138.994869 
L 117.400082 138.949148 
L 125.144473 141.382383 
L 132.888863 145.239355 
L 140.633254 150.053332 
L 148.377645 154.285284 
L 156.122036 155.761236 
L 163.866427 154.076894 
L 171.610817 151.0333 
L 179.355208 148.002916 
L 187.099599 146.494426 
L 194.84399 146.887691 
L 202.58838 148.376791 
L 210.332771 149.497644 
L 218.077162 150.054554 
L 225.821553 148.856549 
L 233.565943 142.779526 
L 241.310334 131.360659 
L 249.054725 119.557906 
L 256.799116 113.552028 
L 264.543506 115.747752 
L 272.287897 124.304898 
L 280.032288 136.26016 
L 287.776679 148.751883 
L 295.52107 159.177929 
L 303.26546 166.347697 
L 311.009851 169.953964 
L 318.754242 169.878861 
L 326.498633 164.788159 
L 334.243023 154.976078 
L 341.987414 143.582567 
L 349.731805 134.420191 
L 357.476196 128.948644 
L 365.220586 126.148215 
L 372.964977 125.330693 
L 380.709368 127.425875 
L 388.453759 132.957851 
L 396.198149 139.338376 
L 403.94254 142.482789 
L 411.686931 142.047145 
L 419.431322 141.321688 
L 427.175713 142.000482 
L 434.920103 143.051177 
L 442.664494 143.736721 
L 450.408885 144.607295 
L 458.153276 145.546959 
" style="fill:none;stroke:#9467bd;stroke-linecap:square;stroke-width:1.5;"/>
   </g>
   <g id="patch_3">
    <path d="M 42.898438 232.336254 
L 42.898438 10.576254 
" style="fill:none;stroke:#000000;stroke-linecap:square;stroke-linejoin:miter;stroke-width:0.8;"/>
   </g>
   <g id="patch_4">
    <path d="M 489.298437 232.336254 
L 489.298437 10.576254 
" style="fill:none;stroke:#000000;stroke-linecap:square;stroke-linejoin:miter;stroke-width:0.8;"/>
   </g>
   <g id="patch_5">
    <path d="M 42.898438 232.336254 
L 489.298437 232.336254 
" style="fill:none;stroke:#000000;stroke-linecap:square;stroke-linejoin:miter;stroke-width:0.8;"/>
   </g>
   <g id="patch_6">
    <path d="M 42.898438 10.576254 
L 489.298437 10.576254 
" style="fill:none;stroke:#000000;stroke-linecap:square;stroke-linejoin:miter;stroke-width:0.8;"/>
   </g>
   <g id="legend_1">
    <g id="patch_7">
     <path d="M 333.925 91.966879 
L 482.298437 91.966879 
Q 484.298437 91.966879 484.298437 89.966879 
L 484.298437 17.576254 
Q 484.298437 15.576254 482.298437 15.576254 
L 333.925 15.576254 
Q 331.925 15.576254 331.925 17.576254 
L 331.925 89.966879 
Q 331.925 91.966879 333.925 91.966879 
z
" style="fill:#ffffff;opacity:0.8;stroke:#cccccc;stroke-linejoin:miter;"/>
    </g>
    <g id="line2d_36">
     <path d="M 335.925 23.674691 
L 355.925 23.674691 
" style="fill:none;stroke:#1f77b4;stroke-linecap:square;stroke-width:1.5;"/>
    </g>
    <g id="line2d_37"/>
    <g id="text_18">
     <!-- Unkompensiert (Druck) -->
     <g transform="translate(363.925 27.174691)scale(0.1 -0.1)">
      <defs>
       <path d="M 556 4666 
L 1191 4666 
L 1191 1831 
Q 1191 1081 1462 751 
Q 1734 422 2344 422 
Q 2950 422 3222 751 
Q 3494 1081 3494 1831 
L 3494 4666 
L 4128 4666 
L 4128 1753 
Q 4128 841 3676 375 
Q 3225 -91 2344 -91 
Q 1459 -91 1007 375 
Q 556 841 556 1753 
L 556 4666 
z
" id="DejaVuSans-55" transform="scale(0.015625)"/>
       <path d="M 1159 525 
L 1159 -1331 
L 581 -1331 
L 581 3500 
L 1159 3500 
L 1159 2969 
Q 1341 3281 1617 3432 
Q 1894 3584 2278 3584 
Q 2916 3584 3314 3078 
Q 3713 2572 3713 1747 
Q 3713 922 3314 415 
Q 2916 -91 2278 -91 
Q 1894 -91 1617 61 
Q 1341 213 1159 525 
z
M 3116 1747 
Q 3116 2381 2855 2742 
Q 2594 3103 2138 3103 
Q 1681 3103 1420 2742 
Q 1159 2381 1159 1747 
Q 1159 1113 1420 752 
Q 1681 391 2138 391 
Q 2594 391 2855 752 
Q 3116 1113 3116 1747 
z
" id="DejaVuSans-70" transform="scale(0.015625)"/>
       <path d="M 1259 4147 
L 1259 519 
L 2022 519 
Q 2988 519 3436 956 
Q 3884 1394 3884 2338 
Q 3884 3275 3436 3711 
Q 2988 4147 2022 4147 
L 1259 4147 
z
M 628 4666 
L 1925 4666 
Q 3281 4666 3915 4102 
Q 4550 3538 4550 2338 
Q 4550 1131 3912 565 
Q 3275 0 1925 0 
L 628 0 
L 628 4666 
z
" id="DejaVuSans-44" transform="scale(0.015625)"/>
       <path d="M 544 1381 
L 544 3500 
L 1119 3500 
L 1119 1403 
Q 1119 906 1312 657 
Q 1506 409 1894 409 
Q 2359 409 2629 706 
Q 2900 1003 2900 1516 
L 2900 3500 
L 3475 3500 
L 3475 0 
L 2900 0 
L 2900 538 
Q 2691 219 2414 64 
Q 2138 -91 1772 -91 
Q 1169 -91 856 284 
Q 544 659 544 1381 
z
M 1991 3584 
L 1991 3584 
z
" id="DejaVuSans-75" transform="scale(0.015625)"/>
      </defs>
      <use xlink:href="#DejaVuSans-55"/>
      <use x="73.193359" xlink:href="#DejaVuSans-6e"/>
      <use x="136.572266" xlink:href="#DejaVuSans-6b"/>
      <use x="190.857422" xlink:href="#DejaVuSans-6f"/>
      <use x="252.039062" xlink:href="#DejaVuSans-6d"/>
      <use x="349.451172" xlink:href="#DejaVuSans-70"/>
      <use x="412.927734" xlink:href="#DejaVuSans-65"/>
      <use x="474.451172" xlink:href="#DejaVuSans-6e"/>
      <use x="537.830078" xlink:href="#DejaVuSans-73"/>
      <use x="589.929688" xlink:href="#DejaVuSans-69"/>
      <use x="617.712891" xlink:href="#DejaVuSans-65"/>
      <use x="679.236328" xlink:href="#DejaVuSans-72"/>
      <use x="720.349609" xlink:href="#DejaVuSans-74"/>
      <use x="759.558594" xlink:href="#DejaVuSans-20"/>
      <use x="791.345703" xlink:href="#DejaVuSans-28"/>
      <use x="830.359375" xlink:href="#DejaVuSans-44"/>
      <use x="907.361328" xlink:href="#DejaVuSans-72"/>
      <use x="948.474609" xlink:href="#DejaVuSans-75"/>
      <use x="1011.853516" xlink:href="#DejaVuSans-63"/>
      <use x="1066.833984" xlink:href="#DejaVuSans-6b"/>
      <use x="1124.744141" xlink:href="#DejaVuSans-29"/>
     </g>
    </g>
    <g id="line2d_38">
     <path d="M 335.925 38.352816 
L 355.925 38.352816 
" style="fill:none;stroke:#ff7f0e;stroke-linecap:square;stroke-width:1.5;"/>
    </g>
    <g id="line2d_39"/>
    <g id="text_19">
     <!-- Statisch-Stau -->
     <g transform="translate(363.925 41.852816)scale(0.1 -0.1)">
      <defs>
       <path d="M 3425 4513 
L 3425 3897 
Q 3066 4069 2747 4153 
Q 2428 4238 2131 4238 
Q 1616 4238 1336 4038 
Q 1056 3838 1056 3469 
Q 1056 3159 1242 3001 
Q 1428 2844 1947 2747 
L 2328 2669 
Q 3034 2534 3370 2195 
Q 3706 1856 3706 1288 
Q 3706 609 3251 259 
Q 2797 -91 1919 -91 
Q 1588 -91 1214 -16 
Q 841 59 441 206 
L 441 856 
Q 825 641 1194 531 
Q 1563 422 1919 422 
Q 2459 422 2753 634 
Q 3047 847 3047 1241 
Q 3047 1584 2836 1778 
Q 2625 1972 2144 2069 
L 1759 2144 
Q 1053 2284 737 2584 
Q 422 2884 422 3419 
Q 422 4038 858 4394 
Q 1294 4750 2059 4750 
Q 2388 4750 2728 4690 
Q 3069 4631 3425 4513 
z
" id="DejaVuSans-53" transform="scale(0.015625)"/>
       <path d="M 313 2009 
L 1997 2009 
L 1997 1497 
L 313 1497 
L 313 2009 
z
" id="DejaVuSans-2d" transform="scale(0.015625)"/>
      </defs>
      <use xlink:href="#DejaVuSans-53"/>
      <use x="63.476562" xlink:href="#DejaVuSans-74"/>
      <use x="102.685547" xlink:href="#DejaVuSans-61"/>
      <use x="163.964844" xlink:href="#DejaVuSans-74"/>
      <use x="203.173828" xlink:href="#DejaVuSans-69"/>
      <use x="230.957031" xlink:href="#DejaVuSans-73"/>
      <use x="283.056641" xlink:href="#DejaVuSans-63"/>
      <use x="338.037109" xlink:href="#DejaVuSans-68"/>
      <use x="401.416016" xlink:href="#DejaVuSans-2d"/>
      <use x="437.5" xlink:href="#DejaVuSans-53"/>
      <use x="500.976562" xlink:href="#DejaVuSans-74"/>
      <use x="540.185547" xlink:href="#DejaVuSans-61"/>
      <use x="601.464844" xlink:href="#DejaVuSans-75"/>
     </g>
    </g>
    <g id="line2d_40">
     <path d="M 335.925 53.030941 
L 355.925 53.030941 
" style="fill:none;stroke:#2ca02c;stroke-linecap:square;stroke-width:1.5;"/>
    </g>
    <g id="line2d_41"/>
    <g id="text_20">
     <!-- Düse -->
     <g transform="translate(363.925 56.530941)scale(0.1 -0.1)">
      <defs>
       <path d="M 544 1381 
L 544 3500 
L 1119 3500 
L 1119 1403 
Q 1119 906 1312 657 
Q 1506 409 1894 409 
Q 2359 409 2629 706 
Q 2900 1003 2900 1516 
L 2900 3500 
L 3475 3500 
L 3475 0 
L 2900 0 
L 2900 538 
Q 2691 219 2414 64 
Q 2138 -91 1772 -91 
Q 1169 -91 856 284 
Q 544 659 544 1381 
z
M 1991 3584 
L 1991 3584 
z
M 2278 4850 
L 2912 4850 
L 2912 4219 
L 2278 4219 
L 2278 4850 
z
M 1056 4850 
L 1690 4850 
L 1690 4219 
L 1056 4219 
L 1056 4850 
z
" id="DejaVuSans-fc" transform="scale(0.015625)"/>
      </defs>
      <use xlink:href="#DejaVuSans-44"/>
      <use x="77.001953" xlink:href="#DejaVuSans-fc"/>
      <use x="140.380859" xlink:href="#DejaVuSans-73"/>
      <use x="192.480469" xlink:href="#DejaVuSans-65"/>
     </g>
    </g>
    <g id="line2d_42">
     <path d="M 335.925 67.709066 
L 355.925 67.709066 
" style="fill:none;stroke:#d62728;stroke-linecap:square;stroke-width:1.5;"/>
    </g>
    <g id="line2d_43"/>
    <g id="text_21">
     <!-- Unkompensiert (GPS) -->
     <g transform="translate(363.925 71.209066)scale(0.1 -0.1)">
      <defs>
       <path d="M 1259 4147 
L 1259 2394 
L 2053 2394 
Q 2494 2394 2734 2622 
Q 2975 2850 2975 3272 
Q 2975 3691 2734 3919 
Q 2494 4147 2053 4147 
L 1259 4147 
z
M 628 4666 
L 2053 4666 
Q 2838 4666 3239 4311 
Q 3641 3956 3641 3272 
Q 3641 2581 3239 2228 
Q 2838 1875 2053 1875 
L 1259 1875 
L 1259 0 
L 628 0 
L 628 4666 
z
" id="DejaVuSans-50" transform="scale(0.015625)"/>
      </defs>
      <use xlink:href="#DejaVuSans-55"/>
      <use x="73.193359" xlink:href="#DejaVuSans-6e"/>
      <use x="136.572266" xlink:href="#DejaVuSans-6b"/>
      <use x="190.857422" xlink:href="#DejaVuSans-6f"/>
      <use x="252.039062" xlink:href="#DejaVuSans-6d"/>
      <use x="349.451172" xlink:href="#DejaVuSans-70"/>
      <use x="412.927734" xlink:href="#DejaVuSans-65"/>
      <use x="474.451172" xlink:href="#DejaVuSans-6e"/>
      <use x="537.830078" xlink:href="#DejaVuSans-73"/>
      <use x="589.929688" xlink:href="#DejaVuSans-69"/>
      <use x="617.712891" xlink:href="#DejaVuSans-65"/>
      <use x="679.236328" xlink:href="#DejaVuSans-72"/>
      <use x="720.349609" xlink:href="#DejaVuSans-74"/>
      <use x="759.558594" xlink:href="#DejaVuSans-20"/>
      <use x="791.345703" xlink:href="#DejaVuSans-28"/>
      <use x="830.359375" xlink:href="#DejaVuSans-47"/>
      <use x="907.849609" xlink:href="#DejaVuSans-50"/>
      <use x="968.152344" xlink:href="#DejaVuSans-53"/>
      <use x="1031.628906" xlink:href="#DejaVuSans-29"/>
     </g>
    </g>
    <g id="line2d_44">
     <path d="M 335.925 82.387191 
L 355.925 82.387191 
" style="fill:none;stroke:#9467bd;stroke-linecap:square;stroke-width:1.5;"/>
    </g>
    <g id="line2d_45"/>
    <g id="text_22">
     <!-- GPS Kompensiert -->
     <g transform="translate(363.925 85.887191)scale(0.1 -0.1)">
      <defs>
       <path d="M 628 4666 
L 1259 4666 
L 1259 2694 
L 3353 4666 
L 4166 4666 
L 1850 2491 
L 4331 0 
L 3500 0 
L 1259 2247 
L 1259 0 
L 628 0 
L 628 4666 
z
" id="DejaVuSans-4b" transform="scale(0.015625)"/>
      </defs>
      <use xlink:href="#DejaVuSans-47"/>
      <use x="77.490234" xlink:href="#DejaVuSans-50"/>
      <use x="137.792969" xlink:href="#DejaVuSans-53"/>
      <use x="201.269531" xlink:href="#DejaVuSans-20"/>
      <use x="233.056641" xlink:href="#DejaVuSans-4b"/>
      <use x="293.632812" xlink:href="#DejaVuSans-6f"/>
      <use x="354.814453" xlink:href="#DejaVuSans-6d"/>
      <use x="452.226562" xlink:href="#DejaVuSans-70"/>
      <use x="515.703125" xlink:href="#DejaVuSans-65"/>
      <use x="577.226562" xlink:href="#DejaVuSans-6e"/>
      <use x="640.605469" xlink:href="#DejaVuSans-73"/>
      <use x="692.705078" xlink:href="#DejaVuSans-69"/>
      <use x="720.488281" xlink:href="#DejaVuSans-65"/>
      <use x="782.011719" xlink:href="#DejaVuSans-72"/>
      <use x="823.125" xlink:href="#DejaVuSans-74"/>
     </g>
    </g>
   </g>
  </g>
 </g>
 <defs>
  <clipPath id="p2cebc01813">
   <rect height="221.76" width="446.4" x="42.898438" y="10.576254"/>
  </clipPath>
 </defs>
</svg>
