<?xml version="1.0" encoding="utf-8" standalone="no"?>
<!DOCTYPE svg PUBLIC "-//W3C//DTD SVG 1.1//EN"
  "http://www.w3.org/Graphics/SVG/1.1/DTD/svg11.dtd">
<svg height="277.314375pt" version="1.1" viewBox="0 0 494.203125 277.314375" width="494.203125pt" xmlns="http://www.w3.org/2000/svg" xmlns:xlink="http://www.w3.org/1999/xlink">
 <metadata>
  <rdf:RDF xmlns:cc="http://creativecommons.org/ns#" xmlns:dc="http://purl.org/dc/elements/1.1/" xmlns:rdf="http://www.w3.org/1999/02/22-rdf-syntax-ns#">
   <cc:Work>
    <dc:type rdf:resource="http://purl.org/dc/dcmitype/StillImage"/>
    <dc:date>2023-05-19T15:58:05.194865</dc:date>
    <dc:format>image/svg+xml</dc:format>
    <dc:creator>
     <cc:Agent>
      <dc:title>Matplotlib v3.4.3, https://matplotlib.org/</dc:title>
     </cc:Agent>
    </dc:creator>
   </cc:Work>
  </rdf:RDF>
 </metadata>
 <defs>
  <style type="text/css">*{stroke-linecap:butt;stroke-linejoin:round;}</style>
 </defs>
 <g id="figure_1">
  <g id="patch_1">
   <path d="M 0 277.314375 
L 494.203125 277.314375 
L 494.203125 0 
L 0 0 
z
" style="fill:none;"/>
  </g>
  <g id="axes_1">
   <g id="patch_2">
    <path d="M 40.603125 239.758125 
L 487.003125 239.758125 
L 487.003125 22.318125 
L 40.603125 22.318125 
z
" style="fill:#ffffff;"/>
   </g>
   <g id="matplotlib.axis_1">
    <g id="xtick_1">
     <g id="line2d_1">
      <path clip-path="url(#pc0bba47787)" d="M 60.894034 239.758125 
L 60.894034 22.318125 
" style="fill:none;stroke:#b0b0b0;stroke-linecap:square;stroke-width:0.8;"/>
     </g>
     <g id="line2d_2">
      <defs>
       <path d="M 0 0 
L 0 3.5 
" id="m6ee447d0d1" style="stroke:#000000;stroke-width:0.8;"/>
      </defs>
      <g>
       <use style="stroke:#000000;stroke-width:0.8;" x="60.894034" xlink:href="#m6ee447d0d1" y="239.758125"/>
      </g>
     </g>
     <g id="text_1">
      <!-- 0 -->
      <g transform="translate(57.712784 254.356562)scale(0.1 -0.1)">
       <defs>
        <path d="M 2034 4250 
Q 1547 4250 1301 3770 
Q 1056 3291 1056 2328 
Q 1056 1369 1301 889 
Q 1547 409 2034 409 
Q 2525 409 2770 889 
Q 3016 1369 3016 2328 
Q 3016 3291 2770 3770 
Q 2525 4250 2034 4250 
z
M 2034 4750 
Q 2819 4750 3233 4129 
Q 3647 3509 3647 2328 
Q 3647 1150 3233 529 
Q 2819 -91 2034 -91 
Q 1250 -91 836 529 
Q 422 1150 422 2328 
Q 422 3509 836 4129 
Q 1250 4750 2034 4750 
z
" id="DejaVuSans-30" transform="scale(0.015625)"/>
       </defs>
       <use xlink:href="#DejaVuSans-30"/>
      </g>
     </g>
    </g>
    <g id="xtick_2">
     <g id="line2d_3">
      <path clip-path="url(#pc0bba47787)" d="M 139.084007 239.758125 
L 139.084007 22.318125 
" style="fill:none;stroke:#b0b0b0;stroke-linecap:square;stroke-width:0.8;"/>
     </g>
     <g id="line2d_4">
      <g>
       <use style="stroke:#000000;stroke-width:0.8;" x="139.084007" xlink:href="#m6ee447d0d1" y="239.758125"/>
      </g>
     </g>
     <g id="text_2">
      <!-- 10 -->
      <g transform="translate(132.721507 254.356562)scale(0.1 -0.1)">
       <defs>
        <path d="M 794 531 
L 1825 531 
L 1825 4091 
L 703 3866 
L 703 4441 
L 1819 4666 
L 2450 4666 
L 2450 531 
L 3481 531 
L 3481 0 
L 794 0 
L 794 531 
z
" id="DejaVuSans-31" transform="scale(0.015625)"/>
       </defs>
       <use xlink:href="#DejaVuSans-31"/>
       <use x="63.623047" xlink:href="#DejaVuSans-30"/>
      </g>
     </g>
    </g>
    <g id="xtick_3">
     <g id="line2d_5">
      <path clip-path="url(#pc0bba47787)" d="M 217.27398 239.758125 
L 217.27398 22.318125 
" style="fill:none;stroke:#b0b0b0;stroke-linecap:square;stroke-width:0.8;"/>
     </g>
     <g id="line2d_6">
      <g>
       <use style="stroke:#000000;stroke-width:0.8;" x="217.27398" xlink:href="#m6ee447d0d1" y="239.758125"/>
      </g>
     </g>
     <g id="text_3">
      <!-- 20 -->
      <g transform="translate(210.91148 254.356562)scale(0.1 -0.1)">
       <defs>
        <path d="M 1228 531 
L 3431 531 
L 3431 0 
L 469 0 
L 469 531 
Q 828 903 1448 1529 
Q 2069 2156 2228 2338 
Q 2531 2678 2651 2914 
Q 2772 3150 2772 3378 
Q 2772 3750 2511 3984 
Q 2250 4219 1831 4219 
Q 1534 4219 1204 4116 
Q 875 4013 500 3803 
L 500 4441 
Q 881 4594 1212 4672 
Q 1544 4750 1819 4750 
Q 2544 4750 2975 4387 
Q 3406 4025 3406 3419 
Q 3406 3131 3298 2873 
Q 3191 2616 2906 2266 
Q 2828 2175 2409 1742 
Q 1991 1309 1228 531 
z
" id="DejaVuSans-32" transform="scale(0.015625)"/>
       </defs>
       <use xlink:href="#DejaVuSans-32"/>
       <use x="63.623047" xlink:href="#DejaVuSans-30"/>
      </g>
     </g>
    </g>
    <g id="xtick_4">
     <g id="line2d_7">
      <path clip-path="url(#pc0bba47787)" d="M 295.463953 239.758125 
L 295.463953 22.318125 
" style="fill:none;stroke:#b0b0b0;stroke-linecap:square;stroke-width:0.8;"/>
     </g>
     <g id="line2d_8">
      <g>
       <use style="stroke:#000000;stroke-width:0.8;" x="295.463953" xlink:href="#m6ee447d0d1" y="239.758125"/>
      </g>
     </g>
     <g id="text_4">
      <!-- 30 -->
      <g transform="translate(289.101453 254.356562)scale(0.1 -0.1)">
       <defs>
        <path d="M 2597 2516 
Q 3050 2419 3304 2112 
Q 3559 1806 3559 1356 
Q 3559 666 3084 287 
Q 2609 -91 1734 -91 
Q 1441 -91 1130 -33 
Q 819 25 488 141 
L 488 750 
Q 750 597 1062 519 
Q 1375 441 1716 441 
Q 2309 441 2620 675 
Q 2931 909 2931 1356 
Q 2931 1769 2642 2001 
Q 2353 2234 1838 2234 
L 1294 2234 
L 1294 2753 
L 1863 2753 
Q 2328 2753 2575 2939 
Q 2822 3125 2822 3475 
Q 2822 3834 2567 4026 
Q 2313 4219 1838 4219 
Q 1578 4219 1281 4162 
Q 984 4106 628 3988 
L 628 4550 
Q 988 4650 1302 4700 
Q 1616 4750 1894 4750 
Q 2613 4750 3031 4423 
Q 3450 4097 3450 3541 
Q 3450 3153 3228 2886 
Q 3006 2619 2597 2516 
z
" id="DejaVuSans-33" transform="scale(0.015625)"/>
       </defs>
       <use xlink:href="#DejaVuSans-33"/>
       <use x="63.623047" xlink:href="#DejaVuSans-30"/>
      </g>
     </g>
    </g>
    <g id="xtick_5">
     <g id="line2d_9">
      <path clip-path="url(#pc0bba47787)" d="M 373.653926 239.758125 
L 373.653926 22.318125 
" style="fill:none;stroke:#b0b0b0;stroke-linecap:square;stroke-width:0.8;"/>
     </g>
     <g id="line2d_10">
      <g>
       <use style="stroke:#000000;stroke-width:0.8;" x="373.653926" xlink:href="#m6ee447d0d1" y="239.758125"/>
      </g>
     </g>
     <g id="text_5">
      <!-- 40 -->
      <g transform="translate(367.291426 254.356562)scale(0.1 -0.1)">
       <defs>
        <path d="M 2419 4116 
L 825 1625 
L 2419 1625 
L 2419 4116 
z
M 2253 4666 
L 3047 4666 
L 3047 1625 
L 3713 1625 
L 3713 1100 
L 3047 1100 
L 3047 0 
L 2419 0 
L 2419 1100 
L 313 1100 
L 313 1709 
L 2253 4666 
z
" id="DejaVuSans-34" transform="scale(0.015625)"/>
       </defs>
       <use xlink:href="#DejaVuSans-34"/>
       <use x="63.623047" xlink:href="#DejaVuSans-30"/>
      </g>
     </g>
    </g>
    <g id="xtick_6">
     <g id="line2d_11">
      <path clip-path="url(#pc0bba47787)" d="M 451.843899 239.758125 
L 451.843899 22.318125 
" style="fill:none;stroke:#b0b0b0;stroke-linecap:square;stroke-width:0.8;"/>
     </g>
     <g id="line2d_12">
      <g>
       <use style="stroke:#000000;stroke-width:0.8;" x="451.843899" xlink:href="#m6ee447d0d1" y="239.758125"/>
      </g>
     </g>
     <g id="text_6">
      <!-- 50 -->
      <g transform="translate(445.481399 254.356562)scale(0.1 -0.1)">
       <defs>
        <path d="M 691 4666 
L 3169 4666 
L 3169 4134 
L 1269 4134 
L 1269 2991 
Q 1406 3038 1543 3061 
Q 1681 3084 1819 3084 
Q 2600 3084 3056 2656 
Q 3513 2228 3513 1497 
Q 3513 744 3044 326 
Q 2575 -91 1722 -91 
Q 1428 -91 1123 -41 
Q 819 9 494 109 
L 494 744 
Q 775 591 1075 516 
Q 1375 441 1709 441 
Q 2250 441 2565 725 
Q 2881 1009 2881 1497 
Q 2881 1984 2565 2268 
Q 2250 2553 1709 2553 
Q 1456 2553 1204 2497 
Q 953 2441 691 2322 
L 691 4666 
z
" id="DejaVuSans-35" transform="scale(0.015625)"/>
       </defs>
       <use xlink:href="#DejaVuSans-35"/>
       <use x="63.623047" xlink:href="#DejaVuSans-30"/>
      </g>
     </g>
    </g>
    <g id="text_7">
     <!-- Zeit (s) -->
     <g transform="translate(245.857031 268.034687)scale(0.1 -0.1)">
      <defs>
       <path d="M 359 4666 
L 4025 4666 
L 4025 4184 
L 1075 531 
L 4097 531 
L 4097 0 
L 288 0 
L 288 481 
L 3238 4134 
L 359 4134 
L 359 4666 
z
" id="DejaVuSans-5a" transform="scale(0.015625)"/>
       <path d="M 3597 1894 
L 3597 1613 
L 953 1613 
Q 991 1019 1311 708 
Q 1631 397 2203 397 
Q 2534 397 2845 478 
Q 3156 559 3463 722 
L 3463 178 
Q 3153 47 2828 -22 
Q 2503 -91 2169 -91 
Q 1331 -91 842 396 
Q 353 884 353 1716 
Q 353 2575 817 3079 
Q 1281 3584 2069 3584 
Q 2775 3584 3186 3129 
Q 3597 2675 3597 1894 
z
M 3022 2063 
Q 3016 2534 2758 2815 
Q 2500 3097 2075 3097 
Q 1594 3097 1305 2825 
Q 1016 2553 972 2059 
L 3022 2063 
z
" id="DejaVuSans-65" transform="scale(0.015625)"/>
       <path d="M 603 3500 
L 1178 3500 
L 1178 0 
L 603 0 
L 603 3500 
z
M 603 4863 
L 1178 4863 
L 1178 4134 
L 603 4134 
L 603 4863 
z
" id="DejaVuSans-69" transform="scale(0.015625)"/>
       <path d="M 1172 4494 
L 1172 3500 
L 2356 3500 
L 2356 3053 
L 1172 3053 
L 1172 1153 
Q 1172 725 1289 603 
Q 1406 481 1766 481 
L 2356 481 
L 2356 0 
L 1766 0 
Q 1100 0 847 248 
Q 594 497 594 1153 
L 594 3053 
L 172 3053 
L 172 3500 
L 594 3500 
L 594 4494 
L 1172 4494 
z
" id="DejaVuSans-74" transform="scale(0.015625)"/>
       <path id="DejaVuSans-20" transform="scale(0.015625)"/>
       <path d="M 1984 4856 
Q 1566 4138 1362 3434 
Q 1159 2731 1159 2009 
Q 1159 1288 1364 580 
Q 1569 -128 1984 -844 
L 1484 -844 
Q 1016 -109 783 600 
Q 550 1309 550 2009 
Q 550 2706 781 3412 
Q 1013 4119 1484 4856 
L 1984 4856 
z
" id="DejaVuSans-28" transform="scale(0.015625)"/>
       <path d="M 2834 3397 
L 2834 2853 
Q 2591 2978 2328 3040 
Q 2066 3103 1784 3103 
Q 1356 3103 1142 2972 
Q 928 2841 928 2578 
Q 928 2378 1081 2264 
Q 1234 2150 1697 2047 
L 1894 2003 
Q 2506 1872 2764 1633 
Q 3022 1394 3022 966 
Q 3022 478 2636 193 
Q 2250 -91 1575 -91 
Q 1294 -91 989 -36 
Q 684 19 347 128 
L 347 722 
Q 666 556 975 473 
Q 1284 391 1588 391 
Q 1994 391 2212 530 
Q 2431 669 2431 922 
Q 2431 1156 2273 1281 
Q 2116 1406 1581 1522 
L 1381 1569 
Q 847 1681 609 1914 
Q 372 2147 372 2553 
Q 372 3047 722 3315 
Q 1072 3584 1716 3584 
Q 2034 3584 2315 3537 
Q 2597 3491 2834 3397 
z
" id="DejaVuSans-73" transform="scale(0.015625)"/>
       <path d="M 513 4856 
L 1013 4856 
Q 1481 4119 1714 3412 
Q 1947 2706 1947 2009 
Q 1947 1309 1714 600 
Q 1481 -109 1013 -844 
L 513 -844 
Q 928 -128 1133 580 
Q 1338 1288 1338 2009 
Q 1338 2731 1133 3434 
Q 928 4138 513 4856 
z
" id="DejaVuSans-29" transform="scale(0.015625)"/>
      </defs>
      <use xlink:href="#DejaVuSans-5a"/>
      <use x="68.505859" xlink:href="#DejaVuSans-65"/>
      <use x="130.029297" xlink:href="#DejaVuSans-69"/>
      <use x="157.8125" xlink:href="#DejaVuSans-74"/>
      <use x="197.021484" xlink:href="#DejaVuSans-20"/>
      <use x="228.808594" xlink:href="#DejaVuSans-28"/>
      <use x="267.822266" xlink:href="#DejaVuSans-73"/>
      <use x="319.921875" xlink:href="#DejaVuSans-29"/>
     </g>
    </g>
   </g>
   <g id="matplotlib.axis_2">
    <g id="ytick_1">
     <g id="line2d_13">
      <path clip-path="url(#pc0bba47787)" d="M 40.603125 223.802545 
L 487.003125 223.802545 
" style="fill:none;stroke:#b0b0b0;stroke-linecap:square;stroke-width:0.8;"/>
     </g>
     <g id="line2d_14">
      <defs>
       <path d="M 0 0 
L -3.5 0 
" id="mbe4d620b51" style="stroke:#000000;stroke-width:0.8;"/>
      </defs>
      <g>
       <use style="stroke:#000000;stroke-width:0.8;" x="40.603125" xlink:href="#mbe4d620b51" y="223.802545"/>
      </g>
     </g>
     <g id="text_8">
      <!-- 26 -->
      <g transform="translate(20.878125 227.601764)scale(0.1 -0.1)">
       <defs>
        <path d="M 2113 2584 
Q 1688 2584 1439 2293 
Q 1191 2003 1191 1497 
Q 1191 994 1439 701 
Q 1688 409 2113 409 
Q 2538 409 2786 701 
Q 3034 994 3034 1497 
Q 3034 2003 2786 2293 
Q 2538 2584 2113 2584 
z
M 3366 4563 
L 3366 3988 
Q 3128 4100 2886 4159 
Q 2644 4219 2406 4219 
Q 1781 4219 1451 3797 
Q 1122 3375 1075 2522 
Q 1259 2794 1537 2939 
Q 1816 3084 2150 3084 
Q 2853 3084 3261 2657 
Q 3669 2231 3669 1497 
Q 3669 778 3244 343 
Q 2819 -91 2113 -91 
Q 1303 -91 875 529 
Q 447 1150 447 2328 
Q 447 3434 972 4092 
Q 1497 4750 2381 4750 
Q 2619 4750 2861 4703 
Q 3103 4656 3366 4563 
z
" id="DejaVuSans-36" transform="scale(0.015625)"/>
       </defs>
       <use xlink:href="#DejaVuSans-32"/>
       <use x="63.623047" xlink:href="#DejaVuSans-36"/>
      </g>
     </g>
    </g>
    <g id="ytick_2">
     <g id="line2d_15">
      <path clip-path="url(#pc0bba47787)" d="M 40.603125 194.946314 
L 487.003125 194.946314 
" style="fill:none;stroke:#b0b0b0;stroke-linecap:square;stroke-width:0.8;"/>
     </g>
     <g id="line2d_16">
      <g>
       <use style="stroke:#000000;stroke-width:0.8;" x="40.603125" xlink:href="#mbe4d620b51" y="194.946314"/>
      </g>
     </g>
     <g id="text_9">
      <!-- 28 -->
      <g transform="translate(20.878125 198.745533)scale(0.1 -0.1)">
       <defs>
        <path d="M 2034 2216 
Q 1584 2216 1326 1975 
Q 1069 1734 1069 1313 
Q 1069 891 1326 650 
Q 1584 409 2034 409 
Q 2484 409 2743 651 
Q 3003 894 3003 1313 
Q 3003 1734 2745 1975 
Q 2488 2216 2034 2216 
z
M 1403 2484 
Q 997 2584 770 2862 
Q 544 3141 544 3541 
Q 544 4100 942 4425 
Q 1341 4750 2034 4750 
Q 2731 4750 3128 4425 
Q 3525 4100 3525 3541 
Q 3525 3141 3298 2862 
Q 3072 2584 2669 2484 
Q 3125 2378 3379 2068 
Q 3634 1759 3634 1313 
Q 3634 634 3220 271 
Q 2806 -91 2034 -91 
Q 1263 -91 848 271 
Q 434 634 434 1313 
Q 434 1759 690 2068 
Q 947 2378 1403 2484 
z
M 1172 3481 
Q 1172 3119 1398 2916 
Q 1625 2713 2034 2713 
Q 2441 2713 2670 2916 
Q 2900 3119 2900 3481 
Q 2900 3844 2670 4047 
Q 2441 4250 2034 4250 
Q 1625 4250 1398 4047 
Q 1172 3844 1172 3481 
z
" id="DejaVuSans-38" transform="scale(0.015625)"/>
       </defs>
       <use xlink:href="#DejaVuSans-32"/>
       <use x="63.623047" xlink:href="#DejaVuSans-38"/>
      </g>
     </g>
    </g>
    <g id="ytick_3">
     <g id="line2d_17">
      <path clip-path="url(#pc0bba47787)" d="M 40.603125 166.090083 
L 487.003125 166.090083 
" style="fill:none;stroke:#b0b0b0;stroke-linecap:square;stroke-width:0.8;"/>
     </g>
     <g id="line2d_18">
      <g>
       <use style="stroke:#000000;stroke-width:0.8;" x="40.603125" xlink:href="#mbe4d620b51" y="166.090083"/>
      </g>
     </g>
     <g id="text_10">
      <!-- 30 -->
      <g transform="translate(20.878125 169.889301)scale(0.1 -0.1)">
       <use xlink:href="#DejaVuSans-33"/>
       <use x="63.623047" xlink:href="#DejaVuSans-30"/>
      </g>
     </g>
    </g>
    <g id="ytick_4">
     <g id="line2d_19">
      <path clip-path="url(#pc0bba47787)" d="M 40.603125 137.233851 
L 487.003125 137.233851 
" style="fill:none;stroke:#b0b0b0;stroke-linecap:square;stroke-width:0.8;"/>
     </g>
     <g id="line2d_20">
      <g>
       <use style="stroke:#000000;stroke-width:0.8;" x="40.603125" xlink:href="#mbe4d620b51" y="137.233851"/>
      </g>
     </g>
     <g id="text_11">
      <!-- 32 -->
      <g transform="translate(20.878125 141.03307)scale(0.1 -0.1)">
       <use xlink:href="#DejaVuSans-33"/>
       <use x="63.623047" xlink:href="#DejaVuSans-32"/>
      </g>
     </g>
    </g>
    <g id="ytick_5">
     <g id="line2d_21">
      <path clip-path="url(#pc0bba47787)" d="M 40.603125 108.37762 
L 487.003125 108.37762 
" style="fill:none;stroke:#b0b0b0;stroke-linecap:square;stroke-width:0.8;"/>
     </g>
     <g id="line2d_22">
      <g>
       <use style="stroke:#000000;stroke-width:0.8;" x="40.603125" xlink:href="#mbe4d620b51" y="108.37762"/>
      </g>
     </g>
     <g id="text_12">
      <!-- 34 -->
      <g transform="translate(20.878125 112.176839)scale(0.1 -0.1)">
       <use xlink:href="#DejaVuSans-33"/>
       <use x="63.623047" xlink:href="#DejaVuSans-34"/>
      </g>
     </g>
    </g>
    <g id="ytick_6">
     <g id="line2d_23">
      <path clip-path="url(#pc0bba47787)" d="M 40.603125 79.521389 
L 487.003125 79.521389 
" style="fill:none;stroke:#b0b0b0;stroke-linecap:square;stroke-width:0.8;"/>
     </g>
     <g id="line2d_24">
      <g>
       <use style="stroke:#000000;stroke-width:0.8;" x="40.603125" xlink:href="#mbe4d620b51" y="79.521389"/>
      </g>
     </g>
     <g id="text_13">
      <!-- 36 -->
      <g transform="translate(20.878125 83.320607)scale(0.1 -0.1)">
       <use xlink:href="#DejaVuSans-33"/>
       <use x="63.623047" xlink:href="#DejaVuSans-36"/>
      </g>
     </g>
    </g>
    <g id="ytick_7">
     <g id="line2d_25">
      <path clip-path="url(#pc0bba47787)" d="M 40.603125 50.665157 
L 487.003125 50.665157 
" style="fill:none;stroke:#b0b0b0;stroke-linecap:square;stroke-width:0.8;"/>
     </g>
     <g id="line2d_26">
      <g>
       <use style="stroke:#000000;stroke-width:0.8;" x="40.603125" xlink:href="#mbe4d620b51" y="50.665157"/>
      </g>
     </g>
     <g id="text_14">
      <!-- 38 -->
      <g transform="translate(20.878125 54.464376)scale(0.1 -0.1)">
       <use xlink:href="#DejaVuSans-33"/>
       <use x="63.623047" xlink:href="#DejaVuSans-38"/>
      </g>
     </g>
    </g>
    <g id="text_15">
     <!-- Geschwindigkeit (m/s) -->
     <g transform="translate(14.798438 186.685781)rotate(-90)scale(0.1 -0.1)">
      <defs>
       <path d="M 3809 666 
L 3809 1919 
L 2778 1919 
L 2778 2438 
L 4434 2438 
L 4434 434 
Q 4069 175 3628 42 
Q 3188 -91 2688 -91 
Q 1594 -91 976 548 
Q 359 1188 359 2328 
Q 359 3472 976 4111 
Q 1594 4750 2688 4750 
Q 3144 4750 3555 4637 
Q 3966 4525 4313 4306 
L 4313 3634 
Q 3963 3931 3569 4081 
Q 3175 4231 2741 4231 
Q 1884 4231 1454 3753 
Q 1025 3275 1025 2328 
Q 1025 1384 1454 906 
Q 1884 428 2741 428 
Q 3075 428 3337 486 
Q 3600 544 3809 666 
z
" id="DejaVuSans-47" transform="scale(0.015625)"/>
       <path d="M 3122 3366 
L 3122 2828 
Q 2878 2963 2633 3030 
Q 2388 3097 2138 3097 
Q 1578 3097 1268 2742 
Q 959 2388 959 1747 
Q 959 1106 1268 751 
Q 1578 397 2138 397 
Q 2388 397 2633 464 
Q 2878 531 3122 666 
L 3122 134 
Q 2881 22 2623 -34 
Q 2366 -91 2075 -91 
Q 1284 -91 818 406 
Q 353 903 353 1747 
Q 353 2603 823 3093 
Q 1294 3584 2113 3584 
Q 2378 3584 2631 3529 
Q 2884 3475 3122 3366 
z
" id="DejaVuSans-63" transform="scale(0.015625)"/>
       <path d="M 3513 2113 
L 3513 0 
L 2938 0 
L 2938 2094 
Q 2938 2591 2744 2837 
Q 2550 3084 2163 3084 
Q 1697 3084 1428 2787 
Q 1159 2491 1159 1978 
L 1159 0 
L 581 0 
L 581 4863 
L 1159 4863 
L 1159 2956 
Q 1366 3272 1645 3428 
Q 1925 3584 2291 3584 
Q 2894 3584 3203 3211 
Q 3513 2838 3513 2113 
z
" id="DejaVuSans-68" transform="scale(0.015625)"/>
       <path d="M 269 3500 
L 844 3500 
L 1563 769 
L 2278 3500 
L 2956 3500 
L 3675 769 
L 4391 3500 
L 4966 3500 
L 4050 0 
L 3372 0 
L 2619 2869 
L 1863 0 
L 1184 0 
L 269 3500 
z
" id="DejaVuSans-77" transform="scale(0.015625)"/>
       <path d="M 3513 2113 
L 3513 0 
L 2938 0 
L 2938 2094 
Q 2938 2591 2744 2837 
Q 2550 3084 2163 3084 
Q 1697 3084 1428 2787 
Q 1159 2491 1159 1978 
L 1159 0 
L 581 0 
L 581 3500 
L 1159 3500 
L 1159 2956 
Q 1366 3272 1645 3428 
Q 1925 3584 2291 3584 
Q 2894 3584 3203 3211 
Q 3513 2838 3513 2113 
z
" id="DejaVuSans-6e" transform="scale(0.015625)"/>
       <path d="M 2906 2969 
L 2906 4863 
L 3481 4863 
L 3481 0 
L 2906 0 
L 2906 525 
Q 2725 213 2448 61 
Q 2172 -91 1784 -91 
Q 1150 -91 751 415 
Q 353 922 353 1747 
Q 353 2572 751 3078 
Q 1150 3584 1784 3584 
Q 2172 3584 2448 3432 
Q 2725 3281 2906 2969 
z
M 947 1747 
Q 947 1113 1208 752 
Q 1469 391 1925 391 
Q 2381 391 2643 752 
Q 2906 1113 2906 1747 
Q 2906 2381 2643 2742 
Q 2381 3103 1925 3103 
Q 1469 3103 1208 2742 
Q 947 2381 947 1747 
z
" id="DejaVuSans-64" transform="scale(0.015625)"/>
       <path d="M 2906 1791 
Q 2906 2416 2648 2759 
Q 2391 3103 1925 3103 
Q 1463 3103 1205 2759 
Q 947 2416 947 1791 
Q 947 1169 1205 825 
Q 1463 481 1925 481 
Q 2391 481 2648 825 
Q 2906 1169 2906 1791 
z
M 3481 434 
Q 3481 -459 3084 -895 
Q 2688 -1331 1869 -1331 
Q 1566 -1331 1297 -1286 
Q 1028 -1241 775 -1147 
L 775 -588 
Q 1028 -725 1275 -790 
Q 1522 -856 1778 -856 
Q 2344 -856 2625 -561 
Q 2906 -266 2906 331 
L 2906 616 
Q 2728 306 2450 153 
Q 2172 0 1784 0 
Q 1141 0 747 490 
Q 353 981 353 1791 
Q 353 2603 747 3093 
Q 1141 3584 1784 3584 
Q 2172 3584 2450 3431 
Q 2728 3278 2906 2969 
L 2906 3500 
L 3481 3500 
L 3481 434 
z
" id="DejaVuSans-67" transform="scale(0.015625)"/>
       <path d="M 581 4863 
L 1159 4863 
L 1159 1991 
L 2875 3500 
L 3609 3500 
L 1753 1863 
L 3688 0 
L 2938 0 
L 1159 1709 
L 1159 0 
L 581 0 
L 581 4863 
z
" id="DejaVuSans-6b" transform="scale(0.015625)"/>
       <path d="M 3328 2828 
Q 3544 3216 3844 3400 
Q 4144 3584 4550 3584 
Q 5097 3584 5394 3201 
Q 5691 2819 5691 2113 
L 5691 0 
L 5113 0 
L 5113 2094 
Q 5113 2597 4934 2840 
Q 4756 3084 4391 3084 
Q 3944 3084 3684 2787 
Q 3425 2491 3425 1978 
L 3425 0 
L 2847 0 
L 2847 2094 
Q 2847 2600 2669 2842 
Q 2491 3084 2119 3084 
Q 1678 3084 1418 2786 
Q 1159 2488 1159 1978 
L 1159 0 
L 581 0 
L 581 3500 
L 1159 3500 
L 1159 2956 
Q 1356 3278 1631 3431 
Q 1906 3584 2284 3584 
Q 2666 3584 2933 3390 
Q 3200 3197 3328 2828 
z
" id="DejaVuSans-6d" transform="scale(0.015625)"/>
       <path d="M 1625 4666 
L 2156 4666 
L 531 -594 
L 0 -594 
L 1625 4666 
z
" id="DejaVuSans-2f" transform="scale(0.015625)"/>
      </defs>
      <use xlink:href="#DejaVuSans-47"/>
      <use x="77.490234" xlink:href="#DejaVuSans-65"/>
      <use x="139.013672" xlink:href="#DejaVuSans-73"/>
      <use x="191.113281" xlink:href="#DejaVuSans-63"/>
      <use x="246.09375" xlink:href="#DejaVuSans-68"/>
      <use x="309.472656" xlink:href="#DejaVuSans-77"/>
      <use x="391.259766" xlink:href="#DejaVuSans-69"/>
      <use x="419.042969" xlink:href="#DejaVuSans-6e"/>
      <use x="482.421875" xlink:href="#DejaVuSans-64"/>
      <use x="545.898438" xlink:href="#DejaVuSans-69"/>
      <use x="573.681641" xlink:href="#DejaVuSans-67"/>
      <use x="637.158203" xlink:href="#DejaVuSans-6b"/>
      <use x="691.443359" xlink:href="#DejaVuSans-65"/>
      <use x="752.966797" xlink:href="#DejaVuSans-69"/>
      <use x="780.75" xlink:href="#DejaVuSans-74"/>
      <use x="819.958984" xlink:href="#DejaVuSans-20"/>
      <use x="851.746094" xlink:href="#DejaVuSans-28"/>
      <use x="890.759766" xlink:href="#DejaVuSans-6d"/>
      <use x="988.171875" xlink:href="#DejaVuSans-2f"/>
      <use x="1021.863281" xlink:href="#DejaVuSans-73"/>
      <use x="1073.962891" xlink:href="#DejaVuSans-29"/>
     </g>
    </g>
   </g>
   <g id="line2d_27">
    <path clip-path="url(#pc0bba47787)" d="M 60.894034 211.151862 
L 63.217301 213.284711 
L 65.540607 215.861262 
L 67.865656 218.407619 
L 69.028654 219.298699 
L 70.190221 219.688324 
L 71.350771 219.453964 
L 72.511072 218.500682 
L 73.671246 216.859843 
L 74.830677 214.587859 
L 75.992072 211.79843 
L 78.314869 205.129546 
L 80.637096 198.161543 
L 81.797335 195.081448 
L 82.958393 192.512997 
L 84.117834 190.577116 
L 85.278211 189.359061 
L 86.439856 188.83283 
L 87.599757 188.886114 
L 88.761191 189.350713 
L 93.407067 192.102776 
L 94.570981 192.887713 
L 95.731656 193.933458 
L 96.894348 195.397771 
L 98.053875 197.315648 
L 99.215855 199.679632 
L 103.860121 210.338749 
L 105.02046 212.355508 
L 106.182347 213.847777 
L 107.34268 214.702283 
L 108.504801 214.848896 
L 109.672145 214.313632 
L 110.832805 213.149039 
L 111.9941 211.451692 
L 113.156018 209.39295 
L 116.637379 202.284085 
L 124.767901 185.437838 
L 127.088924 180.409897 
L 129.413464 176.01762 
L 131.735519 172.503198 
L 134.059286 169.057211 
L 135.221259 167.058175 
L 137.545948 162.344209 
L 141.013517 154.113321 
L 146.816644 139.76528 
L 150.304105 131.189646 
L 152.626176 126.004042 
L 161.918091 106.505778 
L 164.242225 102.005957 
L 165.403409 99.494771 
L 167.725996 93.692752 
L 170.048739 86.910095 
L 174.70187 71.955432 
L 177.038328 64.671965 
L 178.20443 61.371156 
L 179.375778 58.451035 
L 180.539902 55.979055 
L 181.711336 54.050509 
L 182.872645 52.652656 
L 184.05608 51.775424 
L 185.225991 51.377582 
L 186.387924 51.405241 
L 187.558797 51.833345 
L 188.720527 52.586102 
L 189.886269 53.5778 
L 193.375489 57.090739 
L 194.540098 57.955145 
L 195.707216 58.482138 
L 196.873724 58.619792 
L 198.036103 58.213508 
L 199.198758 57.290034 
L 200.363233 55.773579 
L 201.525864 53.683719 
L 202.688047 51.031588 
L 205.014746 44.585896 
L 207.344832 38.187393 
L 208.508611 35.663272 
L 209.672946 33.823937 
L 210.840291 32.685349 
L 212.005143 32.201761 
L 213.17065 32.235681 
L 214.335812 32.636339 
L 215.496832 33.304051 
L 216.662293 34.182158 
L 217.830006 35.306856 
L 218.991924 36.747888 
L 220.15622 38.558853 
L 221.320758 40.74969 
L 222.485428 43.350861 
L 223.641991 46.271277 
L 225.951051 53.057679 
L 228.276279 61.100674 
L 230.60125 70.420678 
L 235.253194 90.874058 
L 238.737332 106.908217 
L 241.058893 118.905631 
L 243.383208 132.358087 
L 249.190432 167.806677 
L 251.514176 180.566216 
L 252.676266 186.147465 
L 253.839756 190.852161 
L 255.001112 194.390675 
L 256.162703 196.519464 
L 257.324778 197.179144 
L 258.489103 196.517464 
L 259.651492 194.852856 
L 261.976041 190.363623 
L 263.138937 188.508657 
L 264.30091 187.381946 
L 265.464047 187.165208 
L 266.625834 187.890076 
L 267.78737 189.49951 
L 268.949742 191.842368 
L 271.278818 197.559263 
L 273.612304 203.128168 
L 274.776365 205.398546 
L 275.955352 207.158502 
L 277.1248 208.39151 
L 278.292905 209.164604 
L 279.455112 209.541137 
L 280.628196 209.611776 
L 281.802875 209.404427 
L 282.96814 208.94914 
L 284.129551 208.250437 
L 285.293362 207.32984 
L 289.954321 203.091337 
L 291.115919 202.495015 
L 292.278502 202.270224 
L 293.441593 202.426463 
L 294.602731 202.901332 
L 296.927802 204.394522 
L 301.577143 207.717117 
L 303.899361 209.027177 
L 306.229281 209.925615 
L 307.403766 210.16932 
L 308.583708 210.298816 
L 309.737603 210.284394 
L 310.891601 210.151896 
L 312.058946 209.877865 
L 313.228411 209.475066 
L 315.554829 208.333949 
L 319.03974 206.089679 
L 321.364687 204.321609 
L 323.688189 202.263705 
L 326.018156 200.156203 
L 327.179661 199.301357 
L 328.341922 198.753704 
L 329.503606 198.567717 
L 330.670295 198.694645 
L 332.993969 199.542804 
L 334.156128 200.015362 
L 335.319525 200.362697 
L 336.481507 200.541057 
L 337.64298 200.490186 
L 338.807548 200.276731 
L 343.459704 198.972753 
L 345.788303 198.5752 
L 346.948986 198.245708 
L 348.110958 197.674886 
L 349.272916 196.822549 
L 351.598357 194.374913 
L 352.760339 193.150068 
L 353.922733 192.217311 
L 355.089398 191.734968 
L 356.250347 191.763274 
L 357.411798 192.270964 
L 358.575147 193.16056 
L 362.059745 196.508585 
L 363.221914 197.334368 
L 364.384209 197.881369 
L 365.546784 198.151579 
L 366.709586 198.17649 
L 369.035152 198.043134 
L 370.197242 198.17339 
L 371.358911 198.622843 
L 372.521627 199.469721 
L 373.683522 200.754454 
L 374.848591 202.433971 
L 376.013552 204.486506 
L 377.175016 206.849348 
L 379.498885 212.311485 
L 384.146192 223.836206 
L 385.307056 226.171797 
L 386.468654 228.012245 
L 387.629141 229.239084 
L 388.789621 229.868638 
L 389.951375 229.874489 
L 391.114256 229.309075 
L 392.275548 228.280888 
L 393.431416 226.904416 
L 398.076322 220.521528 
L 399.239046 219.285991 
L 401.56401 217.352557 
L 402.725309 216.443234 
L 403.895455 215.334323 
L 405.060524 213.962033 
L 406.230114 212.188612 
L 407.396113 210.101433 
L 410.880922 203.127812 
L 412.042263 201.183617 
L 413.204331 199.642025 
L 414.367868 198.536559 
L 415.530325 197.809218 
L 416.692486 197.395603 
L 419.019804 197.064139 
L 422.509898 196.912317 
L 424.838029 197.094175 
L 425.999987 197.377181 
L 427.161561 197.791218 
L 429.489503 199.006965 
L 431.819761 200.706844 
L 432.981374 201.744704 
L 434.143738 202.937021 
L 436.474987 205.866072 
L 441.13332 212.594477 
L 442.305833 213.913435 
L 443.468126 214.888713 
L 444.637888 215.47119 
L 445.806117 215.671647 
L 446.969967 215.545431 
L 448.131151 215.147476 
L 450.453767 213.934326 
L 455.101067 211.036952 
L 457.422636 209.363989 
L 459.745293 207.203184 
L 462.067723 204.596342 
L 464.389622 201.96633 
L 465.551196 200.856825 
L 466.712216 199.977083 
L 466.712216 199.977083 
" style="fill:none;stroke:#1f77b4;stroke-linecap:square;stroke-width:1.5;"/>
   </g>
   <g id="line2d_28">
    <path clip-path="url(#pc0bba47787)" d="M 60.894034 200.24773 
L 62.057416 200.06187 
L 63.217301 200.074023 
L 64.37825 200.330398 
L 65.540607 200.860434 
L 66.701258 201.662693 
L 67.865656 202.707067 
L 72.511072 207.54523 
L 73.671246 208.374734 
L 74.830677 208.841142 
L 75.992072 208.895484 
L 77.152632 208.500664 
L 78.314869 207.672837 
L 79.476249 206.447905 
L 80.637096 204.892021 
L 82.958393 201.211529 
L 85.278211 197.469821 
L 86.439856 195.837732 
L 87.599757 194.466735 
L 88.761191 193.413741 
L 89.922251 192.684052 
L 91.084591 192.253538 
L 92.245212 192.063458 
L 93.407067 192.040149 
L 95.731656 192.274341 
L 98.053875 192.837078 
L 99.215855 193.342739 
L 100.375914 194.076454 
L 101.537362 195.084385 
L 102.698155 196.388352 
L 103.860121 197.9413 
L 108.504801 204.965122 
L 109.672145 206.355623 
L 110.832805 207.399927 
L 111.9941 208.032629 
L 113.156018 208.21149 
L 114.315871 207.910784 
L 115.476399 207.126458 
L 116.637379 205.8855 
L 117.798024 204.22811 
L 118.958621 202.209684 
L 121.281871 197.374512 
L 123.604543 191.837109 
L 132.897492 168.668448 
L 136.383013 161.261295 
L 141.013517 151.446044 
L 144.494683 143.599854 
L 154.951161 119.503173 
L 161.918091 104.990613 
L 166.563647 95.759504 
L 170.048739 88.669471 
L 172.373654 83.344552 
L 179.375778 66.229688 
L 181.711336 61.531264 
L 182.872645 59.497606 
L 184.05608 57.701355 
L 185.225991 56.161355 
L 186.387924 54.901279 
L 187.558797 53.942139 
L 188.720527 53.294359 
L 189.886269 52.946586 
L 191.047679 52.889139 
L 192.209191 53.102603 
L 193.375489 53.551731 
L 195.707216 54.924517 
L 198.036103 56.314176 
L 199.198758 56.765072 
L 200.363233 56.921663 
L 201.525864 56.724082 
L 202.688047 56.130376 
L 203.851383 55.126976 
L 205.014746 53.721902 
L 206.181232 51.95625 
L 208.508611 47.692646 
L 210.840291 43.369313 
L 212.005143 41.599198 
L 213.17065 40.251987 
L 214.335812 39.416211 
L 215.496832 39.10922 
L 216.662293 39.30641 
L 217.830006 39.965605 
L 218.991924 41.032905 
L 220.15622 42.471612 
L 221.320758 44.255636 
L 222.485428 46.393069 
L 223.641991 48.875546 
L 224.796928 51.713596 
L 227.11519 58.423067 
L 229.440863 66.396685 
L 231.76274 75.405062 
L 235.253194 90.054209 
L 239.897875 110.477464 
L 243.383208 127.152212 
L 251.514176 168.102448 
L 253.839756 178.489257 
L 256.162703 187.769662 
L 257.324778 191.74684 
L 258.489103 195.087826 
L 259.651492 197.683512 
L 260.813066 199.472701 
L 261.976041 200.484243 
L 263.138937 200.842526 
L 264.30091 200.73449 
L 267.78737 199.789529 
L 268.949742 199.836677 
L 270.115007 200.19479 
L 271.278818 200.870487 
L 272.449165 201.813839 
L 274.776365 204.187717 
L 277.1248 206.616913 
L 278.292905 207.667718 
L 279.455112 208.522106 
L 280.628196 209.158209 
L 281.802875 209.549224 
L 282.96814 209.690691 
L 284.129551 209.580909 
L 285.293362 209.208516 
L 286.463491 208.572774 
L 287.625503 207.681879 
L 288.791847 206.563756 
L 294.602731 200.247517 
L 295.765853 199.417837 
L 296.927802 198.813289 
L 298.090237 198.421 
L 299.252484 198.197409 
L 301.577143 198.117913 
L 303.899361 198.323703 
L 308.583708 198.847667 
L 310.891601 198.839805 
L 313.228411 198.572505 
L 315.554829 198.091932 
L 319.03974 197.118667 
L 326.018156 194.974686 
L 328.341922 194.468193 
L 330.670295 194.235904 
L 331.832932 194.267822 
L 332.993969 194.428499 
L 335.319525 195.126637 
L 338.807548 196.4107 
L 339.969797 196.626962 
L 341.132276 196.668733 
L 342.294305 196.539335 
L 344.625601 195.973143 
L 348.110958 195.139462 
L 351.598357 194.422993 
L 355.089398 193.689176 
L 356.250347 193.622004 
L 357.411798 193.730035 
L 358.575147 194.036988 
L 359.736417 194.537894 
L 362.059745 195.980789 
L 367.873483 200.253828 
L 370.197242 201.625972 
L 376.013552 204.672853 
L 377.175016 205.574569 
L 378.337443 206.671404 
L 379.498885 207.980308 
L 380.659819 209.491948 
L 382.983961 213.03777 
L 386.468654 218.810558 
L 387.629141 220.531578 
L 388.789621 222.01364 
L 389.951375 223.174708 
L 391.114256 223.975507 
L 392.275548 224.384913 
L 393.431416 224.383001 
L 394.586532 223.962467 
L 395.74734 223.147227 
L 396.916506 221.978731 
L 398.076322 220.52931 
L 401.56401 215.407472 
L 403.895455 212.162557 
L 408.558299 206.149563 
L 415.530325 196.345586 
L 417.854265 194.057548 
L 420.1808 192.284556 
L 422.509898 190.874852 
L 424.838029 189.858099 
L 425.999987 189.55333 
L 427.161561 189.40632 
L 428.325841 189.420217 
L 429.489503 189.590153 
L 430.657928 189.90731 
L 432.981374 190.886439 
L 435.306173 192.300877 
L 437.637078 194.183716 
L 439.970385 196.581089 
L 444.637888 201.83897 
L 445.806117 202.911211 
L 446.969967 203.784516 
L 448.131151 204.435571 
L 449.293187 204.86881 
L 450.453767 205.087946 
L 451.615343 205.101101 
L 452.777176 204.922657 
L 453.938093 204.584533 
L 456.262056 203.504405 
L 458.583759 202.099268 
L 464.389622 198.415877 
L 466.712216 197.277433 
L 466.712216 197.277433 
" style="fill:none;stroke:#ff7f0e;stroke-linecap:square;stroke-width:1.5;"/>
   </g>
   <g id="patch_3">
    <path d="M 40.603125 239.758125 
L 40.603125 22.318125 
" style="fill:none;stroke:#000000;stroke-linecap:square;stroke-linejoin:miter;stroke-width:0.8;"/>
   </g>
   <g id="patch_4">
    <path d="M 487.003125 239.758125 
L 487.003125 22.318125 
" style="fill:none;stroke:#000000;stroke-linecap:square;stroke-linejoin:miter;stroke-width:0.8;"/>
   </g>
   <g id="patch_5">
    <path d="M 40.603125 239.758125 
L 487.003125 239.758125 
" style="fill:none;stroke:#000000;stroke-linecap:square;stroke-linejoin:miter;stroke-width:0.8;"/>
   </g>
   <g id="patch_6">
    <path d="M 40.603125 22.318125 
L 487.003125 22.318125 
" style="fill:none;stroke:#000000;stroke-linecap:square;stroke-linejoin:miter;stroke-width:0.8;"/>
   </g>
   <g id="text_16">
    <!-- Geschwindigkeit -->
    <g transform="translate(214.605938 16.318125)scale(0.12 -0.12)">
     <use xlink:href="#DejaVuSans-47"/>
     <use x="77.490234" xlink:href="#DejaVuSans-65"/>
     <use x="139.013672" xlink:href="#DejaVuSans-73"/>
     <use x="191.113281" xlink:href="#DejaVuSans-63"/>
     <use x="246.09375" xlink:href="#DejaVuSans-68"/>
     <use x="309.472656" xlink:href="#DejaVuSans-77"/>
     <use x="391.259766" xlink:href="#DejaVuSans-69"/>
     <use x="419.042969" xlink:href="#DejaVuSans-6e"/>
     <use x="482.421875" xlink:href="#DejaVuSans-64"/>
     <use x="545.898438" xlink:href="#DejaVuSans-69"/>
     <use x="573.681641" xlink:href="#DejaVuSans-67"/>
     <use x="637.158203" xlink:href="#DejaVuSans-6b"/>
     <use x="691.443359" xlink:href="#DejaVuSans-65"/>
     <use x="752.966797" xlink:href="#DejaVuSans-69"/>
     <use x="780.75" xlink:href="#DejaVuSans-74"/>
    </g>
   </g>
  </g>
 </g>
 <defs>
  <clipPath id="pc0bba47787">
   <rect height="217.44" width="446.4" x="40.603125" y="22.318125"/>
  </clipPath>
 </defs>
</svg>
